<svg width="25" height="18" viewBox="0 0 25 18" fill="none" xmlns="http://www.w3.org/2000/svg">
<path d="M12.5 17.6471C11.9682 17.6445 11.4438 17.5306 10.9646 17.3136C10.4854 17.0965 10.0636 16.7818 9.7297 16.3922L0.96058 6.39216C0.448167 5.79013 0.125713 5.06471 0.0299628 4.29857C-0.0657871 3.53242 0.0690182 2.75636 0.419018 2.05882C0.702878 1.4526 1.16611 0.936105 1.75338 0.571025C2.34065 0.205945 3.02715 0.00771187 3.73087 0H21.2691C21.9728 0.00771187 22.6593 0.205945 23.2466 0.571025C23.8339 0.936105 24.2971 1.4526 24.581 2.05882C24.931 2.75636 25.0658 3.53242 24.97 4.29857C24.8743 5.06471 24.5518 5.79013 24.0394 6.39216L15.2703 16.3922C14.9364 16.7818 14.5146 17.0965 14.0354 17.3136C13.5562 17.5306 13.0318 17.6445 12.5 17.6471Z" fill="#045762"/>
</svg>
