<svg width="183" height="114" viewBox="0 0 183 114" fill="none" xmlns="http://www.w3.org/2000/svg">
<path d="M105.114 111V94.381L143.946 58.4258C147.248 55.2298 150.018 52.3533 152.255 49.7965C154.528 47.2397 156.25 44.7361 157.422 42.2859C158.594 39.8001 159.18 37.119 159.18 34.2425C159.18 31.0465 158.452 28.2944 156.996 25.9862C155.54 23.6424 153.551 21.8491 151.03 20.6062C148.509 19.3278 145.65 18.6886 142.454 18.6886C139.116 18.6886 136.204 19.3633 133.718 20.7127C131.233 22.0621 129.315 23.9975 127.965 26.5188C126.616 29.0401 125.941 32.0408 125.941 35.521H104.049C104.049 28.3832 105.664 22.1864 108.896 16.9308C112.127 11.6751 116.655 7.60902 122.479 4.7326C128.303 1.85618 135.014 0.417969 142.614 0.417969C150.426 0.417969 157.227 1.80291 163.015 4.5728C168.839 7.30717 173.367 11.1069 176.598 15.9719C179.83 20.837 181.446 26.4123 181.446 32.6978C181.446 36.8171 180.629 40.8832 178.995 44.896C177.397 48.9087 174.539 53.3654 170.419 58.266C166.3 63.131 160.494 68.9727 153.001 75.7908L137.074 91.3981V92.1438H182.884V111H105.114Z" fill="url(#paint0_linear_254_1386)"/>
<path d="M44.6159 113.397C35.4539 113.362 27.5704 111.107 20.9653 106.632C14.3957 102.158 9.33532 95.6772 5.78418 87.19C2.26855 78.7028 0.528498 68.4932 0.564009 56.5614C0.564009 44.6651 2.32182 34.5266 5.83745 26.146C9.38858 17.7653 14.449 11.391 21.0186 7.02309C27.6237 2.61967 35.4894 0.417969 44.6159 0.417969C53.7423 0.417969 61.5903 2.61967 68.1599 7.02309C74.765 11.4265 79.8431 17.8185 83.3943 26.1992C86.9454 34.5444 88.7032 44.6651 88.6677 56.5614C88.6677 68.5288 86.8921 78.756 83.341 87.2433C79.8254 95.7305 74.7828 102.211 68.2132 106.686C61.6436 111.16 53.7778 113.397 44.6159 113.397ZM44.6159 94.2745C50.8659 94.2745 55.8552 91.1317 59.5839 84.8462C63.3126 78.5607 65.1592 69.1325 65.1237 56.5614C65.1237 48.2873 64.2714 41.3981 62.5669 35.8938C60.8978 30.3896 58.5186 26.2525 55.4291 23.4826C52.3751 20.7127 48.7707 19.3278 44.6159 19.3278C38.4014 19.3278 33.4298 22.435 29.7011 28.6495C25.9724 34.864 24.0903 44.168 24.0548 56.5614C24.0548 64.9421 24.8893 71.9379 26.5583 77.5487C28.2629 83.1239 30.6599 87.3143 33.7494 90.1197C36.8389 92.8896 40.461 94.2745 44.6159 94.2745Z" fill="url(#paint1_linear_254_1386)"/>
<defs>
<linearGradient id="paint0_linear_254_1386" x1="92.5593" y1="56" x2="92.1123" y2="147.001" gradientUnits="userSpaceOnUse">
<stop stop-color="#373737"/>
<stop offset="1" stop-color="#373737" stop-opacity="0"/>
</linearGradient>
<linearGradient id="paint1_linear_254_1386" x1="92.5593" y1="56" x2="92.1123" y2="147.001" gradientUnits="userSpaceOnUse">
<stop stop-color="#373737"/>
<stop offset="1" stop-color="#373737" stop-opacity="0"/>
</linearGradient>
</defs>
</svg>
