<svg width="188" height="114" viewBox="0 0 188 114" fill="none" xmlns="http://www.w3.org/2000/svg">
<path d="M145.437 112.492C137.483 112.492 130.398 111.125 124.184 108.39C118.005 105.62 113.122 101.821 109.535 96.9911C105.984 92.1261 104.155 86.5153 104.049 80.1587H127.273C127.415 82.8221 128.285 85.1658 129.883 87.19C131.517 89.1786 133.683 90.7234 136.382 91.8242C139.081 92.9251 142.117 93.4755 145.49 93.4755C149.006 93.4755 152.113 92.854 154.812 91.6112C157.511 90.3683 159.624 88.646 161.151 86.4443C162.678 84.2425 163.441 81.7035 163.441 78.8271C163.441 75.9151 162.625 73.3406 160.991 71.1033C159.393 68.8306 157.085 67.055 154.066 65.7766C151.083 64.4982 147.532 63.859 143.413 63.859H133.239V46.9201H143.413C146.893 46.9201 149.965 46.3164 152.628 45.109C155.327 43.9016 157.422 42.2326 158.914 40.1019C160.405 37.9357 161.151 35.4144 161.151 32.538C161.151 29.8036 160.494 27.4066 159.18 25.3469C157.902 23.2518 156.09 21.6183 153.747 20.4464C151.438 19.2745 148.74 18.6886 145.65 18.6886C142.525 18.6886 139.666 19.2568 137.074 20.3931C134.482 21.494 132.404 23.0742 130.842 25.1339C129.279 27.1935 128.445 29.6083 128.338 32.3782H106.233C106.339 26.0927 108.132 20.5529 111.613 15.7589C115.093 10.9648 119.78 7.21839 125.675 4.51953C131.605 1.78516 138.299 0.417969 145.757 0.417969C153.285 0.417969 159.872 1.78516 165.519 4.51953C171.165 7.25391 175.551 10.9471 178.676 15.5991C181.836 20.2156 183.399 25.4002 183.363 31.1531C183.399 37.261 181.499 42.3569 177.664 46.4407C173.864 50.5245 168.91 53.1168 162.802 54.2177V55.07C170.828 56.0998 176.936 58.8874 181.126 63.4329C185.352 67.9428 187.447 73.5891 187.412 80.3718C187.447 86.5863 185.654 92.1083 182.032 96.9379C178.445 101.767 173.491 105.567 167.17 108.337C160.849 111.107 153.605 112.492 145.437 112.492Z" fill="url(#paint0_linear_254_1390)"/>
<path d="M44.6159 113.397C35.4539 113.362 27.5704 111.107 20.9653 106.632C14.3957 102.158 9.33532 95.6772 5.78418 87.19C2.26855 78.7028 0.528498 68.4932 0.564009 56.5614C0.564009 44.6651 2.32182 34.5266 5.83745 26.146C9.38858 17.7653 14.449 11.391 21.0186 7.02309C27.6237 2.61967 35.4894 0.417969 44.6159 0.417969C53.7423 0.417969 61.5903 2.61967 68.1599 7.02309C74.765 11.4265 79.8431 17.8185 83.3943 26.1992C86.9454 34.5444 88.7032 44.6651 88.6677 56.5614C88.6677 68.5288 86.8921 78.756 83.341 87.2433C79.8254 95.7305 74.7828 102.211 68.2132 106.686C61.6436 111.16 53.7778 113.397 44.6159 113.397ZM44.6159 94.2745C50.8659 94.2745 55.8552 91.1317 59.5839 84.8462C63.3126 78.5607 65.1592 69.1325 65.1237 56.5614C65.1237 48.2873 64.2714 41.3981 62.5669 35.8938C60.8978 30.3896 58.5186 26.2525 55.4291 23.4826C52.3751 20.7127 48.7707 19.3278 44.6159 19.3278C38.4014 19.3278 33.4298 22.435 29.7011 28.6495C25.9724 34.864 24.0903 44.168 24.0548 56.5614C24.0548 64.9421 24.8893 71.9379 26.5583 77.5487C28.2629 83.1239 30.6599 87.3143 33.7494 90.1197C36.8389 92.8896 40.461 94.2745 44.6159 94.2745Z" fill="url(#paint1_linear_254_1390)"/>
<defs>
<linearGradient id="paint0_linear_254_1390" x1="95.0734" y1="56" x2="94.6375" y2="147.001" gradientUnits="userSpaceOnUse">
<stop stop-color="#373737"/>
<stop offset="1" stop-color="#373737" stop-opacity="0"/>
</linearGradient>
<linearGradient id="paint1_linear_254_1390" x1="95.0734" y1="56" x2="94.6375" y2="147.001" gradientUnits="userSpaceOnUse">
<stop stop-color="#373737"/>
<stop offset="1" stop-color="#373737" stop-opacity="0"/>
</linearGradient>
</defs>
</svg>
