<svg width="192" height="114" viewBox="0 0 192 114" fill="none" xmlns="http://www.w3.org/2000/svg">
<path d="M103.463 91.824V73.6599L149.006 1.90918H164.666V27.0512H155.398L126.687 72.488V73.3403H191.407V91.824H103.463ZM155.824 111V86.2842L156.25 78.2409V1.90918H177.877V111H155.824Z" fill="url(#paint0_linear_254_1394)"/>
<path d="M44.6159 113.397C35.4539 113.362 27.5704 111.107 20.9653 106.632C14.3957 102.158 9.33532 95.6772 5.78418 87.19C2.26855 78.7028 0.528498 68.4932 0.564009 56.5614C0.564009 44.6651 2.32182 34.5266 5.83745 26.146C9.38858 17.7653 14.449 11.391 21.0186 7.02309C27.6237 2.61967 35.4894 0.417969 44.6159 0.417969C53.7423 0.417969 61.5903 2.61967 68.1599 7.02309C74.765 11.4265 79.8431 17.8185 83.3943 26.1992C86.9454 34.5444 88.7032 44.6651 88.6677 56.5614C88.6677 68.5288 86.8921 78.756 83.341 87.2433C79.8254 95.7305 74.7828 102.211 68.2132 106.686C61.6436 111.16 53.7778 113.397 44.6159 113.397ZM44.6159 94.2745C50.8659 94.2745 55.8552 91.1317 59.5839 84.8462C63.3126 78.5607 65.1592 69.1325 65.1237 56.5614C65.1237 48.2873 64.2714 41.3981 62.5669 35.8938C60.8978 30.3896 58.5186 26.2525 55.4291 23.4826C52.3751 20.7127 48.7707 19.3278 44.6159 19.3278C38.4014 19.3278 33.4298 22.435 29.7011 28.6495C25.9724 34.864 24.0903 44.168 24.0548 56.5614C24.0548 64.9421 24.8893 71.9379 26.5583 77.5487C28.2629 83.1239 30.6599 87.3143 33.7494 90.1197C36.8389 92.8896 40.461 94.2745 44.6159 94.2745Z" fill="url(#paint1_linear_254_1394)"/>
<defs>
<linearGradient id="paint0_linear_254_1394" x1="96.0791" y1="56" x2="95.6474" y2="147.001" gradientUnits="userSpaceOnUse">
<stop stop-color="#373737"/>
<stop offset="1" stop-color="#373737" stop-opacity="0"/>
</linearGradient>
<linearGradient id="paint1_linear_254_1394" x1="96.0791" y1="56" x2="95.6474" y2="147.001" gradientUnits="userSpaceOnUse">
<stop stop-color="#373737"/>
<stop offset="1" stop-color="#373737" stop-opacity="0"/>
</linearGradient>
</defs>
</svg>
