<svg width="186" height="114" viewBox="0 0 186 114" fill="none" xmlns="http://www.w3.org/2000/svg">
<path d="M144.957 112.492C137.429 112.492 130.717 111.107 124.823 108.337C118.963 105.567 114.311 101.749 110.867 96.8843C107.422 92.0193 105.629 86.444 105.487 80.1585H127.859C128.107 84.3843 129.883 87.8112 133.185 90.439C136.488 93.0668 140.412 94.3808 144.957 94.3808C148.58 94.3808 151.776 93.5818 154.546 91.9838C157.351 90.3502 159.535 88.0953 161.097 85.2188C162.695 82.3069 163.494 78.9688 163.494 75.2046C163.494 71.3694 162.678 67.9958 161.044 65.0839C159.446 62.172 157.227 59.8992 154.386 58.2657C151.545 56.6322 148.296 55.7977 144.638 55.7622C141.442 55.7622 138.335 56.4191 135.316 57.733C132.333 59.047 130.007 60.8403 128.338 63.113L107.83 59.4376L112.997 1.90918H179.688V20.7657H132.014L129.19 48.0917H129.83C131.747 45.3928 134.641 43.1556 138.512 41.3801C142.383 39.6045 146.715 38.7167 151.509 38.7167C158.079 38.7167 163.938 40.2614 169.087 43.3509C174.237 46.4404 178.303 50.684 181.286 56.0818C184.269 61.444 185.742 67.623 185.707 74.6187C185.742 81.9696 184.038 88.5036 180.593 94.221C177.184 99.9028 172.408 104.377 166.264 107.644C160.156 110.876 153.054 112.492 144.957 112.492Z" fill="url(#paint0_linear_254_1398)"/>
<path d="M44.6159 113.397C35.4539 113.362 27.5704 111.107 20.9653 106.632C14.3957 102.158 9.33532 95.6772 5.78418 87.19C2.26855 78.7028 0.528498 68.4932 0.564009 56.5614C0.564009 44.6651 2.32182 34.5266 5.83745 26.146C9.38858 17.7653 14.449 11.391 21.0186 7.02309C27.6237 2.61967 35.4894 0.417969 44.6159 0.417969C53.7423 0.417969 61.5903 2.61967 68.1599 7.02309C74.765 11.4265 79.8431 17.8185 83.3943 26.1992C86.9454 34.5444 88.7032 44.6651 88.6677 56.5614C88.6677 68.5288 86.8921 78.756 83.341 87.2433C79.8254 95.7305 74.7828 102.211 68.2132 106.686C61.6436 111.16 53.7778 113.397 44.6159 113.397ZM44.6159 94.2745C50.8659 94.2745 55.8552 91.1317 59.5839 84.8462C63.3126 78.5607 65.1592 69.1325 65.1237 56.5614C65.1237 48.2873 64.2714 41.3981 62.5669 35.8938C60.8978 30.3896 58.5186 26.2525 55.4291 23.4826C52.3751 20.7127 48.7707 19.3278 44.6159 19.3278C38.4014 19.3278 33.4298 22.435 29.7011 28.6495C25.9724 34.864 24.0903 44.168 24.0548 56.5614C24.0548 64.9421 24.8893 71.9379 26.5583 77.5487C28.2629 83.1239 30.6599 87.3143 33.7494 90.1197C36.8389 92.8896 40.461 94.2745 44.6159 94.2745Z" fill="url(#paint1_linear_254_1398)"/>
<defs>
<linearGradient id="paint0_linear_254_1398" x1="93.565" y1="56" x2="93.1225" y2="147.001" gradientUnits="userSpaceOnUse">
<stop stop-color="#373737"/>
<stop offset="1" stop-color="#373737" stop-opacity="0"/>
</linearGradient>
<linearGradient id="paint1_linear_254_1398" x1="93.565" y1="56" x2="93.1225" y2="147.001" gradientUnits="userSpaceOnUse">
<stop stop-color="#373737"/>
<stop offset="1" stop-color="#373737" stop-opacity="0"/>
</linearGradient>
</defs>
</svg>
