<svg width="188" height="114" viewBox="0 0 188 114" fill="none" xmlns="http://www.w3.org/2000/svg">
<path d="M146.982 112.492C141.371 112.456 135.955 111.515 130.735 109.669C125.551 107.822 120.899 104.821 116.779 100.667C112.66 96.5117 109.393 91.0075 106.978 84.1538C104.599 77.3001 103.409 68.8839 103.409 58.9052C103.445 49.7433 104.492 41.5579 106.552 34.3491C108.647 27.1048 111.63 20.9613 115.501 15.9187C119.407 10.8761 124.077 7.04084 129.51 4.41299C134.943 1.74964 141.033 0.417969 147.781 0.417969C155.06 0.417969 161.488 1.83842 167.063 4.67934C172.639 7.48473 177.113 11.3022 180.487 16.1318C183.896 20.9613 185.955 26.3768 186.666 32.3782H163.921C163.033 28.5785 161.168 25.5955 158.327 23.4293C155.487 21.2631 151.971 20.18 147.781 20.18C140.678 20.18 135.281 23.2695 131.587 29.4485C127.93 35.6275 126.065 44.0259 125.994 54.6438H126.74C128.374 51.4123 130.575 48.6602 133.345 46.3874C136.151 44.0792 139.329 42.3214 142.88 41.114C146.467 39.8711 150.249 39.2496 154.226 39.2496C160.689 39.2496 166.442 40.7766 171.484 43.8306C176.527 46.8491 180.504 51.0039 183.416 56.2951C186.328 61.5863 187.784 67.641 187.784 74.4592C187.784 81.8455 186.062 88.4151 182.617 94.168C179.208 99.9208 174.432 104.431 168.288 107.698C162.18 110.929 155.078 112.527 146.982 112.492ZM146.875 94.381C150.426 94.381 153.604 93.5288 156.41 91.8242C159.215 90.1197 161.417 87.8114 163.015 84.8995C164.613 81.9876 165.412 78.7205 165.412 75.0984C165.412 71.4762 164.613 68.2269 163.015 65.3505C161.452 62.4741 159.286 60.1836 156.516 58.479C153.747 56.7745 150.586 55.9222 147.035 55.9222C144.372 55.9222 141.903 56.4194 139.631 57.4137C137.394 58.408 135.423 59.793 133.718 61.5685C132.049 63.3441 130.735 65.4038 129.776 67.7475C128.818 70.0557 128.338 72.5238 128.338 75.1516C128.338 78.6673 129.137 81.881 130.735 84.793C132.369 87.7049 134.57 90.0309 137.34 91.771C140.146 93.511 143.324 94.381 146.875 94.381Z" fill="url(#paint0_linear_254_1402)"/>
<path d="M44.6159 113.397C35.4539 113.362 27.5704 111.107 20.9653 106.632C14.3957 102.158 9.33532 95.6772 5.78418 87.19C2.26855 78.7028 0.528498 68.4932 0.564009 56.5614C0.564009 44.6651 2.32182 34.5266 5.83745 26.146C9.38858 17.7653 14.449 11.391 21.0186 7.02309C27.6237 2.61967 35.4894 0.417969 44.6159 0.417969C53.7423 0.417969 61.5903 2.61967 68.1599 7.02309C74.765 11.4265 79.8431 17.8185 83.3943 26.1992C86.9454 34.5444 88.7032 44.6651 88.6677 56.5614C88.6677 68.5288 86.8921 78.756 83.341 87.2433C79.8254 95.7305 74.7828 102.211 68.2132 106.686C61.6436 111.16 53.7778 113.397 44.6159 113.397ZM44.6159 94.2745C50.8659 94.2745 55.8552 91.1317 59.5839 84.8462C63.3126 78.5607 65.1592 69.1325 65.1237 56.5614C65.1237 48.2873 64.2714 41.3981 62.5669 35.8938C60.8978 30.3896 58.5186 26.2525 55.4291 23.4826C52.3751 20.7127 48.7707 19.3278 44.6159 19.3278C38.4014 19.3278 33.4298 22.435 29.7011 28.6495C25.9724 34.864 24.0903 44.168 24.0548 56.5614C24.0548 64.9421 24.8893 71.9379 26.5583 77.5487C28.2629 83.1239 30.6599 87.3143 33.7494 90.1197C36.8389 92.8896 40.461 94.2745 44.6159 94.2745Z" fill="url(#paint1_linear_254_1402)"/>
<defs>
<linearGradient id="paint0_linear_254_1402" x1="95.0734" y1="56" x2="94.6375" y2="147.001" gradientUnits="userSpaceOnUse">
<stop stop-color="#373737"/>
<stop offset="1" stop-color="#373737" stop-opacity="0"/>
</linearGradient>
<linearGradient id="paint1_linear_254_1402" x1="95.0734" y1="56" x2="94.6375" y2="147.001" gradientUnits="userSpaceOnUse">
<stop stop-color="#373737"/>
<stop offset="1" stop-color="#373737" stop-opacity="0"/>
</linearGradient>
</defs>
</svg>
