<svg width="176" height="113" viewBox="0 0 176 113" fill="none" xmlns="http://www.w3.org/2000/svg">
<path d="M105.935 110.582L151.159 21.0935V20.3477H98.4778V1.49121H175.023V20.6141L129.746 110.582H105.935Z" fill="url(#paint0_linear_254_1408)"/>
<path d="M44.0524 112.979C34.8904 112.944 27.0069 110.689 20.4018 106.214C13.8322 101.74 8.77184 95.2592 5.2207 86.772C1.70508 78.2848 -0.0349787 68.0753 0.000532669 56.1435C0.000532669 44.2472 1.75835 34.1087 5.27397 25.728C8.82511 17.3473 13.8855 10.973 20.4551 6.60512C27.0602 2.20171 34.926 0 44.0524 0C53.1788 0 61.0268 2.20171 67.5964 6.60512C74.2015 11.0085 79.2797 17.4006 82.8308 25.7812C86.3819 34.1264 88.1397 44.2472 88.1042 56.1435C88.1042 68.1108 86.3287 78.3381 82.7775 86.8253C79.2619 95.3125 74.2193 101.793 67.6497 106.268C61.0801 110.742 53.2143 112.979 44.0524 112.979ZM44.0524 93.8565C50.3024 93.8565 55.2917 90.7138 59.0204 84.4283C62.7491 78.1428 64.5957 68.7145 64.5602 56.1435C64.5602 47.8693 63.7079 40.9801 62.0034 35.4759C60.3343 29.9716 57.9551 25.8345 54.8656 23.0646C51.8116 20.2947 48.2072 18.9098 44.0524 18.9098C37.8379 18.9098 32.8663 22.017 29.1376 28.2315C25.4089 34.446 23.5268 43.75 23.4913 56.1435C23.4913 64.5241 24.3258 71.5199 25.9949 77.1307C27.6994 82.706 30.0964 86.8963 33.1859 89.7017C36.2754 92.4716 39.8975 93.8565 44.0524 93.8565Z" fill="url(#paint1_linear_254_1408)"/>
<defs>
<linearGradient id="paint0_linear_254_1408" x1="87.9732" y1="55.582" x2="87.5074" y2="146.582" gradientUnits="userSpaceOnUse">
<stop stop-color="#373737"/>
<stop offset="1" stop-color="#373737" stop-opacity="0"/>
</linearGradient>
<linearGradient id="paint1_linear_254_1408" x1="87.9732" y1="55.582" x2="87.5074" y2="146.582" gradientUnits="userSpaceOnUse">
<stop stop-color="#373737"/>
<stop offset="1" stop-color="#373737" stop-opacity="0"/>
</linearGradient>
</defs>
</svg>
