<svg width="189" height="114" viewBox="0 0 189 114" fill="none" xmlns="http://www.w3.org/2000/svg">
<path d="M44.6158 113.397C35.4538 113.362 27.5703 111.107 20.9652 106.632C14.3956 102.158 9.33523 95.6768 5.78409 87.1896C2.26847 78.7024 0.528409 68.4929 0.563921 56.5611C0.563921 44.6648 2.32173 34.5263 5.83736 26.1456C9.38849 17.7649 14.4489 11.3906 21.0185 7.02273C27.6236 2.61932 35.4893 0.41761 44.6158 0.41761C53.7422 0.41761 61.5902 2.61932 68.1598 7.02273C74.7649 11.4261 79.843 17.8182 83.3942 26.1989C86.9453 34.544 88.7031 44.6648 88.6676 56.5611C88.6676 68.5284 86.892 78.7557 83.3409 87.2429C79.8253 95.7301 74.7827 102.211 68.2131 106.685C61.6435 111.16 53.7777 113.397 44.6158 113.397ZM44.6158 94.2741C50.8658 94.2741 55.8551 91.1314 59.5838 84.8459C63.3125 78.5604 65.1591 69.1321 65.1236 56.5611C65.1236 48.2869 64.2713 41.3977 62.5668 35.8935C60.8977 30.3892 58.5185 26.2521 55.429 23.4822C52.375 20.7124 48.7706 19.3274 44.6158 19.3274C38.4013 19.3274 33.4297 22.4347 29.701 28.6491C25.9723 34.8636 24.0902 44.1676 24.0547 56.5611C24.0547 64.9418 24.8892 71.9375 26.5582 77.5483C28.2628 83.1236 30.6598 87.3139 33.7493 90.1193C36.8388 92.8892 40.4609 94.2741 44.6158 94.2741ZM145.81 112.491C137.607 112.491 130.309 111.16 123.917 108.496C117.561 105.798 112.571 102.122 108.949 97.4702C105.327 92.8182 103.516 87.5447 103.516 81.6499C103.516 77.1044 104.546 72.9318 106.605 69.1321C108.7 65.2969 111.541 62.1186 115.128 59.5973C118.715 57.0405 122.727 55.407 127.166 54.6967V53.951C121.343 52.7791 116.619 49.956 112.997 45.4815C109.375 40.9716 107.564 35.7337 107.564 29.7678C107.564 24.1214 109.215 19.0966 112.518 14.6932C115.82 10.2543 120.348 6.77414 126.101 4.25284C131.889 1.69602 138.459 0.41761 145.81 0.41761C153.161 0.41761 159.713 1.69602 165.465 4.25284C171.254 6.80966 175.799 10.3075 179.102 14.7464C182.404 19.1499 184.073 24.157 184.109 29.7678C184.073 35.7692 182.227 41.0071 178.569 45.4815C174.911 49.956 170.224 52.7791 164.507 53.951V54.6967C168.874 55.407 172.834 57.0405 176.385 59.5973C179.972 62.1186 182.813 65.2969 184.908 69.1321C187.039 72.9318 188.122 77.1044 188.157 81.6499C188.122 87.5447 186.293 92.8182 182.671 97.4702C179.048 102.122 174.041 105.798 167.649 108.496C161.293 111.16 154.013 112.491 145.81 112.491ZM145.81 95.5526C149.468 95.5526 152.664 94.8956 155.398 93.5817C158.132 92.2322 160.263 90.3857 161.79 88.0419C163.352 85.6626 164.134 82.9283 164.134 79.8388C164.134 76.6783 163.335 73.8906 161.737 71.4759C160.139 69.0256 157.972 67.108 155.238 65.723C152.504 64.3026 149.361 63.5923 145.81 63.5923C142.294 63.5923 139.151 64.3026 136.382 65.723C133.612 67.108 131.428 69.0256 129.83 71.4759C128.267 73.8906 127.486 76.6783 127.486 79.8388C127.486 82.9283 128.249 85.6626 129.776 88.0419C131.303 90.3857 133.452 92.2322 136.222 93.5817C138.992 94.8956 142.188 95.5526 145.81 95.5526ZM145.81 46.8132C148.864 46.8132 151.58 46.1918 153.96 44.9489C156.339 43.706 158.203 41.9837 159.553 39.782C160.902 37.5803 161.577 35.0412 161.577 32.1648C161.577 29.3239 160.902 26.8381 159.553 24.7074C158.203 22.5412 156.357 20.8544 154.013 19.647C151.669 18.4041 148.935 17.7827 145.81 17.7827C142.72 17.7827 139.986 18.4041 137.607 19.647C135.227 20.8544 133.363 22.5412 132.014 24.7074C130.7 26.8381 130.043 29.3239 130.043 32.1648C130.043 35.0412 130.718 37.5803 132.067 39.782C133.416 41.9837 135.281 43.706 137.66 44.9489C140.039 46.1918 142.756 46.8132 145.81 46.8132Z" fill="url(#paint0_linear_477_23)"/>
<defs>
<linearGradient id="paint0_linear_477_23" x1="95.0734" y1="56" x2="94.6375" y2="147.001" gradientUnits="userSpaceOnUse">
<stop stop-color="#373737"/>
<stop offset="1" stop-color="#373737" stop-opacity="0"/>
</linearGradient>
</defs>
</svg>
