<svg width="75" height="58" viewBox="0 0 75 58" fill="none" xmlns="http://www.w3.org/2000/svg">
<g filter="url(#filter0_d_350_26)">
<path d="M14.4958 6.3125C15.2996 4.4375 16.6362 2.83978 18.3399 1.71761C20.0435 0.595427 22.0392 -0.00181025 24.0792 4.1217e-06H50.5875C54.7542 4.1217e-06 58.5208 2.48334 60.1625 6.3125L63.4625 14.0125C63.775 14.7417 64.3375 15.3417 65.0458 15.6958C67.1292 16.7375 68.6083 18.675 69.0667 20.9542L70.4625 27.95C70.6 28.6208 70.6667 29.3042 70.6667 29.9917V31.7125C70.6667 35.1042 69.0417 38.1417 66.5 40.0333V47.9167C66.5 48.4692 66.2805 48.9991 65.8898 49.3898C65.4991 49.7805 64.9692 50 64.4167 50H56.0833C55.5308 50 55.0009 49.7805 54.6102 49.3898C54.2195 48.9991 54 48.4692 54 47.9167V42.3417C48.6167 42.5417 42.5625 42.7083 37.3333 42.7083C32.1042 42.7083 26.05 42.5417 20.6667 42.3417V47.9167C20.6667 48.4692 20.4472 48.9991 20.0565 49.3898C19.6658 49.7805 19.1359 50 18.5833 50H10.25C9.69747 50 9.16756 49.7805 8.77686 49.3898C8.38616 48.9991 8.16667 48.4692 8.16667 47.9167V40.0333C5.625 38.1417 4 35.1042 4 31.7125V29.9917C4.0007 29.3061 4.06909 28.6222 4.20417 27.95L5.6 20.95C6.05833 18.675 7.5375 16.7333 9.61667 15.6958C10.3283 15.3402 10.8908 14.7437 11.2042 14.0125L14.5042 6.3125H14.4958ZM16.4958 33.3333C17.6009 33.3333 18.6607 32.8943 19.4421 32.1129C20.2235 31.3315 20.6625 30.2717 20.6625 29.1667C20.6625 28.0616 20.2235 27.0018 19.4421 26.2204C18.6607 25.439 17.6009 25 16.4958 25C15.3908 25 14.331 25.439 13.5496 26.2204C12.7682 27.0018 12.3292 28.0616 12.3292 29.1667C12.3292 30.2717 12.7682 31.3315 13.5496 32.1129C14.331 32.8943 15.3908 33.3333 16.4958 33.3333ZM58.1625 33.3333C59.2676 33.3333 60.3274 32.8943 61.1088 32.1129C61.8902 31.3315 62.3292 30.2717 62.3292 29.1667C62.3292 28.0616 61.8902 27.0018 61.1088 26.2204C60.3274 25.439 59.2676 25 58.1625 25C57.0574 25 55.9976 25.439 55.2162 26.2204C54.4348 27.0018 53.9958 28.0616 53.9958 29.1667C53.9958 30.2717 54.4348 31.3315 55.2162 32.1129C55.9976 32.8943 57.0574 33.3333 58.1625 33.3333ZM28.9958 25C27.8908 25 26.831 25.439 26.0496 26.2204C25.2682 27.0018 24.8292 28.0616 24.8292 29.1667C24.8292 30.2717 25.2682 31.3315 26.0496 32.1129C26.831 32.8943 27.8908 33.3333 28.9958 33.3333H45.6625C46.7676 33.3333 47.8274 32.8943 48.6088 32.1129C49.3902 31.3315 49.8292 30.2717 49.8292 29.1667C49.8292 28.0616 49.3902 27.0018 48.6088 26.2204C47.8274 25.439 46.7676 25 45.6625 25H28.9958ZM16.1042 13.2875C15.9413 13.6236 15.8699 13.9966 15.8971 14.3691C15.9243 14.7415 16.0492 15.1002 16.2591 15.409C16.4691 15.7179 16.7567 15.9659 17.0931 16.1282C17.4294 16.2904 17.8026 16.3612 18.175 16.3333C21.9667 16.0292 32.1333 15.625 37.3292 15.625C42.525 15.625 52.6958 16.0292 56.4833 16.3333C56.8557 16.3612 57.2289 16.2904 57.5653 16.1282C57.9016 15.9659 58.1892 15.7179 58.3992 15.409C58.6092 15.1002 58.7341 14.7415 58.7613 14.3691C58.7885 13.9966 58.717 13.6236 58.5542 13.2875L54.5708 5.31667C54.3976 4.97106 54.1317 4.68045 53.8028 4.47735C53.4739 4.27426 53.0949 4.16668 52.7083 4.16667H21.95C21.5634 4.16668 21.1845 4.27426 20.8555 4.47735C20.5266 4.68045 20.2607 4.97106 20.0875 5.31667L16.1042 13.2875Z" fill="white"/>
</g>
<defs>
<filter id="filter0_d_350_26" x="0" y="0" width="74.666" height="58" filterUnits="userSpaceOnUse" color-interpolation-filters="sRGB">
<feFlood flood-opacity="0" result="BackgroundImageFix"/>
<feColorMatrix in="SourceAlpha" type="matrix" values="0 0 0 0 0 0 0 0 0 0 0 0 0 0 0 0 0 0 127 0" result="hardAlpha"/>
<feOffset dy="4"/>
<feGaussianBlur stdDeviation="2"/>
<feComposite in2="hardAlpha" operator="out"/>
<feColorMatrix type="matrix" values="0 0 0 0 0 0 0 0 0 0 0 0 0 0 0 0 0 0 0.25 0"/>
<feBlend mode="normal" in2="BackgroundImageFix" result="effect1_dropShadow_350_26"/>
<feBlend mode="normal" in="SourceGraphic" in2="effect1_dropShadow_350_26" result="shape"/>
</filter>
</defs>
</svg>
