<svg width="48" height="50" viewBox="0 0 48 50" fill="none" xmlns="http://www.w3.org/2000/svg">
<path d="M26.4385 20.4854C26.5022 20.4396 26.5678 20.3966 26.6351 20.3552C26.7463 20.2862 26.8609 20.2241 26.9799 20.1673C27.0515 20.1337 27.1213 20.1 27.1945 20.0716C27.3265 20.0198 27.4626 19.9802 27.6022 19.9448C27.6695 19.9275 27.7333 19.9052 27.8014 19.8922C28.0117 19.8525 28.2264 19.8275 28.448 19.8275C28.6695 19.8275 28.8842 19.8525 29.0945 19.8922C29.1626 19.9051 29.2265 19.9275 29.2937 19.9448C29.4333 19.9802 29.5695 20.0198 29.7014 20.0716C29.7746 20.1 29.8444 20.1337 29.916 20.1673C30.035 20.2242 30.1496 20.2862 30.2608 20.3552C30.3281 20.3966 30.3936 20.4396 30.4574 20.4854C30.5669 20.5638 30.6678 20.65 30.7669 20.7405C30.8203 20.7896 30.8755 20.8354 30.9264 20.888C31.0376 21.0035 31.1376 21.1276 31.2315 21.2578C31.2583 21.2949 31.2901 21.3276 31.316 21.3655C31.4298 21.5362 31.5272 21.7173 31.61 21.9069C31.6332 21.9604 31.6471 22.0182 31.6677 22.0733C31.71 22.1854 31.7564 22.2958 31.7866 22.4139H33.1357C33.403 22.4139 33.6202 22.1966 33.6202 21.9294V18.5871C33.6202 18.3207 33.403 18.1035 33.1357 18.1035H31.034H12.0687H9.96689C9.69961 18.1035 9.48242 18.3207 9.48242 18.5871V21.9294C9.48242 22.1967 9.69971 22.4139 9.96689 22.4139H11.316C11.3462 22.2958 11.3928 22.1854 11.435 22.0733C11.4557 22.0182 11.4694 21.9604 11.4927 21.9069C11.5754 21.7173 11.6729 21.5362 11.7866 21.3655C11.8125 21.3276 11.8443 21.2948 11.8711 21.2578C11.965 21.1276 12.065 21.0035 12.1763 20.888C12.2271 20.8354 12.2823 20.7897 12.3357 20.7405C12.4349 20.65 12.5357 20.5638 12.6452 20.4854C12.709 20.4396 12.7745 20.3966 12.8418 20.3552C12.953 20.2862 13.0677 20.2241 13.1866 20.1673C13.2582 20.1337 13.328 20.1 13.4013 20.0716C13.5332 20.0198 13.6693 19.9802 13.809 19.9448C13.8763 19.9275 13.94 19.9052 14.0081 19.8922C14.2185 19.8525 14.4331 19.8275 14.6547 19.8275C14.8763 19.8275 15.0909 19.8525 15.3013 19.8922C15.3693 19.9051 15.4332 19.9275 15.5004 19.9448C15.64 19.9802 15.7763 20.0198 15.9081 20.0716C15.9813 20.1 16.0512 20.1337 16.1228 20.1673C16.2417 20.2242 16.3563 20.2862 16.4676 20.3552C16.5349 20.3966 16.6003 20.4396 16.6642 20.4854C16.7736 20.5638 16.8745 20.65 16.9736 20.7405C17.0271 20.7896 17.0822 20.8354 17.1331 20.888C17.2443 21.0035 17.3443 21.1276 17.4383 21.2578C17.465 21.2949 17.4969 21.3276 17.5228 21.3655C17.6365 21.5362 17.734 21.7173 17.8167 21.9069C17.8399 21.9604 17.8538 22.0182 17.8744 22.0733C17.9167 22.1854 17.9632 22.2958 17.9934 22.4139H25.1089C25.1391 22.2958 25.1856 22.1854 25.2278 22.0733C25.2485 22.0182 25.2623 21.9604 25.2855 21.9069C25.3683 21.7173 25.4657 21.5362 25.5795 21.3655C25.6054 21.3276 25.6372 21.2948 25.664 21.2578C25.7579 21.1276 25.8579 21.0035 25.9691 20.888C26.02 20.8354 26.0752 20.7897 26.1286 20.7405C26.2281 20.6501 26.329 20.5639 26.4385 20.4854Z" fill="white"/>
<path d="M26.6175 12.5391C26.4071 12.2442 26.0641 12.0684 25.702 12.0684H22.4141V16.3787H29.3598L26.6175 12.5391Z" fill="white"/>
<path d="M20.6899 12.0684H17.4028C17.0399 12.0684 16.6968 12.2442 16.4864 12.5391L13.7441 16.3787H20.6898V12.0684H20.6899Z" fill="white"/>
<path d="M14.6558 21.5518C13.7049 21.5518 12.9316 22.325 12.9316 23.2759C12.9316 24.2268 13.7049 25 14.6558 25C15.6066 25 16.3799 24.2268 16.3799 23.2759C16.3799 22.325 15.6066 21.5518 14.6558 21.5518Z" fill="white"/>
<path d="M28.4487 21.5518C27.4979 21.5518 26.7246 22.325 26.7246 23.2759C26.7246 24.2268 27.4979 25 28.4487 25C29.3996 25 30.1729 24.2268 30.1729 23.2759C30.1729 22.325 29.3996 21.5518 28.4487 21.5518Z" fill="white"/>
<path d="M27.5865 0H15.5176V4.31035V5.17246H27.5856L27.5865 0Z" fill="white"/>
<path d="M39.6554 5.17246V26.6362C40.4105 26.0182 41.3752 25.6543 42.3847 25.6543C42.6277 25.6543 42.8666 25.6845 43.1036 25.7241V2.58623C43.1036 1.16035 41.9433 0 40.5175 0H29.3105V3.44824H37.9313C38.8821 3.44824 39.6554 4.22158 39.6554 5.17246Z" fill="white"/>
<path d="M3.44824 44.8275V5.17246C3.44824 4.22158 4.22148 3.44834 5.17236 3.44834H13.7931V0H2.58623C1.16035 0 0 1.16035 0 2.58623V47.4138C0 48.8396 1.16035 50 2.58623 50H23.1569L24.0975 46.5518H5.17246C4.22158 46.5518 3.44824 45.7784 3.44824 44.8275Z" fill="white"/>
<path d="M37.9305 28.302V5.17188H29.3098C29.3098 6.12275 28.5365 6.896 27.5856 6.896H15.5167C14.5658 6.896 13.7926 6.12275 13.7926 5.17188H5.17188V44.827H24.5676L25.7529 40.4788L37.9305 28.302ZM21.5512 41.3787H8.62012C8.14336 41.3787 7.75801 40.9934 7.75801 40.5166C7.75801 40.0398 8.14336 39.6545 8.62012 39.6545H21.5512C22.0279 39.6545 22.4133 40.0398 22.4133 40.5166C22.4133 40.9934 22.0278 41.3787 21.5512 41.3787ZM21.5512 37.0684H8.62012C8.14336 37.0684 7.75801 36.683 7.75801 36.2062C7.75801 35.7295 8.14336 35.3441 8.62012 35.3441H21.5512C22.0279 35.3441 22.4133 35.7295 22.4133 36.2062C22.4133 36.683 22.0278 37.0684 21.5512 37.0684ZM21.5512 32.758H8.62012C8.14336 32.758 7.75801 32.3727 7.75801 31.8959C7.75801 31.4191 8.14336 31.0338 8.62012 31.0338H21.5512C22.0279 31.0338 22.4133 31.4191 22.4133 31.8959C22.4132 32.3727 22.0278 32.758 21.5512 32.758ZM17.9805 24.1373C17.5951 25.62 16.2572 26.7235 14.6546 26.7235C13.052 26.7235 11.7141 25.6201 11.3287 24.1373H9.96582C8.74854 24.1373 7.75811 23.1468 7.75811 21.9287V18.5873C7.75811 17.3692 8.74863 16.3787 9.96582 16.3787H11.6253L15.083 11.5373C15.6166 10.7907 16.483 10.3442 17.4011 10.3442H25.7002C26.6191 10.3442 27.4855 10.7908 28.0191 11.5373L31.4769 16.3787H33.1355C34.3535 16.3787 35.344 17.3692 35.344 18.5873V21.9287C35.344 23.1468 34.3535 24.1373 33.1355 24.1373H31.7733C31.388 25.62 30.0501 26.7235 28.4475 26.7235C26.8449 26.7235 25.5069 25.6201 25.1216 24.1373H17.9805Z" fill="white"/>
<path d="M46.6604 30.5635L44.2043 28.1066C43.2318 27.135 41.537 27.135 40.5646 28.1066L38.1172 30.5541L44.2129 36.6507L46.6604 34.2032C47.6638 33.1998 47.6638 31.567 46.6604 30.5635Z" fill="white"/>
<path d="M27.296 41.3752L25.0098 49.7571L33.3925 47.4709L42.9934 37.87L36.8977 31.7734L27.296 41.3752ZM27.4676 47.3002L28.5081 43.4829L31.2849 46.2588L27.4676 47.3002Z" fill="white"/>
</svg>
