<svg width="62" height="50" viewBox="0 0 62 50" fill="none" xmlns="http://www.w3.org/2000/svg">
<path d="M25.0007 0C23.4706 0 22.0031 0.607845 20.9211 1.68982C19.8392 2.77179 19.2313 4.23926 19.2313 5.76939V7.69252H5.76939C4.23925 7.69252 2.77179 8.30037 1.68982 9.38234C0.607845 10.4643 0 11.9318 0 13.4619L0 18.7851L29.2854 26.5931C30.2583 26.8521 31.2819 26.8521 32.2548 26.5931L61.5402 18.7851V13.4619C61.5402 11.9318 60.9323 10.4643 59.8504 9.38234C58.7684 8.30037 57.3009 7.69252 55.7708 7.69252H42.3089V5.76939C42.3089 4.23926 41.701 2.77179 40.6191 1.68982C39.5371 0.607845 38.0696 0 36.5395 0H25.0007ZM25.0007 3.84626H36.5395C37.0495 3.84626 37.5387 4.04888 37.8993 4.40953C38.26 4.77019 38.4626 5.25935 38.4626 5.76939V7.69252H23.0776V5.76939C23.0776 5.25935 23.2802 4.77019 23.6408 4.40953C24.0015 4.04888 24.4907 3.84626 25.0007 3.84626Z" fill="white"/>
<path d="M0 44.2314C0 45.7615 0.607845 47.229 1.68982 48.311C2.77179 49.3929 4.23925 50.0008 5.76939 50.0008H55.7708C57.3009 50.0008 58.7684 49.3929 59.8504 48.311C60.9323 47.229 61.5402 45.7615 61.5402 44.2314V22.5L31.2663 30.5656C30.9412 30.6524 30.599 30.6524 30.2739 30.5656L0 22.5V44.2314Z" fill="white"/>
</svg>
