<svg width="38" height="50" viewBox="0 0 38 50" fill="none" xmlns="http://www.w3.org/2000/svg">
<path d="M22.6243 0H6.20438C4.55888 0 2.98077 0.65848 1.81722 1.83058C0.653674 3.00269 0 4.5924 0 6.25V43.75C0 45.4076 0.653674 46.9973 1.81722 48.1694C2.98077 49.3415 4.55888 50 6.20438 50H31.0219C32.6674 50 34.2455 49.3415 35.4091 48.1694C36.5726 46.9973 37.2263 45.4076 37.2263 43.75V14.7094C37.2261 13.8806 36.8991 13.0859 36.3173 12.5L24.8175 0.915625C24.2359 0.329533 23.447 0.000176992 22.6243 0ZM23.2664 10.9375V4.6875L32.573 14.0625H26.3686C25.5459 14.0625 24.7568 13.7333 24.175 13.1472C23.5933 12.5612 23.2664 11.7663 23.2664 10.9375ZM13.9599 17.1875V19.1687L15.663 18.1781C15.8394 18.0739 16.0346 18.0059 16.2373 17.978C16.44 17.9501 16.6461 17.9628 16.8439 18.0155C17.0416 18.0681 17.2271 18.1597 17.3896 18.2849C17.5521 18.41 17.6884 18.5663 17.7907 18.7448C17.893 18.9233 17.9592 19.1203 17.9856 19.3247C18.0119 19.529 17.9979 19.7366 17.9443 19.9355C17.8907 20.1343 17.7986 20.3205 17.6733 20.4834C17.5479 20.6463 17.3919 20.7825 17.2141 20.8844L15.5109 21.875L17.2141 22.8656C17.3919 22.9675 17.5479 23.1037 17.6733 23.2666C17.7986 23.4295 17.8907 23.6157 17.9443 23.8145C17.9979 24.0134 18.0119 24.221 17.9856 24.4253C17.9592 24.6297 17.893 24.8267 17.7907 25.0052C17.6884 25.1837 17.5521 25.34 17.3896 25.4651C17.2271 25.5903 17.0416 25.6819 16.8439 25.7345C16.6461 25.7872 16.44 25.7999 16.2373 25.772C16.0346 25.7441 15.8394 25.6761 15.663 25.5719L13.9599 24.5813V26.5625C13.9599 26.9769 13.7964 27.3743 13.5055 27.6674C13.2147 27.9604 12.8201 28.125 12.4088 28.125C11.9974 28.125 11.6029 27.9604 11.312 27.6674C11.0211 27.3743 10.8577 26.9769 10.8577 26.5625V24.5813L9.15456 25.5719C8.97809 25.6761 8.7829 25.7441 8.58023 25.772C8.37756 25.7999 8.17141 25.7872 7.97364 25.7345C7.77588 25.6819 7.59041 25.5903 7.42791 25.4651C7.26542 25.34 7.12911 25.1837 7.02683 25.0052C6.92454 24.8267 6.85831 24.6297 6.83195 24.4253C6.80558 24.221 6.8196 24.0134 6.8732 23.8145C6.92679 23.6157 7.01891 23.4295 7.14424 23.2666C7.26957 23.1037 7.42564 22.9675 7.60347 22.8656L9.30657 21.875L7.60347 20.8844C7.25012 20.6757 6.99305 20.3347 6.88835 19.9358C6.78366 19.5369 6.83985 19.1125 7.04465 18.7552C7.24945 18.3978 7.58624 18.1366 7.98152 18.0285C8.37681 17.9204 8.7985 17.9742 9.15456 18.1781L10.8577 19.1687V17.1875C10.8577 16.7731 11.0211 16.3757 11.312 16.0826C11.6029 15.7896 11.9974 15.625 12.4088 15.625C12.8201 15.625 13.2147 15.7896 13.5055 16.0826C13.7964 16.3757 13.9599 16.7731 13.9599 17.1875ZM7.75547 31.25H23.2664C23.6778 31.25 24.0723 31.4146 24.3632 31.7076C24.6541 32.0007 24.8175 32.3981 24.8175 32.8125C24.8175 33.2269 24.6541 33.6243 24.3632 33.9174C24.0723 34.2104 23.6778 34.375 23.2664 34.375H7.75547C7.3441 34.375 6.94957 34.2104 6.65869 33.9174C6.3678 33.6243 6.20438 33.2269 6.20438 32.8125C6.20438 32.3981 6.3678 32.0007 6.65869 31.7076C6.94957 31.4146 7.3441 31.25 7.75547 31.25ZM7.75547 37.5H23.2664C23.6778 37.5 24.0723 37.6646 24.3632 37.9576C24.6541 38.2507 24.8175 38.6481 24.8175 39.0625C24.8175 39.4769 24.6541 39.8743 24.3632 40.1674C24.0723 40.4604 23.6778 40.625 23.2664 40.625H7.75547C7.3441 40.625 6.94957 40.4604 6.65869 40.1674C6.3678 39.8743 6.20438 39.4769 6.20438 39.0625C6.20438 38.6481 6.3678 38.2507 6.65869 37.9576C6.94957 37.6646 7.3441 37.5 7.75547 37.5Z" fill="white"/>
</svg>
