<svg width="50" height="50" viewBox="0 0 50 50" fill="none" xmlns="http://www.w3.org/2000/svg">
<path fill-rule="evenodd" clip-rule="evenodd" d="M32.9616 0.515529C33.1246 0.352114 33.3182 0.222461 33.5314 0.133998C33.7446 0.0455355 33.9731 0 34.2039 0C34.4348 0 34.6633 0.0455355 34.8765 0.133998C35.0897 0.222461 35.2833 0.352114 35.4463 0.515529L49.4845 14.5537C49.6479 14.7167 49.7775 14.9103 49.866 15.1235C49.9545 15.3367 50 15.5652 50 15.7961C50 16.0269 49.9545 16.2554 49.866 16.4686C49.7775 16.6818 49.6479 16.8754 49.4845 17.0384L42.8093 23.7136L39.8999 35.3407C39.6787 36.226 39.2311 37.0386 38.6011 37.6988C37.971 38.359 37.1802 38.844 36.3062 39.1064L0 50L10.8936 13.6903C11.1562 12.8174 11.6409 12.0276 12.3004 11.3982C12.9599 10.7689 13.7715 10.3215 14.6558 10.1001L26.2829 7.19418L32.9616 0.515529ZM26.6444 10.7213L15.5086 13.5043C15.213 13.5781 14.9417 13.7276 14.7214 13.938C14.5011 14.1485 14.3394 14.4127 14.2522 14.7046L5.23272 44.7638L35.2989 35.7443C35.5891 35.6563 35.8516 35.4947 36.0607 35.2751C36.2698 35.0555 36.4185 34.7855 36.4922 34.4914L39.2787 23.3521L26.6444 10.7213Z" fill="white"/>
</svg>
