<?xml version="1.0" encoding="utf-8"?>
<!-- Generator: Adobe Illustrator 27.0.0, SVG Export Plug-In . SVG Version: 6.00 Build 0)  -->
<svg version="1.1" id="Layer_1" xmlns="http://www.w3.org/2000/svg" xmlns:xlink="http://www.w3.org/1999/xlink" x="0px" y="0px"
	 viewBox="0 0 780 680" style="enable-background:new 0 0 780 680;" xml:space="preserve">
<style type="text/css">
	.st0{fill-rule:evenodd;clip-rule:evenodd;fill:#FFFFFF;}
	.st1{fill:#FFFFFF;}
</style>
<path class="st0" d="M591.9,209c97-41.4,69.1-185.9-36.4-188.1L-0.1,9L0,5l555.6,11.9c109.8,2.3,138.9,152.7,37.9,195.8L158.4,398.4
	c-90.9,38.8-73.8,172.5,24,187.1l598.2,89.3l-0.6,4l-598.2-89.3C80,574.2,62.2,435,156.8,394.7L591.9,209z"/>
<circle class="st1" cx="415.6" cy="16.3" r="10"/>
<circle class="st1" cx="341.6" cy="320.7" r="10"/>
<circle class="st1" cx="143.6" cy="403.7" r="10"/>
<circle class="st1" cx="179.6" cy="11.3" r="10"/>
<circle class="st1" cx="399.6" cy="620.7" r="10"/>
<path class="st1" d="M643.6,655.7c0,5.5-4.5,10-10,10c-5.5,0-10-4.5-10-10s4.5-10,10-10C639.1,645.7,643.6,650.2,643.6,655.7z"/>
<circle class="st1" cx="538.6" cy="234.3" r="10"/>
<circle class="st1" cx="212.6" cy="591.3" r="10"/>
</svg>
