<svg width="1920" height="460" viewBox="0 0 1920 460" fill="none" xmlns="http://www.w3.org/2000/svg">
<path fill-rule="evenodd" clip-rule="evenodd" d="M494.507 12.5H0V8.5H494.507C523.226 8.5 546.507 31.7812 546.507 60.5V180.5C546.507 207.01 567.998 228.5 594.507 228.5H1087.93C1116.64 228.5 1139.93 251.781 1139.93 280.5V400.5C1139.93 427.01 1161.42 448.5 1187.93 448.5H1920V452.5H1187.93C1159.21 452.5 1135.93 429.219 1135.93 400.5V280.5C1135.93 253.99 1114.44 232.5 1087.93 232.5H594.507C565.789 232.5 542.507 209.219 542.507 180.5V60.5C542.507 33.9903 521.017 12.5 494.507 12.5Z" fill="white"/>
<circle cx="223" cy="10.0381" r="10" fill="#EBEBEB"/>
<circle cx="418" cy="11" r="10" fill="#EBEBEB"/>
<circle cx="648" cy="231" r="10" fill="#EBEBEB"/>
<circle cx="843" cy="231" r="10" fill="#EBEBEB"/>
<circle cx="1038" cy="231" r="10" fill="#EBEBEB"/>
<circle cx="1250.5" cy="450" r="10" fill="#EBEBEB"/>
<circle cx="1445.5" cy="450" r="10" fill="#EBEBEB"/>
<circle cx="1640.5" cy="450" r="10" fill="#EBEBEB"/>
</svg>
