<svg width="72" height="50" viewBox="0 0 72 50" fill="none" xmlns="http://www.w3.org/2000/svg">
<path d="M54.2913 0L47.2825 7.0407L47.9341 7.72047C47.4699 8.09707 47.0001 8.46449 46.5442 8.79067C45.8081 9.31879 45.1017 9.74241 44.6228 9.94109C44.5918 9.95492 44.4617 9.99164 44.2033 9.99051C43.7906 9.99503 43.1003 9.8894 42.2545 9.75978C41.4052 9.63114 40.3892 9.4912 39.244 9.48993C38.2449 9.48654 37.1431 9.60826 35.983 9.92852C34.8253 9.60939 33.7257 9.48993 32.7291 9.4912C31.5826 9.4912 30.5666 9.63128 29.7173 9.76105C28.8715 9.89068 28.1823 9.99644 27.7698 9.99178C27.5103 9.99404 27.3811 9.95507 27.3548 9.94236C26.8439 9.73224 26.0734 9.26372 25.2803 8.68392C24.87 8.38428 24.4517 8.05584 24.0368 7.71835L24.6872 7.04084L17.6784 0.000141129L0 18.3939L7.00875 25.4346L9.06031 23.3001L13.5888 27.2704C13.7156 28.0316 13.9545 28.7504 14.23 29.4325C14.4094 29.8666 14.6061 30.2844 14.8073 30.6771C14.3695 31.4052 14.1307 32.2365 14.1329 33.0792C14.1318 33.9151 14.3603 34.7693 14.8301 35.5283C15.5445 36.6822 16.6887 37.4079 17.9241 37.6375C17.9311 38.4585 18.1574 39.2955 18.6179 40.0396C19.4924 41.4519 21.0057 42.2349 22.5487 42.2325C22.6082 42.2325 22.6688 42.2233 22.7281 42.2211C22.8058 42.8778 23.0207 43.5323 23.3887 44.1271C24.2632 45.5393 25.7775 46.3224 27.3183 46.32C27.4715 46.32 27.6236 46.3039 27.7778 46.2889C27.8509 46.8803 28.0464 47.4704 28.3767 48.0032C29.1735 49.2893 30.5518 50.0034 31.9541 50C32.7108 50.0011 33.4857 49.7944 34.1738 49.365L36.2747 48.0516C36.6885 48.3202 37.1227 48.5567 37.5787 48.7496C38.428 49.109 39.3458 49.3294 40.3002 49.3305C41.3472 49.3352 42.4524 49.047 43.4033 48.3753C44.0228 47.9413 44.5474 47.3464 44.9771 46.6451C45.0435 46.6473 45.0972 46.6589 45.1658 46.66C45.6012 46.66 46.079 46.5945 46.5523 46.4464C47.0288 46.3007 47.5021 46.0824 48.0073 45.792C49.2119 45.11 49.9343 44.1064 50.2853 43.2465C50.363 43.0583 50.419 42.8813 50.4693 42.7103C50.7608 42.6174 51.0397 42.5036 51.2922 42.3568C52.2237 41.8182 52.8307 40.9996 53.2044 40.1775C53.5793 39.3472 53.7439 38.485 53.7462 37.6561C53.7462 37.5745 53.7359 37.4953 53.7324 37.415C54.3416 37.1647 54.889 36.8168 55.3554 36.4069C55.8332 35.9865 56.2343 35.4975 56.5326 34.9395C56.8299 34.3838 57.0288 33.7477 57.0299 33.0508C57.0311 32.5973 56.9384 32.1196 56.7362 31.6718C56.6709 31.5295 56.5784 31.3986 56.4938 31.2665C56.8495 30.6269 57.2115 29.906 57.5087 29.1275C57.7316 28.5384 57.9192 27.9208 58.0266 27.2719L62.7482 23.1327L64.9609 25.4348L71.9697 18.3939L54.2913 0ZM19.5027 34.0977L19.4214 34.1494C19.21 34.2804 18.9882 34.3389 18.7596 34.34C18.3355 34.3378 17.9286 34.1299 17.6898 33.743C17.5595 33.5306 17.5 33.3067 17.5 33.0793C17.5023 32.6511 17.7081 32.2445 18.0921 32.0046L20.8684 30.272C21.0798 30.14 21.3016 30.0827 21.5278 30.0803C21.9541 30.0848 22.3588 30.2892 22.5989 30.6784L24.0287 29.7863L22.5989 30.6795C22.7292 30.8908 22.7874 31.1135 22.7887 31.3409C22.7863 31.6395 22.68 31.9243 22.4881 32.1539L20.1037 33.6419C19.8867 33.7773 19.6889 33.9346 19.5027 34.0977ZM23.2092 38.6594C22.9978 38.7903 22.776 38.85 22.5486 38.85C22.1234 38.8478 21.7166 38.641 21.4776 38.2541C21.3472 38.0418 21.289 37.8167 21.2878 37.5893C21.2888 37.2932 21.3952 37.0084 21.5861 36.7811L23.9715 35.2896C24.1876 35.1552 24.3831 34.9992 24.5694 34.8361L24.6562 34.7833C24.8676 34.6513 25.0906 34.5927 25.3158 34.5927C25.7432 34.5949 26.1466 34.8016 26.3866 35.1897C26.5169 35.402 26.5752 35.6236 26.5764 35.8522C26.5741 36.2781 26.3696 36.6869 25.9809 36.9292L23.2092 38.6594ZM30.7517 41.0156L27.9789 42.7471C27.7686 42.8781 27.5468 42.9377 27.3183 42.9377C26.8942 42.9354 26.4872 42.7287 26.2484 42.3418C26.1181 42.1283 26.0599 41.9055 26.0587 41.677C26.0622 41.2487 26.2667 40.8434 26.6507 40.6023L29.427 38.8697C29.6384 38.7376 29.8603 38.6803 30.0864 38.6803C30.5128 38.6813 30.9175 38.888 31.1575 39.2762C31.2877 39.4887 31.346 39.7114 31.3473 39.9399C31.3449 40.3656 31.1404 40.772 30.7517 41.0156ZM35.0505 43.84C35.1384 43.9812 35.1762 44.1282 35.1773 44.282C35.175 44.5679 35.039 44.84 34.7772 45.0042L32.3963 46.4899C32.2547 46.5794 32.1083 46.6172 31.954 46.6172C31.6684 46.6161 31.3975 46.4772 31.2363 46.2178C31.1483 46.0742 31.1104 45.9272 31.1093 45.7735C31.1127 45.4852 31.2488 45.2153 31.5059 45.0547H31.507L33.8901 43.5666C34.0353 43.476 34.1805 43.438 34.3325 43.438C34.6194 43.4402 34.888 43.5769 35.0491 43.8376L36.4801 42.9466L35.0505 43.84ZM53.5656 33.3399C53.4433 33.5775 53.1644 33.8875 52.8113 34.1045C52.458 34.3239 52.0477 34.4524 51.6546 34.4513C51.515 34.4513 51.3802 34.4753 51.2487 34.5098C51.0087 34.457 50.7686 34.3835 50.5321 34.2893C49.7995 34.0023 49.115 33.5373 48.6314 33.1446C48.3891 32.9483 48.1971 32.7715 48.069 32.6487L47.9273 32.5075L47.8964 32.4753L47.8918 32.4707H47.8908C47.4197 31.9563 46.622 31.9219 46.1088 32.3949C45.5956 32.8681 45.5602 33.6694 46.0324 34.1884C46.0745 34.232 46.709 34.9277 47.748 35.6444C48.2692 36.0026 48.892 36.3678 49.6086 36.6502C49.7744 36.7157 49.947 36.7764 50.1242 36.8316C50.1734 36.9429 50.2363 37.0487 50.3105 37.1485L50.3071 37.1509C50.3162 37.1577 50.3848 37.376 50.3791 37.6561C50.3872 38.1234 50.218 38.7354 49.9745 39.0729C49.8557 39.2451 49.7346 39.3541 49.6169 39.4219C49.4969 39.4886 49.3757 39.5322 49.1483 39.5356L49.067 39.5345C49.019 39.5322 48.9734 39.5402 48.9265 39.5425C48.9242 39.5425 48.9231 39.5425 48.9231 39.5425C47.8281 39.5472 46.8087 39.0753 46.0565 38.5586C45.6816 38.3037 45.381 38.0442 45.1787 37.8537C45.0792 37.7595 45.0027 37.6814 44.9558 37.6333L44.9067 37.5804L44.8987 37.5701H44.8976C44.4416 37.0443 43.6472 36.9868 43.1202 37.445C42.5921 37.9042 42.5351 38.7046 42.9922 39.235L42.9911 39.234C43.0403 39.289 43.6232 39.964 44.6371 40.6576C45.3045 41.111 46.1754 41.5807 47.2099 41.8517C47.1985 41.8816 47.1916 41.9114 47.1778 41.9413C47.0453 42.2421 46.8555 42.552 46.3389 42.8552C45.9902 43.0552 45.7411 43.1595 45.5662 43.2123C45.3902 43.2651 45.292 43.2756 45.1662 43.2766C45.0028 43.279 44.757 43.2421 44.3478 43.1582C44.2736 43.1423 44.1994 43.1376 44.125 43.1331C44.0975 43.1215 44.0713 43.1112 44.0415 43.0963C43.6232 42.8987 43.1134 42.5416 42.7373 42.2374C42.5487 42.0871 42.3887 41.9492 42.279 41.8517L42.1555 41.7391L42.127 41.7116L42.1212 41.7071C41.6172 41.2226 40.8171 41.2409 40.3348 41.7472C39.8536 42.2535 39.8719 43.0573 40.376 43.5406C40.4023 43.5646 40.9337 44.0769 41.6789 44.6142C41.8114 44.7084 41.9578 44.8037 42.1041 44.8978C41.8983 45.2273 41.6835 45.4536 41.4732 45.6039C41.1371 45.8359 40.7714 45.9461 40.3005 45.9485C39.8788 45.9496 39.3826 45.8451 38.8867 45.6339C38.7221 45.565 38.561 45.4674 38.3986 45.3767C38.4935 45.0208 38.5461 44.6522 38.545 44.2824C38.5461 43.5211 38.3381 42.7427 37.9106 42.0526C37.1849 40.8803 35.9744 40.1914 34.7068 40.0788C34.7068 40.0328 34.7147 39.987 34.7147 39.9399C34.7158 39.1052 34.4873 38.2486 34.0186 37.4908V37.4932C33.1432 36.0763 31.6274 35.2932 30.0867 35.2966C30.0274 35.2966 29.9667 35.3069 29.9073 35.3093C29.8296 34.6513 29.6147 33.9992 29.2468 33.4044H29.2478C28.5335 32.2482 27.3883 31.5227 26.1527 31.2952C26.1448 30.4742 25.9196 29.6371 25.4589 28.8931H25.46C24.5857 27.4798 23.0688 26.6955 21.5281 26.6978C20.6948 26.6978 19.8456 26.9275 19.0901 27.3982L17.4683 28.4109C17.4293 28.3214 17.3803 28.2341 17.3448 28.1445C17.0626 27.466 16.8853 26.7965 16.8659 26.335L16.8283 25.6208L11.4027 20.8629L21.6893 10.1605C22.2152 10.5935 22.7547 11.0229 23.3079 11.4247C24.2246 12.0884 25.1332 12.674 26.0613 13.0667C26.6569 13.3135 27.2374 13.3744 27.7702 13.3755C28.6229 13.3721 29.4045 13.2251 30.2195 13.1057C30.2721 13.0965 30.3269 13.092 30.3806 13.0838C29.2606 14.0493 28.2832 15.0943 27.4569 16.0669C26.7608 16.8879 26.1734 17.6617 25.7081 18.2932C25.2487 18.9213 24.8943 19.4276 24.7389 19.6274C23.9731 20.6286 23.644 21.8262 23.6371 23.026C23.6405 24.1421 23.9354 25.3039 24.7012 26.2858C25.083 26.7714 25.5904 27.1962 26.1961 27.4856C26.8008 27.7772 27.4934 27.9264 28.2147 27.9264C29.1096 27.924 30.0479 27.706 31.0413 27.2868C34.1593 25.9618 37.3734 25.0789 39.7918 24.5346C41.0011 24.2637 42.0126 24.0754 42.7178 23.9571C42.8505 23.9352 42.9613 23.9169 43.071 23.8987L53.6516 33.0613L53.6561 33.0635L53.6596 33.0693C53.6582 33.1022 53.642 33.1975 53.5656 33.3399ZM54.7897 25.6207L54.7531 26.3349C54.7337 26.7435 54.5953 27.3199 54.3633 27.9171C54.2455 28.2293 54.1015 28.5441 53.9507 28.8539L44.6846 20.8304C44.3246 20.5182 43.8446 20.3734 43.3726 20.4332C43.2903 20.4493 36.4941 21.3058 29.7311 24.1695C29.0579 24.4553 28.5527 24.5437 28.2144 24.5414C27.939 24.5414 27.7709 24.492 27.6463 24.4323C27.4657 24.3439 27.3365 24.2186 27.2086 23.9787C27.0863 23.7423 27.0028 23.3933 27.0041 23.0259C26.9972 22.4977 27.1847 21.9603 27.3949 21.7056C27.6567 21.3657 27.9767 20.9018 28.4179 20.3024C29.0727 19.4114 29.962 18.2586 31.0226 17.1368C32.0809 16.0151 33.312 14.9289 34.6024 14.1664C36.3478 13.1366 37.8348 12.8782 39.2441 12.8735C40.1116 12.8724 40.9436 12.9814 41.7552 13.1043C42.5689 13.2248 43.353 13.3694 44.2034 13.3741C44.7349 13.373 45.3121 13.3121 45.9054 13.0687L45.9133 13.0664C46.8414 12.6737 47.7501 12.0881 48.6667 11.4245C49.2166 11.0248 49.7583 10.5932 50.2818 10.1615L60.4075 20.6961L54.7897 25.6207Z" fill="white"/>
</svg>
