<svg width="68" height="50" viewBox="0 0 68 50" fill="none" xmlns="http://www.w3.org/2000/svg">
<path d="M0 8.33333C0 6.1232 0.885352 4.00358 2.46129 2.44078C4.03722 0.877973 6.17465 0 8.40336 0H58.8235C61.0522 0 63.1897 0.877973 64.7656 2.44078C66.3415 4.00358 67.2269 6.1232 67.2269 8.33333V12.5H0V8.33333ZM0 20.8333V41.6667C0 43.8768 0.885352 45.9964 2.46129 47.5592C4.03722 49.122 6.17465 50 8.40336 50H58.8235C61.0522 50 63.1897 49.122 64.7656 47.5592C66.3415 45.9964 67.2269 43.8768 67.2269 41.6667V20.8333H0ZM12.605 29.1667H16.8067C17.9211 29.1667 18.9898 29.6057 19.7778 30.3871C20.5657 31.1685 21.0084 32.2283 21.0084 33.3333V37.5C21.0084 38.6051 20.5657 39.6649 19.7778 40.4463C18.9898 41.2277 17.9211 41.6667 16.8067 41.6667H12.605C11.4907 41.6667 10.422 41.2277 9.634 40.4463C8.84604 39.6649 8.40336 38.6051 8.40336 37.5V33.3333C8.40336 32.2283 8.84604 31.1685 9.634 30.3871C10.422 29.6057 11.4907 29.1667 12.605 29.1667Z" fill="white"/>
</svg>
