<svg width="67" height="50" viewBox="0 0 67 50" fill="none" xmlns="http://www.w3.org/2000/svg">
<path d="M29.1142 50C29.1142 50 24.955 50 24.955 45.8333C24.955 41.6667 29.1142 29.1667 45.7509 29.1667C62.3876 29.1667 66.5468 41.6667 66.5468 45.8333C66.5468 50 62.3876 50 62.3876 50H29.1142ZM45.7509 25C49.0601 25 52.2339 23.683 54.5738 21.3388C56.9138 18.9946 58.2284 15.8152 58.2284 12.5C58.2284 9.18479 56.9138 6.00537 54.5738 3.66117C52.2339 1.31696 49.0601 0 45.7509 0C42.4417 0 39.268 1.31696 36.928 3.66117C34.588 6.00537 33.2734 9.18479 33.2734 12.5C33.2734 15.8152 34.588 18.9946 36.928 21.3388C39.268 23.683 42.4417 25 45.7509 25ZM21.6942 50C21.0777 48.6992 20.7702 47.2731 20.7959 45.8333C20.7959 40.1875 23.6241 34.375 28.848 30.3333C26.2406 29.5285 23.5241 29.1349 20.7959 29.1667C4.15917 29.1667 0 41.6667 0 45.8333C0 50 4.15917 50 4.15917 50H21.6942ZM18.7163 25C21.474 25 24.1187 23.9025 26.0687 21.949C28.0187 19.9955 29.1142 17.346 29.1142 14.5833C29.1142 11.8207 28.0187 9.17114 26.0687 7.21764C24.1187 5.26413 21.474 4.16667 18.7163 4.16667C15.9586 4.16667 13.3138 5.26413 11.3638 7.21764C9.41384 9.17114 8.31835 11.8207 8.31835 14.5833C8.31835 17.346 9.41384 19.9955 11.3638 21.949C13.3138 23.9025 15.9586 25 18.7163 25Z" fill="white"/>
</svg>
