<svg width="20" height="15" viewBox="0 0 20 15" fill="none" xmlns="http://www.w3.org/2000/svg">
<path d="M16.6867 0.47823C17.0151 0.168099 17.452 -0.0033534 17.9053 4.97078e-05C18.3586 0.00345282 18.7929 0.181446 19.1164 0.496471C19.44 0.811495 19.6275 1.23891 19.6395 1.68853C19.6515 2.13815 19.487 2.5748 19.1806 2.90635L9.88092 14.4457C9.72101 14.6166 9.528 14.7537 9.31345 14.8489C9.0989 14.9441 8.8672 14.9954 8.63222 14.9997C8.39723 15.004 8.16378 14.9613 7.94582 14.874C7.72786 14.7868 7.52987 14.6568 7.3637 14.4919L1.19651 8.37308C1.02476 8.2143 0.887009 8.02282 0.791467 7.81008C0.695925 7.59733 0.64455 7.36767 0.640409 7.13479C0.636268 6.90192 0.679445 6.6706 0.767363 6.45464C0.855282 6.23868 0.986141 6.0425 1.15213 5.87781C1.31813 5.71312 1.51586 5.58328 1.73352 5.49605C1.95119 5.40883 2.18433 5.36599 2.41904 5.3701C2.65376 5.3742 2.88523 5.42518 3.09966 5.51997C3.31409 5.61476 3.50708 5.75144 3.66711 5.92184L8.54772 10.7619L16.6424 0.529106C16.657 0.511301 16.6703 0.494316 16.6867 0.47823Z" fill="#00252A"/>
</svg>
