<svg width="781" height="61" viewBox="0 0 781 61" fill="none" xmlns="http://www.w3.org/2000/svg">
<path d="M780.073 57.7492V59.4992H769.293V53.9692C767.847 56.1159 766.237 57.7026 764.463 58.7292C762.737 59.7092 760.8 60.1992 758.653 60.1992C754.64 60.1992 751.513 58.7059 749.273 55.7192C747.08 52.6859 745.983 48.4159 745.983 42.9092V41.5092C745.983 36.2359 747.267 32.0359 749.833 28.9092C752.447 25.7359 756.017 24.1492 760.543 24.1492C763.857 24.1492 766.657 25.1759 768.943 27.2292V13.3692C768.943 11.7359 768.873 10.7792 768.733 10.4992C768.593 10.2192 768.15 10.0326 767.403 9.93922L763.553 9.58922V7.69922H774.683V53.8292C774.683 55.4626 774.753 56.4192 774.893 56.6992C775.033 56.9792 775.477 57.1659 776.223 57.2592L780.073 57.7492ZM752.283 45.0092C752.283 49.3959 752.913 52.6159 754.173 54.6692C755.48 56.7226 757.277 57.7492 759.563 57.7492C761.057 57.7492 762.597 57.2826 764.183 56.3492C765.77 55.4159 767.357 53.5259 768.943 50.6792V30.6592C766.89 27.9059 764.207 26.5292 760.893 26.5292C757.907 26.5292 755.713 27.6726 754.313 29.9592C752.96 32.2459 752.283 35.3959 752.283 39.4092V45.0092Z" fill="#00252A"/>
<path d="M736.926 51.5204C736.086 54.6937 734.499 56.9337 732.166 58.2404C729.879 59.5471 727.336 60.2004 724.536 60.2004C719.356 60.2004 715.483 58.6371 712.916 55.5104C710.349 52.3371 709.066 48.1137 709.066 42.8404V41.4404C709.066 36.2137 710.303 32.0371 712.776 28.9104C715.249 25.7371 718.843 24.1504 723.556 24.1504C726.076 24.1504 728.363 24.6637 730.416 25.6904C732.516 26.7171 734.173 28.2337 735.386 30.2404C736.646 32.2471 737.276 34.7437 737.276 37.7304C737.276 39.1304 737.136 40.6004 736.856 42.1404H715.366V44.2404C715.366 49.1404 716.113 52.6637 717.606 54.8104C719.146 56.9104 721.619 57.9604 725.026 57.9604C727.173 57.9604 728.946 57.4004 730.346 56.2804C731.793 55.1604 732.749 53.2237 733.216 50.4704L736.926 51.5204ZM723.556 26.3904C720.803 26.3904 718.749 27.4404 717.396 29.5404C716.043 31.6404 715.366 35.0937 715.366 39.9004H731.116V39.6904C731.209 39.0837 731.279 38.5004 731.326 37.9404C731.373 37.3337 731.396 36.7971 731.396 36.3304C731.396 32.8304 730.673 30.3104 729.226 28.7704C727.779 27.1837 725.889 26.3904 723.556 26.3904Z" fill="#00252A"/>
<path d="M702.61 57.68V59.5H686.09V57.68L689.94 57.26C690.686 57.1667 691.13 56.98 691.27 56.7C691.41 56.42 691.48 55.4633 691.48 53.83V27.09H675.17V53.83C675.17 55.4633 675.24 56.42 675.38 56.7C675.52 56.98 675.963 57.1667 676.71 57.26L680.56 57.68V59.5H664.04V57.68L667.89 57.26C668.636 57.1667 669.08 56.98 669.22 56.7C669.36 56.42 669.43 55.4633 669.43 53.83V30.52C669.43 28.8867 669.36 27.93 669.22 27.65C669.126 27.37 668.683 27.1833 667.89 27.09L664.04 26.74V24.85H669.43V22.05C669.43 19.4367 669.873 16.9867 670.76 14.7C671.693 12.4133 673.21 10.57 675.31 9.17C677.456 7.72333 680.326 7 683.92 7C686.906 7 689.403 7.51333 691.41 8.54C693.463 9.52 694.956 10.8733 695.89 12.6C696.823 14.28 697.103 16.17 696.73 18.27L691.27 19.04C692.156 12.5067 689.706 9.24 683.92 9.24C682.193 9.24 680.676 9.59 679.37 10.29C678.063 10.9433 677.036 12.1333 676.29 13.86C675.543 15.54 675.17 17.9433 675.17 21.07V24.85H697.22V53.83C697.22 55.4633 697.29 56.42 697.43 56.7C697.57 56.98 698.013 57.1667 698.76 57.26L702.61 57.68Z" fill="#00252A"/>
<path d="M643 26.89V25H654.13V53.98C654.13 55.6133 654.2 56.57 654.34 56.85C654.48 57.13 654.923 57.3167 655.67 57.41L659.52 57.83V59.65H643V57.83L646.85 57.41C647.597 57.3167 648.04 57.13 648.18 56.85C648.32 56.57 648.39 55.6133 648.39 53.98V30.67C648.39 29.0367 648.32 28.08 648.18 27.8C648.04 27.52 647.597 27.3333 646.85 27.24L643 26.89Z" fill="#00252A"/>
<path d="M639.151 52.3602C638.451 55.0669 637.355 57.0502 635.861 58.3102C634.368 59.5702 632.455 60.2002 630.121 60.2002C627.881 60.2002 626.061 59.7102 624.661 58.7302C623.261 57.7036 622.235 56.3736 621.581 54.7402C620.928 53.1069 620.601 51.4036 620.601 49.6302V30.5202C620.601 28.8869 620.531 27.9302 620.391 27.6502C620.298 27.3702 619.855 27.1836 619.061 27.0902L615.211 26.7402V24.8502H620.601V15.6802L626.341 14.4902V24.8502H637.751V27.0902H626.341V50.1902C626.341 53.1302 626.738 55.1602 627.531 56.2802C628.371 57.4002 629.468 57.9602 630.821 57.9602C632.175 57.9602 633.201 57.4469 633.901 56.4202C634.648 55.3936 635.185 53.7136 635.511 51.3802L639.151 52.3602Z" fill="#00252A"/>
<path d="M585.29 26.7404V24.8504H596.07V30.4504C597.703 28.2571 599.336 26.6704 600.97 25.6904C602.65 24.6637 604.353 24.1504 606.08 24.1504C607.573 24.1504 608.973 24.5937 610.28 25.4804C611.586 26.3671 612.683 27.7904 613.57 29.7504L609.02 32.4804C608.32 30.8004 607.526 29.6337 606.64 28.9804C605.753 28.3271 604.773 28.0004 603.7 28.0004C602.533 28.0004 601.366 28.3737 600.2 29.1204C599.08 29.8671 597.82 31.2671 596.42 33.3204V53.8304C596.42 55.4637 596.49 56.4437 596.63 56.7704C596.77 57.0504 597.213 57.2137 597.96 57.2604L603.21 57.6804V59.5004H585.29V57.6804L589.14 57.2604C589.886 57.1671 590.33 56.9804 590.47 56.7004C590.61 56.4204 590.68 55.4637 590.68 53.8304V30.5204C590.68 28.8871 590.61 27.9304 590.47 27.6504C590.33 27.3704 589.886 27.1837 589.14 27.0904L585.29 26.7404Z" fill="#00252A"/>
<path d="M578.332 51.5204C577.492 54.6937 575.906 56.9337 573.572 58.2404C571.286 59.5471 568.742 60.2004 565.942 60.2004C560.762 60.2004 556.889 58.6371 554.322 55.5104C551.756 52.3371 550.472 48.1137 550.472 42.8404V41.4404C550.472 36.2137 551.709 32.0371 554.182 28.9104C556.656 25.7371 560.249 24.1504 564.962 24.1504C567.482 24.1504 569.769 24.6637 571.822 25.6904C573.922 26.7171 575.579 28.2337 576.792 30.2404C578.052 32.2471 578.682 34.7437 578.682 37.7304C578.682 39.1304 578.542 40.6004 578.262 42.1404H556.772V44.2404C556.772 49.1404 557.519 52.6637 559.012 54.8104C560.552 56.9104 563.026 57.9604 566.432 57.9604C568.579 57.9604 570.352 57.4004 571.752 56.2804C573.199 55.1604 574.156 53.2237 574.622 50.4704L578.332 51.5204ZM564.962 26.3904C562.209 26.3904 560.156 27.4404 558.802 29.5404C557.449 31.6404 556.772 35.0937 556.772 39.9004H572.522V39.6904C572.616 39.0837 572.686 38.5004 572.732 37.9404C572.779 37.3337 572.802 36.7971 572.802 36.3304C572.802 32.8304 572.079 30.3104 570.632 28.7704C569.186 27.1837 567.296 26.3904 564.962 26.3904Z" fill="#00252A"/>
<path d="M528.7 60.1992C522.773 60.1992 518.247 58.2159 515.12 54.2492C512.04 50.2826 510.5 44.9626 510.5 38.2892V33.0392C510.5 28.6526 511.153 24.8259 512.46 21.5592C513.813 18.2926 515.797 15.7492 518.41 13.9292C521.023 12.1092 524.22 11.1992 528 11.1992C531.5 11.1992 534.393 11.8992 536.68 13.2992C538.967 14.6526 540.623 16.4492 541.65 18.6892C542.677 20.8826 543.003 23.2859 542.63 25.8992L536.61 27.3692C537.123 22.8892 536.61 19.4592 535.07 17.0792C533.53 14.6526 531.173 13.4392 528 13.4392C524.453 13.4392 521.747 14.6992 519.88 17.2192C518.06 19.7392 517.15 23.8459 517.15 29.5392V41.7892C517.15 47.5292 518.13 51.6592 520.09 54.1792C522.05 56.6992 524.967 57.9592 528.84 57.9592C530.38 57.9592 531.85 57.7026 533.25 57.1892C534.65 56.6292 535.84 55.6959 536.82 54.3892C537.8 53.0826 538.407 51.2626 538.64 48.9292L542.98 50.0492C541.953 53.7826 540.133 56.4192 537.52 57.9592C534.953 59.4526 532.013 60.1992 528.7 60.1992Z" fill="#00252A"/>
<path d="M484.355 49.4896H486.175V59.4996H460.345V57.7496L479.105 27.0896H468.605C467.065 27.0896 466.109 27.2063 465.735 27.4396C465.409 27.6263 465.105 28.1163 464.825 28.9096L462.935 34.8596H461.115V24.8496H485.475V26.5996L466.855 57.2596H478.685C480.272 57.2596 481.229 57.1663 481.555 56.9796C481.929 56.7929 482.232 56.2796 482.465 55.4396L484.355 49.4896Z" fill="#8C8C8C"/>
<path d="M455.572 57.6804V59.5004H439.052V57.6804L442.902 57.2604C443.649 57.1671 444.092 56.9804 444.232 56.7004C444.372 56.4204 444.442 55.4637 444.442 53.8304V36.4004C444.442 32.9471 443.882 30.5204 442.762 29.1204C441.642 27.6737 440.032 26.9504 437.932 26.9504C436.392 26.9504 434.689 27.4171 432.822 28.3504C430.955 29.2837 429.205 31.1037 427.572 33.8104V53.8304C427.572 55.4637 427.642 56.4204 427.782 56.7004C427.922 56.9804 428.365 57.1671 429.112 57.2604L432.962 57.6804V59.5004H416.442V57.6804L420.292 57.2604C421.039 57.1671 421.482 56.9804 421.622 56.7004C421.762 56.4204 421.832 55.4637 421.832 53.8304V30.5204C421.832 28.8871 421.762 27.9304 421.622 27.6504C421.482 27.3704 421.039 27.1837 420.292 27.0904L416.442 26.7404V24.8504H427.222V30.5204C428.902 28.2804 430.792 26.6704 432.892 25.6904C435.039 24.6637 437.185 24.1504 439.332 24.1504C442.785 24.1504 445.445 25.2237 447.312 27.3704C449.225 29.4704 450.182 32.4571 450.182 36.3304V53.8304C450.182 55.4637 450.252 56.4204 450.392 56.7004C450.532 56.9804 450.975 57.1671 451.722 57.2604L455.572 57.6804Z" fill="#8C8C8C"/>
<path d="M409.485 51.5204C408.645 54.6937 407.058 56.9337 404.725 58.2404C402.438 59.5471 399.895 60.2004 397.095 60.2004C391.915 60.2004 388.041 58.6371 385.475 55.5104C382.908 52.3371 381.625 48.1137 381.625 42.8404V41.4404C381.625 36.2137 382.861 32.0371 385.335 28.9104C387.808 25.7371 391.401 24.1504 396.115 24.1504C398.635 24.1504 400.921 24.6637 402.975 25.6904C405.075 26.7171 406.731 28.2337 407.945 30.2404C409.205 32.2471 409.835 34.7437 409.835 37.7304C409.835 39.1304 409.695 40.6004 409.415 42.1404H387.925V44.2404C387.925 49.1404 388.671 52.6637 390.165 54.8104C391.705 56.9104 394.178 57.9604 397.585 57.9604C399.731 57.9604 401.505 57.4004 402.905 56.2804C404.351 55.1604 405.308 53.2237 405.775 50.4704L409.485 51.5204ZM396.115 26.3904C393.361 26.3904 391.308 27.4404 389.955 29.5404C388.601 31.6404 387.925 35.0937 387.925 39.9004H403.675V39.6904C403.768 39.0837 403.838 38.5004 403.885 37.9404C403.931 37.3337 403.955 36.7971 403.955 36.3304C403.955 32.8304 403.231 30.3104 401.785 28.7704C400.338 27.1837 398.448 26.3904 396.115 26.3904Z" fill="#8C8C8C"/>
<path d="M338.192 13.7904V11.9004H357.232C361.805 11.9004 365.235 12.9737 367.522 15.1204C369.809 17.2204 370.952 19.9271 370.952 23.2404V25.1304C370.952 27.5571 370.229 29.6337 368.782 31.3604C367.335 33.0871 365.305 34.3004 362.692 35.0004C365.959 35.5604 368.502 36.7971 370.322 38.7104C372.142 40.6237 373.052 43.0271 373.052 45.9204V47.8104C373.052 51.2171 371.862 54.0171 369.482 56.2104C367.149 58.4037 363.649 59.5004 358.982 59.5004H338.192V57.6804L342.042 57.2604C342.789 57.1671 343.232 56.9804 343.372 56.7004C343.512 56.4204 343.582 55.4637 343.582 53.8304V17.5704C343.582 15.9371 343.512 14.9804 343.372 14.7004C343.232 14.4204 342.789 14.2337 342.042 14.1404L338.192 13.7904ZM357.232 14.1404H349.672V34.1604H357.232C362.085 34.1604 364.512 31.3371 364.512 25.6904V22.8204C364.512 17.0337 362.085 14.1404 357.232 14.1404ZM358.982 36.4004H349.672V57.2604H358.982C364.069 57.2604 366.612 54.2504 366.612 48.2304V45.3604C366.612 42.4671 365.959 40.2504 364.652 38.7104C363.392 37.1704 361.502 36.4004 358.982 36.4004Z" fill="#8C8C8C"/>
<path d="M311.431 37.3094V34.8594H329.911V37.3094H311.431Z" fill="#8C8C8C"/>
<path d="M290.87 45.3604L286.6 44.3104C280.767 42.8171 277.85 39.4571 277.85 34.2304C277.85 32.5037 278.247 30.8704 279.04 29.3304C279.834 27.7904 281.094 26.5537 282.82 25.6204C284.594 24.6404 286.857 24.1504 289.61 24.1504C292.69 24.1504 295.164 24.6637 297.03 25.6904C298.897 26.7171 300.204 28.0471 300.95 29.6804C301.697 31.3137 301.93 33.0871 301.65 35.0004L296.19 35.9804C296.75 32.9471 296.424 30.5904 295.21 28.9104C294.044 27.2304 292.107 26.3904 289.4 26.3904C287.3 26.3904 285.62 26.9271 284.36 28.0004C283.1 29.0271 282.47 30.5437 282.47 32.5504C282.47 34.0437 282.937 35.3737 283.87 36.5404C284.804 37.6604 286.367 38.5004 288.56 39.0604L292.97 40.1104C296.05 40.8571 298.43 42.0471 300.11 43.6804C301.837 45.3137 302.7 47.4604 302.7 50.1204C302.7 53.1071 301.604 55.5337 299.41 57.4004C297.264 59.2671 294.184 60.2004 290.17 60.2004C288.257 60.2004 286.39 59.9204 284.57 59.3604C282.797 58.7537 281.234 57.8204 279.88 56.5604C278.574 55.2537 277.617 53.5737 277.01 51.5204L280.93 50.1204C281.444 53.0604 282.564 55.1137 284.29 56.2804C286.017 57.4471 288 58.0304 290.24 58.0304C291.547 58.0304 292.784 57.8204 293.95 57.4004C295.164 56.9804 296.144 56.3271 296.89 55.4404C297.637 54.5071 298.01 53.3171 298.01 51.8704C298.01 50.3771 297.497 49.0937 296.47 48.0204C295.444 46.9471 293.577 46.0604 290.87 45.3604Z" fill="#8C8C8C"/>
<path d="M269.143 51.5204C268.303 54.6937 266.716 56.9337 264.383 58.2404C262.096 59.5471 259.553 60.2004 256.753 60.2004C251.573 60.2004 247.7 58.6371 245.133 55.5104C242.566 52.3371 241.283 48.1137 241.283 42.8404V41.4404C241.283 36.2137 242.52 32.0371 244.993 28.9104C247.466 25.7371 251.06 24.1504 255.773 24.1504C258.293 24.1504 260.58 24.6637 262.633 25.6904C264.733 26.7171 266.39 28.2337 267.603 30.2404C268.863 32.2471 269.493 34.7437 269.493 37.7304C269.493 39.1304 269.353 40.6004 269.073 42.1404H247.583V44.2404C247.583 49.1404 248.33 52.6637 249.823 54.8104C251.363 56.9104 253.836 57.9604 257.243 57.9604C259.39 57.9604 261.163 57.4004 262.563 56.2804C264.01 55.1604 264.966 53.2237 265.433 50.4704L269.143 51.5204ZM255.773 26.3904C253.02 26.3904 250.966 27.4404 249.613 29.5404C248.26 31.6404 247.583 35.0937 247.583 39.9004H263.333V39.6904C263.426 39.0837 263.496 38.5004 263.543 37.9404C263.59 37.3337 263.613 36.7971 263.613 36.3304C263.613 32.8304 262.89 30.3104 261.443 28.7704C259.996 27.1837 258.106 26.3904 255.773 26.3904Z" fill="#8C8C8C"/>
<path d="M234.907 57.7492V59.4992H224.127V53.9692C222.681 56.1159 221.071 57.7026 219.297 58.7292C217.571 59.7092 215.634 60.1992 213.487 60.1992C209.474 60.1992 206.347 58.7059 204.107 55.7192C201.914 52.6859 200.817 48.4159 200.817 42.9092V41.5092C200.817 36.2359 202.101 32.0359 204.667 28.9092C207.281 25.7359 210.851 24.1492 215.377 24.1492C218.691 24.1492 221.491 25.1759 223.777 27.2292V13.3692C223.777 11.7359 223.707 10.7792 223.567 10.4992C223.427 10.2192 222.984 10.0326 222.237 9.93922L218.387 9.58922V7.69922H229.517V53.8292C229.517 55.4626 229.587 56.4192 229.727 56.6992C229.867 56.9792 230.311 57.1659 231.057 57.2592L234.907 57.7492ZM207.117 45.0092C207.117 49.3959 207.747 52.6159 209.007 54.6692C210.314 56.7226 212.111 57.7492 214.397 57.7492C215.891 57.7492 217.431 57.2826 219.017 56.3492C220.604 55.4159 222.191 53.5259 223.777 50.6792V30.6592C221.724 27.9059 219.041 26.5292 215.727 26.5292C212.741 26.5292 210.547 27.6726 209.147 29.9592C207.794 32.2459 207.117 35.3959 207.117 39.4092V45.0092Z" fill="#8C8C8C"/>
<path d="M191.76 51.5204C190.92 54.6937 189.333 56.9337 187 58.2404C184.713 59.5471 182.17 60.2004 179.37 60.2004C174.19 60.2004 170.317 58.6371 167.75 55.5104C165.183 52.3371 163.9 48.1137 163.9 42.8404V41.4404C163.9 36.2137 165.137 32.0371 167.61 28.9104C170.083 25.7371 173.677 24.1504 178.39 24.1504C180.91 24.1504 183.197 24.6637 185.25 25.6904C187.35 26.7171 189.007 28.2337 190.22 30.2404C191.48 32.2471 192.11 34.7437 192.11 37.7304C192.11 39.1304 191.97 40.6004 191.69 42.1404H170.2V44.2404C170.2 49.1404 170.947 52.6637 172.44 54.8104C173.98 56.9104 176.453 57.9604 179.86 57.9604C182.007 57.9604 183.78 57.4004 185.18 56.2804C186.627 55.1604 187.583 53.2237 188.05 50.4704L191.76 51.5204ZM178.39 26.3904C175.637 26.3904 173.583 27.4404 172.23 29.5404C170.877 31.6404 170.2 35.0937 170.2 39.9004H185.95V39.6904C186.043 39.0837 186.113 38.5004 186.16 37.9404C186.207 37.3337 186.23 36.7971 186.23 36.3304C186.23 32.8304 185.507 30.3104 184.06 28.7704C182.613 27.1837 180.723 26.3904 178.39 26.3904Z" fill="#8C8C8C"/>
<path d="M143.183 26.3904C140.617 26.3904 138.61 27.4637 137.163 29.6104C135.763 31.7104 135.063 35.1871 135.063 40.0404V44.2404C135.063 49.1404 135.763 52.6637 137.163 54.8104C138.61 56.9104 140.943 57.9604 144.163 57.9604C146.357 57.9604 148.13 57.4004 149.483 56.2804C150.837 55.1604 151.747 53.2237 152.213 50.4704L155.923 51.5204C155.083 54.6937 153.543 56.9337 151.303 58.2404C149.063 59.5471 146.567 60.2004 143.813 60.2004C138.773 60.2004 134.993 58.6371 132.473 55.5104C130 52.3371 128.763 48.1137 128.763 42.8404V41.4404C128.763 36.2137 130 32.0371 132.473 28.9104C134.947 25.7371 138.517 24.1504 143.183 24.1504C146.17 24.1504 148.643 24.7337 150.603 25.9004C152.61 27.0671 154.033 28.6537 154.873 30.6604C155.713 32.6204 155.947 34.7904 155.573 37.1704L150.043 38.0104C150.557 34.2771 150.207 31.4071 148.993 29.4004C147.827 27.3937 145.89 26.3904 143.183 26.3904Z" fill="#8C8C8C"/>
<path d="M96.4519 26.7404V24.8504H107.232V30.4504C108.865 28.2571 110.499 26.6704 112.132 25.6904C113.812 24.6637 115.515 24.1504 117.242 24.1504C118.735 24.1504 120.135 24.5937 121.442 25.4804C122.749 26.3671 123.845 27.7904 124.732 29.7504L120.182 32.4804C119.482 30.8004 118.689 29.6337 117.802 28.9804C116.915 28.3271 115.935 28.0004 114.862 28.0004C113.695 28.0004 112.529 28.3737 111.362 29.1204C110.242 29.8671 108.982 31.2671 107.582 33.3204V53.8304C107.582 55.4637 107.652 56.4437 107.792 56.7704C107.932 57.0504 108.375 57.2137 109.122 57.2604L114.372 57.6804V59.5004H96.4519V57.6804L100.302 57.2604C101.049 57.1671 101.492 56.9804 101.632 56.7004C101.772 56.4204 101.842 55.4637 101.842 53.8304V30.5204C101.842 28.8871 101.772 27.9304 101.632 27.6504C101.492 27.3704 101.049 27.1837 100.302 27.0904L96.4519 26.7404Z" fill="#8C8C8C"/>
<path d="M89.4945 51.5204C88.6545 54.6937 87.0679 56.9337 84.7345 58.2404C82.4479 59.5471 79.9045 60.2004 77.1045 60.2004C71.9245 60.2004 68.0512 58.6371 65.4845 55.5104C62.9179 52.3371 61.6345 48.1137 61.6345 42.8404V41.4404C61.6345 36.2137 62.8712 32.0371 65.3445 28.9104C67.8179 25.7371 71.4112 24.1504 76.1245 24.1504C78.6445 24.1504 80.9312 24.6637 82.9845 25.6904C85.0845 26.7171 86.7412 28.2337 87.9545 30.2404C89.2145 32.2471 89.8445 34.7437 89.8445 37.7304C89.8445 39.1304 89.7045 40.6004 89.4245 42.1404H67.9345V44.2404C67.9345 49.1404 68.6812 52.6637 70.1745 54.8104C71.7145 56.9104 74.1879 57.9604 77.5945 57.9604C79.7412 57.9604 81.5145 57.4004 82.9145 56.2804C84.3612 55.1604 85.3179 53.2237 85.7845 50.4704L89.4945 51.5204ZM76.1245 26.3904C73.3712 26.3904 71.3178 27.4404 69.9645 29.5404C68.6112 31.6404 67.9345 35.0937 67.9345 39.9004H83.6845V39.6904C83.7779 39.0837 83.8478 38.5004 83.8945 37.9404C83.9412 37.3337 83.9645 36.7971 83.9645 36.3304C83.9645 32.8304 83.2412 30.3104 81.7945 28.7704C80.3479 27.1837 78.4579 26.3904 76.1245 26.3904Z" fill="#8C8C8C"/>
<path d="M53.7699 57.6804V59.5004H36.8999V57.6804L40.7499 57.2604C41.4965 57.1671 41.9399 56.9804 42.0799 56.7004C42.2199 56.3737 42.2899 55.4171 42.2899 53.8304V15.8904L27.7299 53.9004H22.9699L8.33986 15.8904V53.8304C8.33986 55.4171 8.40986 56.3737 8.54986 56.7004C8.68986 56.9804 9.1332 57.1671 9.87986 57.2604L13.7299 57.6804V59.5004H0.359863V57.6804L4.20986 57.2604C4.95653 57.1671 5.39986 56.9804 5.53986 56.7004C5.67986 56.3737 5.74986 55.4171 5.74986 53.8304V17.5704C5.74986 15.9837 5.67986 15.0504 5.53986 14.7704C5.39986 14.4437 4.95653 14.2337 4.20986 14.1404L0.359863 13.7904V11.9004H13.1699L27.2399 48.6504L41.3099 11.9004H53.7699V13.7904L49.9199 14.1404C49.1732 14.2337 48.7299 14.4437 48.5899 14.7704C48.4499 15.0504 48.3799 15.9837 48.3799 17.5704V53.8304C48.3799 55.4171 48.4499 56.3737 48.5899 56.7004C48.7299 56.9804 49.1732 57.1671 49.9199 57.2604L53.7699 57.6804Z" fill="#8C8C8C"/>
<path d="M658.047 0.47823C658.375 0.168099 658.812 -0.0033534 659.265 4.97078e-05C659.718 0.00345282 660.153 0.181446 660.476 0.496471C660.8 0.811495 660.987 1.23891 660.999 1.68853C661.011 2.13815 660.847 2.5748 660.541 2.90635L651.241 14.4457C651.081 14.6166 650.888 14.7537 650.673 14.8489C650.459 14.9441 650.227 14.9954 649.992 14.9997C649.757 15.004 649.524 14.9613 649.306 14.874C649.088 14.7868 648.89 14.6568 648.724 14.4919L642.556 8.37308C642.385 8.2143 642.247 8.02282 642.151 7.81008C642.056 7.59733 642.004 7.36767 642 7.13479C641.996 6.90192 642.039 6.6706 642.127 6.45464C642.215 6.23868 642.346 6.0425 642.512 5.87781C642.678 5.71312 642.876 5.58328 643.093 5.49605C643.311 5.40882 643.544 5.36599 643.779 5.3701C644.014 5.3742 644.245 5.42518 644.46 5.51997C644.674 5.61476 644.867 5.75144 645.027 5.92184L649.908 10.7619L658.002 0.529106C658.017 0.511301 658.03 0.494316 658.047 0.47823Z" fill="#00252A"/>
</svg>
