<svg width="64" height="57" viewBox="0 0 64 57" fill="none" xmlns="http://www.w3.org/2000/svg">
<path d="M57.0002 56.25C58.6578 56.25 60.2475 55.5915 61.4196 54.4194C62.5917 53.2473 63.2502 51.6576 63.2502 50V34.7375C63.2502 33.0799 62.5917 31.4902 61.4196 30.3181C60.2475 29.146 58.6578 28.4875 57.0002 28.4875H48.3252C48.3252 26.2917 48.4543 24.0958 48.7127 21.9C49.1002 19.575 49.746 17.5083 50.6502 15.7C51.5543 13.8917 52.7189 12.4687 54.1439 11.4312C55.5606 10.2687 57.3689 9.6875 59.5689 9.6875V0C55.9522 0 52.7856 0.775 50.0689 2.325C47.371 3.85547 45.0531 5.97472 43.2877 8.525C41.5102 11.3322 40.2015 14.4099 39.4127 17.6375C38.6151 21.1984 38.2251 24.8385 38.2502 28.4875V50C38.2502 51.6576 38.9086 53.2473 40.0807 54.4194C41.2528 55.5915 42.8426 56.25 44.5002 56.25H57.0002ZM19.5002 56.25C21.1578 56.25 22.7475 55.5915 23.9196 54.4194C25.0917 53.2473 25.7502 51.6576 25.7502 50V34.7375C25.7502 33.0799 25.0917 31.4902 23.9196 30.3181C22.7475 29.146 21.1578 28.4875 19.5002 28.4875H10.8252C10.8252 26.2917 10.9543 24.0958 11.2127 21.9C11.6043 19.575 12.2502 17.5083 13.1502 15.7C14.0543 13.8917 15.2189 12.4687 16.6439 11.4312C18.0606 10.2687 19.8689 9.6875 22.0689 9.6875V0C18.4522 0 15.2856 0.775 12.5689 2.325C9.87105 3.85547 7.55312 5.97472 5.78766 8.525C4.01023 11.3322 2.70146 14.4099 1.91266 17.6375C1.11506 21.1984 0.725053 24.8385 0.750163 28.4875V50C0.750163 51.6576 1.40864 53.2473 2.58075 54.4194C3.75285 55.5915 5.34256 56.25 7.00016 56.25H19.5002Z" fill="#404040"/>
</svg>
