<?xml version="1.0" standalone="no"?>
<!DOCTYPE svg PUBLIC "-//W3C//DTD SVG 20010904//EN"
 "http://www.w3.org/TR/2001/REC-SVG-20010904/DTD/svg10.dtd">
<svg version="1.0" xmlns="http://www.w3.org/2000/svg"
 width="1280.000000pt" height="640.000000pt" viewBox="0 0 1280.000000 640.000000"
 preserveAspectRatio="xMidYMid meet">
<metadata>
Created by potrace 1.15, written by Peter Selinger 2001-2017
</metadata>
<g transform="translate(0.000000,640.000000) scale(0.100000,-0.100000)"
fill="#000000" stroke="none">
<path d="M7005 6189 c-860 -34 -1630 -154 -1910 -297 -132 -68 -441 -401 -659
-711 -90 -128 -202 -313 -216 -357 -17 -51 -61 -60 -580 -123 -1053 -129
-1616 -258 -1990 -459 -225 -120 -250 -128 -495 -157 -405 -47 -720 -146 -908
-286 -175 -130 -275 -391 -237 -619 22 -135 72 -231 185 -360 56 -64 57 -66
51 -115 -3 -27 -12 -78 -20 -112 -12 -55 -12 -71 0 -125 36 -158 46 -236 42
-317 -4 -81 -6 -85 -37 -110 -86 -69 -108 -96 -116 -139 -10 -59 9 -122 51
-170 57 -67 108 -81 535 -142 155 -22 285 -40 289 -40 4 0 31 -46 58 -102 28
-57 70 -132 93 -168 62 -95 228 -257 333 -325 357 -232 849 -289 1274 -146
207 69 373 173 558 350 208 198 304 231 671 231 181 0 166 7 178 -80 34 -236
204 -601 364 -782 105 -119 310 -239 482 -282 268 -68 686 -57 904 25 145 54
354 234 466 402 128 191 182 333 238 617 l27 135 169 7 c207 8 638 39 2460
179 220 17 546 41 723 53 l324 22 83 -166 c136 -271 237 -406 340 -451 55 -24
355 -44 560 -36 295 10 420 66 556 246 92 121 199 373 214 506 4 33 13 66 19
74 22 28 98 52 376 120 155 38 284 72 288 75 19 20 56 715 48 921 -11 314 -42
402 -193 566 -176 189 -461 385 -809 554 -259 126 -252 119 -404 457 -162 364
-591 995 -768 1131 -324 250 -1056 418 -2117 487 -436 28 -1070 37 -1500 19z
m957 -129 c649 -14 933 -33 1278 -86 486 -75 908 -185 1148 -300 166 -80 266
-179 441 -439 44 -66 78 -121 76 -124 -3 -2 -34 23 -70 55 -214 192 -327 273
-478 344 -203 95 -500 178 -669 189 l-108 6 0 -25 c1 -14 38 -333 83 -710 l83
-685 115 -12 c214 -22 971 -53 1297 -53 l92 0 0 53 c0 52 -15 167 -27 215 -12
50 16 11 99 -134 104 -184 152 -231 334 -328 477 -256 655 -371 812 -525 185
-181 213 -297 193 -815 -9 -235 -33 -521 -45 -533 -6 -7 -356 -86 -360 -82 -3
3 2 63 10 134 30 250 -10 485 -100 583 -28 31 -97 66 -166 83 -81 21 -375 18
-520 -4 -324 -50 -457 -120 -543 -286 -49 -93 -80 -202 -127 -445 -58 -302
-44 -270 -120 -278 -126 -14 -815 -70 -1900 -153 -1110 -86 -1664 -130 -1745
-142 l-43 -5 -6 43 c-2 24 -10 166 -16 314 -20 484 -65 723 -172 915 -98 177
-306 321 -523 362 -95 18 -675 18 -800 0 -327 -47 -542 -176 -704 -422 -137
-210 -313 -603 -387 -866 -28 -102 -37 -154 -41 -246 l-6 -118 -31 -5 c-50 -7
-297 -25 -465 -34 -169 -8 -248 -2 -262 20 -5 8 -9 39 -9 69 0 84 -23 121 -90
144 -49 17 -103 20 -480 26 -541 10 -705 25 -1715 151 -719 89 -836 109 -877
146 -17 16 -19 26 -13 78 8 76 23 109 74 170 73 86 86 119 86 215 0 80 -2 89
-37 153 -21 37 -38 78 -38 91 0 12 25 56 56 96 65 86 95 143 118 223 9 31 19
57 22 57 4 0 19 -11 35 -25 69 -58 272 -98 679 -134 341 -31 556 -43 879 -50
l293 -6 27 -75 c36 -101 69 -156 130 -214 75 -69 149 -101 236 -100 98 0 158
28 237 112 113 122 170 286 170 492 -1 202 -50 346 -164 478 -32 37 -54 70
-50 74 16 16 397 169 554 223 621 213 1359 365 2113 434 121 11 380 30 575 41
360 21 467 32 530 51 67 22 76 44 35 85 l-25 25 23 8 c12 5 49 14 81 21 134
28 180 65 274 224 114 192 289 559 325 682 18 60 9 127 -23 179 -40 65 -135
141 -242 194 -169 83 -158 82 -786 91 -382 5 -557 11 -565 19 -6 6 -8 11 -5
11 3 0 64 7 135 15 298 34 648 58 943 64 173 4 333 8 355 9 22 1 250 -3 507
-8z m-2177 -140 c-3 -5 -28 -10 -55 -10 -27 0 -52 5 -55 10 -4 6 17 10 55 10
38 0 59 -4 55 -10z m1120 -100 c318 -27 514 -91 581 -190 52 -75 29 -161 -126
-465 -183 -360 -236 -436 -316 -451 -64 -12 -352 4 -559 30 -337 44 -486 49
-1080 40 -668 -11 -982 -11 -1017 -1 -17 4 -28 14 -28 25 0 52 291 475 460
669 128 148 170 168 461 227 290 58 651 102 974 119 149 8 541 6 650 -3z
m2990 -281 c115 -30 285 -94 410 -154 277 -133 449 -292 621 -575 98 -163 194
-378 194 -436 0 -17 -7 -25 -26 -30 -65 -16 -1191 39 -1211 60 -18 18 -124
821 -139 1056 l-7 100 40 0 c21 0 74 -9 118 -21z m-3560 -908 c195 -23 527
-70 533 -75 5 -6 -122 -15 -423 -31 -693 -38 -1209 -102 -1788 -221 -589 -121
-973 -243 -1534 -487 -136 -60 -173 -72 -265 -91 -74 -16 -191 -156 -253 -305
-42 -100 -53 -148 -61 -262 l-7 -94 -381 6 c-502 9 -842 33 -1106 80 -138 24
-197 48 -202 81 -18 117 122 359 293 507 170 147 459 337 664 435 403 195
1111 334 2140 420 243 21 759 46 1215 60 58 2 305 2 550 0 377 -2 473 -5 625
-23z m-5282 -783 c-125 -127 -206 -229 -260 -327 -46 -85 -82 -133 -93 -126
-5 3 -20 43 -34 88 -27 88 -73 168 -149 256 -26 30 -45 56 -43 58 18 18 493
137 626 157 66 9 64 6 -47 -106z m-683 -284 c102 -87 133 -353 57 -500 -22
-42 -83 -94 -111 -94 -44 0 -89 42 -115 105 -30 74 -41 254 -21 344 33 150
112 210 190 145z m2614 -36 c65 -76 106 -228 106 -394 0 -197 -57 -360 -145
-414 -49 -31 -87 -26 -123 14 -68 78 -96 229 -91 491 4 154 6 175 27 217 34
69 104 128 153 128 32 0 43 -6 73 -42z m256 -263 c0 -19 -4 -37 -10 -40 -6 -4
-10 12 -10 40 0 28 4 44 10 40 6 -3 10 -21 10 -40z m0 -245 c0 -27 -4 -52 -10
-55 -6 -4 -10 17 -10 55 0 38 4 59 10 55 6 -3 10 -28 10 -55z m2847 50 c206
-12 307 -30 373 -66 115 -62 221 -191 280 -338 65 -162 108 -451 117 -781 8
-313 0 -333 -131 -322 -88 8 -96 20 -107 161 -20 244 -141 560 -293 763 -97
129 -269 265 -422 334 -151 68 -346 108 -529 110 -60 1 -137 4 -170 8 l-60 6
116 52 c111 49 184 70 279 76 105 8 388 6 547 -3z m-1027 -274 c0 -19 -28 -50
-136 -147 -69 -61 -127 -109 -130 -106 -10 10 58 129 99 174 53 58 93 83 135
83 17 0 32 -2 32 -4z m688 -60 c131 -36 236 -100 365 -225 137 -132 213 -243
281 -413 76 -190 101 -327 100 -553 0 -191 -16 -299 -66 -454 -75 -236 -206
-433 -376 -570 -192 -154 -311 -197 -522 -188 -129 5 -195 20 -317 70 -284
116 -508 428 -595 830 -19 86 -22 133 -22 302 0 171 3 215 23 305 31 146 63
237 126 365 149 299 374 484 660 541 84 16 266 11 343 -10z m6083 -6 c26 -36
35 -80 16 -80 -13 0 -107 92 -107 105 0 3 16 5 37 3 25 -2 42 -11 54 -28z
m230 -26 c22 -20 59 -97 75 -157 19 -70 18 -197 -3 -342 l-17 -120 -21 150
c-25 175 -36 227 -76 352 -16 50 -29 104 -29 119 0 24 3 26 28 19 15 -3 34
-13 43 -21z m-454 -36 c48 -23 128 -103 166 -168 61 -105 107 -333 92 -460
-15 -134 -55 -281 -101 -373 -31 -59 -95 -126 -149 -152 -58 -29 -174 -28
-236 3 -107 52 -224 225 -250 367 -16 86 -5 403 16 480 41 150 171 296 290
326 42 11 123 0 172 -23z m-11180 -75 c18 -44 12 -128 -11 -151 -34 -34 -85
45 -72 111 8 41 33 77 52 77 8 0 22 -17 31 -37z m10662 -30 c-24 -32 -45 -60
-46 -62 -8 -12 -14 11 -8 31 8 23 85 102 93 94 2 -3 -16 -31 -39 -63z m-99
-268 c0 -25 -4 -45 -10 -45 -5 0 -10 20 -10 45 0 25 5 45 10 45 6 0 10 -20 10
-45z m-15 -293 c33 -171 68 -290 108 -372 45 -91 144 -190 233 -232 63 -30 77
-33 164 -33 86 0 101 3 160 31 36 17 103 64 149 104 92 80 94 76 24 -42 -130
-218 -322 -313 -498 -247 -87 32 -195 144 -252 259 -73 150 -107 294 -118 495
-3 66 -8 145 -10 175 -6 76 7 32 40 -138z m-10403 -132 c106 -12 387 -45 623
-75 237 -30 507 -63 600 -75 94 -11 280 -33 415 -49 510 -62 531 -63 710 -52
91 6 243 13 338 16 l172 5 0 -74 c0 -58 -4 -79 -19 -97 -18 -23 -26 -24 -155
-27 -241 -7 -697 26 -1186 84 -663 78 -1702 235 -1789 270 -35 14 -41 21 -41
45 0 56 40 59 332 29z m10232 -150 c21 -7 30 -24 52 -97 41 -137 111 -264 205
-372 l82 -94 -144 6 c-186 6 -232 20 -293 88 -72 80 -200 303 -224 392 -13 47
-6 51 103 66 168 23 186 24 219 11z m-9434 -230 c229 -39 797 -112 1171 -150
59 -6 212 -15 340 -20 129 -5 265 -15 302 -21 l68 -12 -73 -74 c-160 -162
-389 -277 -654 -329 -118 -23 -365 -24 -489 -1 -268 48 -495 154 -659 307 -93
88 -196 241 -196 294 0 28 14 36 50 30 14 -2 77 -13 140 -24z m3039 -111 c41
-15 54 -42 90 -190 64 -268 151 -445 315 -638 104 -124 121 -151 92 -151 -19
0 -150 88 -219 148 -123 105 -237 268 -298 426 -73 189 -117 385 -92 409 10
11 77 8 112 -4z"/>
<path d="M8258 5710 c-69 -57 -315 -407 -478 -680 -34 -58 -107 -186 -162
-285 -132 -238 -228 -382 -325 -489 l-80 -88 38 -132 c20 -73 44 -187 53 -253
51 -396 46 -1108 -13 -1958 -5 -66 -5 -124 -1 -128 13 -14 867 30 2000 103
720 47 776 52 784 78 14 48 45 591 77 1363 l22 526 -58 111 c-87 168 -179 269
-303 331 -60 31 -121 26 -141 -11 -21 -37 -5 -80 34 -92 108 -32 181 -73 162
-92 -4 -4 -76 -13 -159 -20 -176 -15 -201 -26 -206 -87 -6 -69 68 -107 208
-107 32 0 71 -5 85 -10 23 -9 26 -14 20 -40 -6 -26 -3 -31 20 -40 14 -5 65
-10 112 -10 l86 0 -7 -267 c-10 -386 -43 -1124 -62 -1371 -6 -73 -9 -83 -28
-87 -77 -17 -1842 -119 -2295 -132 l-214 -6 7 154 c3 85 14 258 23 384 22 296
25 1109 5 1255 -17 121 -48 291 -73 399 l-20 85 87 129 86 130 361 -7 c199 -3
385 -10 412 -15 28 -5 79 -14 115 -20 109 -18 618 -42 935 -44 l300 -2 -2 95
c-3 150 -79 1006 -106 1200 -11 79 -14 86 -42 99 -23 11 -122 16 -470 23 -403
7 -661 19 -725 33 -18 5 -35 -2 -62 -25z m915 -139 c136 -5 250 -11 252 -13 6
-6 80 -747 95 -943 8 -109 8 -158 0 -179 l-11 -29 -267 7 c-398 10 -655 23
-701 36 -29 8 -42 17 -46 33 -2 12 -16 150 -30 307 -15 157 -37 393 -49 525
-13 132 -22 242 -19 245 18 19 388 24 776 11z m-974 -254 c14 -44 28 -190 46
-482 8 -137 17 -270 19 -294 l4 -44 -287 6 c-157 2 -294 8 -303 12 -10 4 -18
13 -18 19 0 64 417 765 482 810 27 19 45 11 57 -27z"/>
<path d="M2828 2400 c-49 -27 -96 -85 -113 -144 -19 -63 -19 -99 1 -167 13
-44 28 -66 80 -116 36 -35 76 -66 89 -69 17 -4 46 4 90 24 52 25 71 40 94 78
89 139 49 347 -76 400 -46 20 -121 17 -165 -6z m144 -161 c28 -54 24 -118 -12
-167 -34 -47 -57 -52 -88 -19 -61 65 -55 172 14 226 24 19 30 20 48 8 12 -8
29 -29 38 -48z"/>
<path d="M5540 2470 c-277 -31 -507 -201 -640 -474 -179 -365 -134 -789 116
-1105 138 -175 299 -265 520 -291 200 -24 378 23 549 144 258 185 413 548 376
881 -30 260 -120 464 -275 621 -144 144 -294 210 -516 227 -30 3 -89 1 -130
-3z m290 -155 c98 -35 184 -83 242 -135 89 -78 186 -251 229 -408 27 -97 37
-302 19 -409 -29 -183 -89 -293 -239 -443 -159 -159 -234 -190 -456 -190 -120
0 -202 18 -294 65 -187 94 -321 273 -382 510 -19 75 -23 114 -23 235 1 178 20
258 96 410 45 89 66 118 143 196 73 74 106 99 175 133 125 62 166 71 300 67
95 -3 128 -8 190 -31z"/>
<path d="M5629 1762 c-79 -51 -141 -145 -141 -217 0 -80 74 -185 163 -231 74
-38 205 15 266 107 57 86 38 213 -44 295 -78 78 -166 95 -244 46z m161 -148
c13 -32 13 -95 0 -128 -12 -33 -53 -59 -79 -51 -12 3 -34 20 -51 36 -66 67
-21 169 74 169 41 0 48 -3 56 -26z"/>
<path d="M11602 2263 c-84 -41 -115 -161 -69 -273 17 -42 31 -59 62 -77 75
-43 154 -20 199 57 32 53 30 170 -4 228 -43 76 -115 101 -188 65z m92 -166
c11 -32 -1 -60 -28 -65 -22 -5 -38 40 -26 74 13 33 41 28 54 -9z"/>
</g>
</svg>
