<svg width="18" height="10" viewBox="0 0 18 10" fill="none" xmlns="http://www.w3.org/2000/svg">
<path d="M7.9346 0.421872L0.440774 7.55291C0.301032 7.68589 0.190182 7.84376 0.114554 8.0175C0.0389257 8.19125 -7.09233e-08 8.37746 -6.2703e-08 8.56552C-4.61014e-08 8.94532 0.158551 9.30957 0.440774 9.57813C0.580517 9.71111 0.746416 9.81659 0.928998 9.88856C1.11158 9.96053 1.30727 9.99757 1.5049 9.99757C1.90402 9.99757 2.2868 9.84669 2.56902 9.57813L8.99872 3.44543L15.4284 9.57813C15.5678 9.71181 15.7335 9.81791 15.9162 9.89031C16.0988 9.96272 16.2947 10 16.4925 10C16.6904 10 16.8863 9.96272 17.0689 9.89031C17.2516 9.81791 17.4173 9.71181 17.5567 9.57813C17.6971 9.44554 17.8086 9.2878 17.8847 9.11401C17.9608 8.94021 18 8.7538 18 8.56552C18 8.37724 17.9608 8.19083 17.8847 8.01703C17.8086 7.84324 17.6971 7.6855 17.5567 7.55291L10.0628 0.421872C9.92351 0.288196 9.75775 0.182092 9.57511 0.109685C9.39247 0.0372784 9.19658 8.42252e-07 8.99872 8.509e-07C8.80087 8.59549e-07 8.60497 0.0372784 8.42233 0.109685C8.23969 0.182092 8.07393 0.288196 7.9346 0.421872Z" fill="black"/>
</svg>
