<svg width="350" height="349" viewBox="0 0 350 349" fill="none" xmlns="http://www.w3.org/2000/svg">
<path d="M305.847 0H44.1544C32.5869 0 21.4932 4.59518 13.3137 12.7747C5.13424 20.9541 0.539063 32.0479 0.539062 43.6154L0.539063 305.308C0.539063 316.875 5.13424 327.969 13.3137 336.148C21.4932 344.328 32.5869 348.923 44.1544 348.923H305.847C317.414 348.923 328.508 344.328 336.687 336.148C344.867 327.969 349.462 316.875 349.462 305.308V43.6154C349.462 32.0479 344.867 20.9541 336.687 12.7747C328.508 4.59518 317.414 0 305.847 0ZM22.3468 84.1123C22.3468 73.7972 32.1166 65.4231 44.1544 65.4231H305.847C317.885 65.4231 327.654 73.7972 327.654 84.1123V308.426C327.654 318.741 317.885 327.115 305.847 327.115H44.1544C32.1166 327.115 22.3468 318.741 22.3468 308.426V84.1123Z" fill="#8fa7bd"/>
<path d="M142.289 152.654C148.073 152.654 153.62 150.357 157.71 146.267C161.799 142.177 164.097 136.631 164.097 130.847C164.097 125.063 161.799 119.516 157.71 115.426C153.62 111.337 148.073 109.039 142.289 109.039C136.506 109.039 130.959 111.337 126.869 115.426C122.779 119.516 120.482 125.063 120.482 130.847C120.482 136.631 122.779 142.177 126.869 146.267C130.959 150.357 136.506 152.654 142.289 152.654ZM207.712 152.654C213.496 152.654 219.043 150.357 223.133 146.267C227.223 142.177 229.52 136.631 229.52 130.847C229.52 125.063 227.223 119.516 223.133 115.426C219.043 111.337 213.496 109.039 207.712 109.039C201.929 109.039 196.382 111.337 192.292 115.426C188.202 119.516 185.905 125.063 185.905 130.847C185.905 136.631 188.202 142.177 192.292 146.267C196.382 150.357 201.929 152.654 207.712 152.654ZM273.136 152.654C278.919 152.654 284.466 150.357 288.556 146.267C292.646 142.177 294.943 136.631 294.943 130.847C294.943 125.063 292.646 119.516 288.556 115.426C284.466 111.337 278.919 109.039 273.136 109.039C267.352 109.039 261.805 111.337 257.715 115.426C253.625 119.516 251.328 125.063 251.328 130.847C251.328 136.631 253.625 142.177 257.715 146.267C261.805 150.357 267.352 152.654 273.136 152.654ZM76.8663 218.078C82.65 218.078 88.1969 215.78 92.2866 211.69C96.3764 207.6 98.674 202.054 98.674 196.27C98.674 190.486 96.3764 184.939 92.2866 180.849C88.1969 176.76 82.65 174.462 76.8663 174.462C71.0825 174.462 65.5357 176.76 61.4459 180.849C57.3562 184.939 55.0586 190.486 55.0586 196.27C55.0586 202.054 57.3562 207.6 61.4459 211.69C65.5357 215.78 71.0825 218.078 76.8663 218.078ZM142.289 218.078C148.073 218.078 153.62 215.78 157.71 211.69C161.799 207.6 164.097 202.054 164.097 196.27C164.097 190.486 161.799 184.939 157.71 180.849C153.62 176.76 148.073 174.462 142.289 174.462C136.506 174.462 130.959 176.76 126.869 180.849C122.779 184.939 120.482 190.486 120.482 196.27C120.482 202.054 122.779 207.6 126.869 211.69C130.959 215.78 136.506 218.078 142.289 218.078ZM207.712 218.078C213.496 218.078 219.043 215.78 223.133 211.69C227.223 207.6 229.52 202.054 229.52 196.27C229.52 190.486 227.223 184.939 223.133 180.849C219.043 176.76 213.496 174.462 207.712 174.462C201.929 174.462 196.382 176.76 192.292 180.849C188.202 184.939 185.905 190.486 185.905 196.27C185.905 202.054 188.202 207.6 192.292 211.69C196.382 215.78 201.929 218.078 207.712 218.078ZM273.136 218.078C278.919 218.078 284.466 215.78 288.556 211.69C292.646 207.6 294.943 202.054 294.943 196.27C294.943 190.486 292.646 184.939 288.556 180.849C284.466 176.76 278.919 174.462 273.136 174.462C267.352 174.462 261.805 176.76 257.715 180.849C253.625 184.939 251.328 190.486 251.328 196.27C251.328 202.054 253.625 207.6 257.715 211.69C261.805 215.78 267.352 218.078 273.136 218.078ZM76.8663 283.501C82.65 283.501 88.1969 281.203 92.2866 277.113C96.3764 273.024 98.674 267.477 98.674 261.693C98.674 255.909 96.3764 250.362 92.2866 246.273C88.1969 242.183 82.65 239.885 76.8663 239.885C71.0825 239.885 65.5357 242.183 61.4459 246.273C57.3562 250.362 55.0586 255.909 55.0586 261.693C55.0586 267.477 57.3562 273.024 61.4459 277.113C65.5357 281.203 71.0825 283.501 76.8663 283.501ZM142.289 283.501C148.073 283.501 153.62 281.203 157.71 277.113C161.799 273.024 164.097 267.477 164.097 261.693C164.097 255.909 161.799 250.362 157.71 246.273C153.62 242.183 148.073 239.885 142.289 239.885C136.506 239.885 130.959 242.183 126.869 246.273C122.779 250.362 120.482 255.909 120.482 261.693C120.482 267.477 122.779 273.024 126.869 277.113C130.959 281.203 136.506 283.501 142.289 283.501ZM207.712 283.501C213.496 283.501 219.043 281.203 223.133 277.113C227.223 273.024 229.52 267.477 229.52 261.693C229.52 255.909 227.223 250.362 223.133 246.273C219.043 242.183 213.496 239.885 207.712 239.885C201.929 239.885 196.382 242.183 192.292 246.273C188.202 250.362 185.905 255.909 185.905 261.693C185.905 267.477 188.202 273.024 192.292 277.113C196.382 281.203 201.929 283.501 207.712 283.501Z" fill="#8fa7bd"/>
</svg>
