<svg width="30" height="30" viewBox="0 0 30 30" fill="none" xmlns="http://www.w3.org/2000/svg">
<path d="M0 15.0004C0 23.2853 6.7152 30.0002 14.9998 30C23.2848 30.0002 30 23.2853 30 15.0004C30.0005 6.71543 23.2848 0 14.9998 0C6.7152 0 0 6.71566 0 15.0004Z" fill="#333333"/>
<path opacity="0.55" d="M29.9995 14.9729C29.9995 14.8733 24.9085 9.61105 24.9085 9.61105C23.9249 8.63106 22.9412 7.65119 21.9575 6.6712C21.7965 6.51064 21.5356 6.51064 21.3744 6.6712L11.3572 16.6508C10.5181 15.8266 9.69061 14.9904 8.85744 14.1603L8.76226 14.0654C8.60111 13.9049 8.34016 13.9049 8.17913 14.0654L5.29269 16.9411C5.1316 17.1016 5.1316 17.3615 5.29269 17.5221L17.4435 29.6282L17.4696 29.6542C24.5742 28.5098 29.9995 22.3744 29.9995 14.9729Z" fill="black"/>
<mask id="path-3-inside-1_866_4016" fill="white">
<path d="M24.7071 9.55629L21.8407 6.67153C21.6808 6.51053 21.4217 6.51053 21.2617 6.67153L11.3141 16.6825L8.73722 14.0891C8.57724 13.9281 8.31817 13.9281 8.1582 14.0891L5.29185 16.9739C5.13188 17.1349 5.13188 17.3956 5.29185 17.5566L11.0246 23.3266C11.1014 23.4039 11.2054 23.4473 11.3141 23.4473C11.4229 23.4473 11.5268 23.4038 11.6036 23.3266L24.707 10.139C24.867 9.97803 24.867 9.71729 24.7071 9.55629ZM11.3141 22.4526L6.16041 17.2653L8.44774 14.9633L11.0246 17.5567C11.1846 17.7177 11.4437 17.7177 11.6036 17.5567L21.5511 7.54566L23.8385 9.84769L11.3141 22.4526Z"/>
</mask>
<path d="M24.7071 9.55629L21.8407 6.67153C21.6808 6.51053 21.4217 6.51053 21.2617 6.67153L11.3141 16.6825L8.73722 14.0891C8.57724 13.9281 8.31817 13.9281 8.1582 14.0891L5.29185 16.9739C5.13188 17.1349 5.13188 17.3956 5.29185 17.5566L11.0246 23.3266C11.1014 23.4039 11.2054 23.4473 11.3141 23.4473C11.4229 23.4473 11.5268 23.4038 11.6036 23.3266L24.707 10.139C24.867 9.97803 24.867 9.71729 24.7071 9.55629ZM11.3141 22.4526L6.16041 17.2653L8.44774 14.9633L11.0246 17.5567C11.1846 17.7177 11.4437 17.7177 11.6036 17.5567L21.5511 7.54566L23.8385 9.84769L11.3141 22.4526Z" fill="#F4F6F9"/>
<path d="M24.7071 9.55629L23.9977 10.2611L23.9977 10.2611L24.7071 9.55629ZM21.8407 6.67153L22.5501 5.96669L22.5501 5.96669L21.8407 6.67153ZM21.2617 6.67153L21.9711 7.37639L21.9711 7.37637L21.2617 6.67153ZM11.3141 16.6825L10.6047 17.3874L11.3141 18.1013L12.0234 17.3874L11.3141 16.6825ZM8.73722 14.0891L8.02785 14.794L8.02785 14.794L8.73722 14.0891ZM8.1582 14.0891L8.86757 14.794L8.86757 14.794L8.1582 14.0891ZM5.29185 16.9739L4.58249 16.269L4.58249 16.269L5.29185 16.9739ZM5.29185 17.5566L6.00125 16.8518L6.00122 16.8518L5.29185 17.5566ZM11.0246 23.3266L10.3152 24.0314L10.3152 24.0314L11.0246 23.3266ZM11.6036 23.3266L12.3129 24.0314L12.3129 24.0314L11.6036 23.3266ZM24.707 10.139L23.9979 9.43388L23.9976 9.43413L24.707 10.139ZM11.3141 22.4526L10.6047 23.1574L11.3141 23.8714L12.0235 23.1574L11.3141 22.4526ZM6.16041 17.2653L5.45104 16.5605L4.75073 17.2653L5.45101 17.9701L6.16041 17.2653ZM8.44774 14.9633L9.15711 14.2585L8.44774 13.5445L7.73837 14.2585L8.44774 14.9633ZM11.0246 17.5567L10.3152 18.2616L10.3152 18.2616L11.0246 17.5567ZM11.6036 17.5567L10.8943 16.8519L10.8943 16.8519L11.6036 17.5567ZM21.5511 7.54566L22.2605 6.84082L21.5511 6.12691L20.8418 6.84081L21.5511 7.54566ZM23.8385 9.84769L24.5478 10.5525L25.2482 9.84769L24.5478 9.14285L23.8385 9.84769ZM25.4164 8.85146L22.5501 5.96669L21.1314 7.37637L23.9977 10.2611L25.4164 8.85146ZM22.5501 5.96669C21.9991 5.41214 21.1034 5.41214 20.5523 5.96669L21.9711 7.37637C21.74 7.60892 21.3624 7.60892 21.1314 7.37637L22.5501 5.96669ZM20.5524 5.96667L10.6047 15.9777L12.0234 17.3874L21.9711 7.37639L20.5524 5.96667ZM12.0235 15.9777L9.44658 13.3843L8.02785 14.794L10.6047 17.3874L12.0235 15.9777ZM9.44658 13.3843C8.89558 12.8297 7.99984 12.8297 7.44883 13.3843L8.86757 14.794C8.63651 15.0265 8.25891 15.0265 8.02785 14.794L9.44658 13.3843ZM7.44883 13.3843L4.58249 16.269L6.00122 17.6787L8.86757 14.794L7.44883 13.3843ZM4.58249 16.269C4.035 16.82 4.035 17.7105 4.58249 18.2615L6.00122 16.8518C6.22876 17.0808 6.22876 17.4497 6.00122 17.6787L4.58249 16.269ZM4.58246 18.2614L10.3152 24.0314L11.734 22.6218L6.00125 16.8518L4.58246 18.2614ZM10.3152 24.0314C10.5788 24.2967 10.9377 24.4473 11.3141 24.4473V22.4473C11.4731 22.4473 11.624 22.5111 11.734 22.6218L10.3152 24.0314ZM11.3141 24.4473C11.6907 24.4473 12.0496 24.2965 12.3129 24.0314L10.8942 22.6218C11.0041 22.5112 11.155 22.4473 11.3141 22.4473V24.4473ZM12.3129 24.0314L25.4164 10.8438L23.9976 9.43413L10.8942 22.6218L12.3129 24.0314ZM25.4161 10.8441C25.9641 10.293 25.9639 9.40241 25.4164 8.85146L23.9977 10.2611C23.7702 10.0322 23.77 9.66304 23.9979 9.43388L25.4161 10.8441ZM12.0235 21.7478L6.8698 16.5605L5.45101 17.9701L10.6047 23.1574L12.0235 21.7478ZM6.86977 17.9702L9.15711 15.6681L7.73837 14.2585L5.45104 16.5605L6.86977 17.9702ZM7.73837 15.6681L10.3152 18.2616L11.734 16.8519L9.15711 14.2585L7.73837 15.6681ZM10.3152 18.2616C10.8662 18.8161 11.762 18.8161 12.313 18.2616L10.8943 16.8519C11.1253 16.6193 11.5029 16.6193 11.734 16.8519L10.3152 18.2616ZM12.313 18.2616L22.2605 8.25051L20.8418 6.84081L10.8943 16.8519L12.313 18.2616ZM20.8418 8.2505L23.1291 10.5525L24.5478 9.14285L22.2605 6.84082L20.8418 8.2505ZM23.1291 9.14285L10.6047 21.7478L12.0235 23.1574L24.5478 10.5525L23.1291 9.14285Z" fill="#F4F6F9" mask="url(#path-3-inside-1_866_4016)"/>
</svg>
