<svg width="30" height="28" viewBox="0 0 30 28" fill="none" xmlns="http://www.w3.org/2000/svg">
<path d="M2.14278 13.9297C2.14246 11.8609 2.68677 9.82834 3.721 8.03651C4.75524 6.24468 6.24294 4.75668 8.03457 3.7221C9.8262 2.68752 11.8586 2.14281 13.9275 2.14272C15.9964 2.14264 18.0288 2.6872 19.8205 3.72164C20.0665 3.86147 20.3578 3.89835 20.6308 3.82422C20.9038 3.75009 21.1365 3.57098 21.2779 3.32597C21.4194 3.08096 21.4582 2.78994 21.3859 2.51642C21.3136 2.24291 21.136 2.00909 20.8919 1.86601C18.2367 0.33304 15.1499 -0.280991 12.1102 0.119146C9.0705 0.519282 6.24775 1.91122 4.07973 4.0791C1.91172 6.24698 0.519594 9.06964 0.119263 12.1093C-0.281069 15.149 0.332763 18.2359 1.86556 20.8911C3.39836 23.5464 5.76447 25.6217 8.59693 26.7953C11.4294 27.9688 14.5699 28.1749 17.5315 27.3817C20.493 26.5884 23.1101 24.8401 24.9768 22.408C26.8435 19.9758 27.8555 16.9957 27.8559 13.9297C27.8559 13.6456 27.743 13.3731 27.5421 13.1722C27.3412 12.9712 27.0687 12.8584 26.7845 12.8584C26.5004 12.8584 26.2279 12.9712 26.0269 13.1722C25.826 13.3731 25.7131 13.6456 25.7131 13.9297C25.7131 17.0554 24.4715 20.053 22.2613 22.2631C20.0512 24.4733 17.0536 25.7149 13.928 25.7149C10.8023 25.7149 7.80473 24.4733 5.59458 22.2631C3.38443 20.053 2.14278 17.0554 2.14278 13.9297Z" fill="#333"/>
<path d="M29.6886 3.9758C29.7882 3.87619 29.8672 3.75793 29.9211 3.62778C29.975 3.49763 30.0027 3.35814 30.0027 3.21726C30.0027 3.07639 29.975 2.9369 29.9211 2.80675C29.8672 2.6766 29.7882 2.55834 29.6886 2.45873C29.5889 2.35911 29.4707 2.2801 29.3405 2.22619C29.2104 2.17228 29.0709 2.14453 28.93 2.14453C28.7891 2.14453 28.6496 2.17228 28.5195 2.22619C28.3893 2.2801 28.2711 2.35911 28.1715 2.45873L13.9307 16.7016L8.26096 11.0298C8.16135 10.9302 8.04309 10.8511 7.91294 10.7972C7.78279 10.7433 7.64329 10.7156 7.50242 10.7156C7.36155 10.7156 7.22205 10.7433 7.0919 10.7972C6.96175 10.8511 6.8435 10.9302 6.74388 11.0298C6.64427 11.1294 6.56525 11.2476 6.51134 11.3778C6.45743 11.5079 6.42969 11.6474 6.42969 11.7883C6.42969 11.9292 6.45743 12.0687 6.51134 12.1988C6.56525 12.329 6.64427 12.4472 6.74388 12.5468L13.1722 18.9751C13.2717 19.0749 13.3899 19.154 13.5201 19.2081C13.6502 19.2621 13.7898 19.2899 13.9307 19.2899C14.0716 19.2899 14.2112 19.2621 14.3413 19.2081C14.4715 19.154 14.5897 19.0749 14.6892 18.9751L29.6886 3.9758Z" fill="#333"/>
</svg>
