<svg width="348" height="343" viewBox="0 0 348 343" fill="none" xmlns="http://www.w3.org/2000/svg">
<path d="M334.013 38.9009L306.538 21.1016V21.1173C301.67 17.954 295.164 19.3547 292.013 24.2176C288.846 29.0804 290.248 35.5801 295.116 38.7435L322.591 56.4953C325.269 58.3051 326.845 61.358 326.797 64.5843V220.072C326.797 226.635 321.473 231.954 314.903 231.954C308.334 231.954 303.009 226.635 303.009 220.072V148.734C303.056 134.917 298.236 121.524 289.414 110.885C280.576 100.263 268.303 93.0547 254.708 90.521V39.8788C254.676 17.8622 236.827 0.0314247 214.788 0H67.7572C45.7178 0.0314771 27.8686 17.8622 27.8529 39.8788V265.996H27.1754C12.1619 266.09 0.0471859 278.24 0 293.222V332.503C0 335.288 1.10278 337.964 3.072 339.931C5.04123 341.898 7.71921 343 10.4919 343H272.224C274.997 343 277.675 341.898 279.644 339.931C281.614 337.964 282.716 335.289 282.716 332.503V293.222C282.701 278.177 270.492 265.965 255.415 265.949H254.706V112.052C270.98 116.742 282.197 131.614 282.212 148.532V219.87C282.212 238.015 296.942 252.73 315.106 252.73C333.286 252.73 348 238.015 348 219.87V64.5875C348.031 54.2166 342.756 44.5191 334.013 38.9009ZM116.232 232.409H88.8831C83.0857 232.409 78.3909 227.719 78.3909 221.927C78.3909 216.12 83.0857 211.43 88.8831 211.43H116.232C122.045 211.43 126.739 216.12 126.739 221.927C126.739 227.719 122.045 232.409 116.232 232.409ZM116.232 192.121H88.8831C83.0857 192.121 78.3909 187.431 78.3909 181.639C78.3909 175.832 83.0857 171.142 88.8831 171.142H116.232C122.045 171.142 126.739 175.832 126.739 181.639C126.739 187.431 122.045 192.121 116.232 192.121ZM193.818 232.409H166.438C160.64 232.409 155.93 227.719 155.93 221.927C155.93 216.12 160.64 211.43 166.438 211.43H193.834C199.631 211.43 204.326 216.12 204.326 221.927C204.326 227.719 199.631 232.409 193.834 232.409H193.818ZM193.818 192.121H166.438C160.64 192.121 155.93 187.431 155.93 181.639C155.93 175.832 160.64 171.142 166.438 171.142H193.834C199.631 171.142 204.326 175.832 204.326 181.639C204.326 187.431 199.631 192.121 193.834 192.121H193.818ZM204.326 132.696C204.326 135.481 203.223 138.157 201.254 140.124C199.285 142.091 196.607 143.193 193.834 143.193H88.8031C83.0057 143.193 78.2952 138.503 78.2952 132.696V60.854C78.2952 55.0625 83.0057 50.3569 88.8031 50.3569H193.834C196.607 50.3569 199.285 51.4742 201.254 53.4414C203.223 55.4086 204.326 58.0681 204.326 60.8536V132.696ZM99.295 71.3368H183.31L183.326 122.217H99.3108L99.295 71.3368Z" fill="#8fa7bd"/>
</svg>
