<svg width="30" height="30" viewBox="0 0 30 30" fill="none" xmlns="http://www.w3.org/2000/svg">
<path d="M25.6068 4.39365C22.8972 1.68135 19.1375 -0.000937108 15.0006 3.91632e-07C10.8634 -0.000937108 7.1032 1.68135 4.39359 4.39365C1.68176 7.10273 -0.000937109 10.863 3.91536e-07 14.9998C-0.000937109 19.1366 1.68176 22.8973 4.39359 25.6063C7.10273 28.3182 10.8634 30.0005 15.0006 30C19.137 30.0005 22.8972 28.3182 25.6068 25.6063C28.3182 22.8973 30.0009 19.1366 30 14.9998C30.0009 10.863 28.3182 7.10273 25.6068 4.39365ZM15.0002 17.6037C13.5193 17.6033 12.3193 16.4033 12.3189 14.9224C12.3193 13.4414 13.5193 12.2415 15.0002 12.241C16.4811 12.2415 17.6811 13.4414 17.6816 14.9224C17.6811 16.4033 16.4811 17.6033 15.0002 17.6037ZM23.2984 23.2979C21.4764 25.1182 19.0714 26.3372 16.3819 26.6519C16.4975 20.1976 20.378 18.0145 21.6134 17.4174C22.0724 17.1956 22.1116 16.6929 22.1116 16.6929L22.7428 12.399C22.7792 12.1526 22.7145 11.9017 22.5633 11.7036C22.4122 11.5055 22.2473 11.3375 21.7519 11.2501C21.7519 11.2501 17.9129 10.4918 15.0002 10.4918C12.0884 10.4918 8.24848 11.2501 8.24848 11.2501C7.75301 11.3375 7.58818 11.5055 7.43695 11.7036C7.28578 11.9017 7.22109 12.1526 7.25754 12.399L7.88965 16.6929C7.88965 16.6929 7.92785 17.1956 8.38693 17.4174C9.62244 18.0145 13.5028 20.1976 13.6185 26.6514C10.9285 26.3367 8.52357 25.1177 6.70154 23.2979C4.89 21.4845 3.67412 19.0919 3.35209 16.4164C3.52834 16.3194 3.78381 16.2165 4.13994 16.166C5.10176 16.0298 6.70471 15.9424 6.70471 15.9424L6.27756 12.7072C6.27756 12.7072 4.37719 13.0474 3.4541 12.9045C3.8867 10.5036 5.04434 8.36051 6.70154 6.70148C8.83049 4.57524 11.7546 3.26508 15.0006 3.26414C18.2458 3.26508 21.1695 4.57524 23.2984 6.70148C24.9555 8.36051 26.1132 10.5036 26.5458 12.9045C25.6228 13.0474 23.7237 12.7072 23.7237 12.7072L23.2956 15.9424C23.2956 15.9424 24.8987 16.0298 25.8604 16.166C26.2161 16.2165 26.4715 16.3194 26.6478 16.416C26.3263 19.092 25.1099 21.4842 23.2984 23.2979Z" fill="#333333"/>
<path d="M14.9987 13.1738C14.5146 13.1738 14.0802 13.3687 13.7623 13.6861C13.4449 14.004 13.25 14.438 13.25 14.9225C13.25 15.4066 13.4449 15.841 13.7623 16.1589C14.0802 16.4763 14.5147 16.6708 14.9987 16.6712C15.4828 16.6708 15.9172 16.4763 16.2351 16.1589C16.5525 15.841 16.747 15.4066 16.7475 14.9225C16.747 14.4379 16.5525 14.004 16.2351 13.6861C15.9172 13.3688 15.4828 13.1738 14.9987 13.1738Z" fill="#333333"/>
</svg>
