<svg width="25" height="19" viewBox="0 0 25 19" fill="none" xmlns="http://www.w3.org/2000/svg">
<path d="M0.078125 2.46208C0.235653 1.76263 0.622899 1.13812 1.17644 0.690822C1.72998 0.243523 2.41701 -4.82828e-05 3.125 7.17905e-09H21.875C22.583 -4.82828e-05 23.27 0.243523 23.8236 0.690822C24.3771 1.13812 24.7643 1.76263 24.9219 2.46208L12.5 10.1555L0.078125 2.46208ZM0 4.27025V15.5182L9.06719 9.88475L0 4.27025ZM10.5641 10.8142L0.298437 17.1902C0.552073 17.7322 0.952385 18.19 1.45278 18.5104C1.95318 18.8308 2.53309 19.0006 3.125 19H21.875C22.4668 19.0001 23.0465 18.83 23.5466 18.5093C24.0467 18.1886 24.4467 17.7307 24.7 17.1887L14.4344 10.8126L12.5 12.0112L10.5641 10.8142ZM15.9328 9.88633L25 15.5182V4.27025L15.9328 9.88633Z" fill="#8FA7BD"/>
</svg>
