<svg width="20" height="20" viewBox="0 0 20 20" fill="none" xmlns="http://www.w3.org/2000/svg">
<path d="M10 18.75C7.67936 18.75 5.45376 17.8281 3.81282 16.1872C2.17187 14.5462 1.25 12.3206 1.25 10C1.25 7.67936 2.17187 5.45376 3.81282 3.81282C5.45376 2.17187 7.67936 1.25 10 1.25C12.3206 1.25 14.5462 2.17187 16.1872 3.81282C17.8281 5.45376 18.75 7.67936 18.75 10C18.75 12.3206 17.8281 14.5462 16.1872 16.1872C14.5462 17.8281 12.3206 18.75 10 18.75ZM10 20C12.6522 20 15.1957 18.9464 17.0711 17.0711C18.9464 15.1957 20 12.6522 20 10C20 7.34784 18.9464 4.8043 17.0711 2.92893C15.1957 1.05357 12.6522 0 10 0C7.34784 0 4.8043 1.05357 2.92893 2.92893C1.05357 4.8043 0 7.34784 0 10C0 12.6522 1.05357 15.1957 2.92893 17.0711C4.8043 18.9464 7.34784 20 10 20Z" fill="#8C8C8C"/>
<path d="M8.75391 13.7484C8.75391 13.5843 8.78624 13.4217 8.84906 13.2701C8.91188 13.1184 9.00395 12.9806 9.12002 12.8646C9.2361 12.7485 9.3739 12.6564 9.52555 12.5936C9.67721 12.5308 9.83975 12.4984 10.0039 12.4984C10.1681 12.4984 10.3306 12.5308 10.4823 12.5936C10.6339 12.6564 10.7717 12.7485 10.8878 12.8646C11.0039 12.9806 11.0959 13.1184 11.1588 13.2701C11.2216 13.4217 11.2539 13.5843 11.2539 13.7484C11.2539 14.08 11.1222 14.3979 10.8878 14.6323C10.6534 14.8667 10.3354 14.9984 10.0039 14.9984C9.67239 14.9984 9.35444 14.8667 9.12002 14.6323C8.8856 14.3979 8.75391 14.08 8.75391 13.7484ZM8.87641 6.24219C8.85976 6.08449 8.87645 5.92505 8.92541 5.77422C8.97436 5.62339 9.05447 5.48454 9.16055 5.36667C9.26664 5.2488 9.39631 5.15455 9.54117 5.09004C9.68603 5.02553 9.84283 4.99219 10.0014 4.99219C10.16 4.99219 10.3168 5.02553 10.4616 5.09004C10.6065 5.15455 10.7362 5.2488 10.8423 5.36667C10.9483 5.48454 11.0285 5.62339 11.0774 5.77422C11.1264 5.92505 11.1431 6.08449 11.1264 6.24219L10.6889 10.6259C10.6742 10.7982 10.5954 10.9586 10.4681 11.0755C10.3408 11.1924 10.1742 11.2573 10.0014 11.2573C9.82857 11.2573 9.66202 11.1924 9.53471 11.0755C9.4074 10.9586 9.32861 10.7982 9.31391 10.6259L8.87641 6.24219Z" fill="#8C8C8C"/>
</svg>
