<svg width="107" height="107" viewBox="0 0 107 107" fill="none" xmlns="http://www.w3.org/2000/svg">
<path d="M53.2403 106.48C82.644 106.48 106.48 82.644 106.48 53.2402C106.48 23.8365 82.644 0 53.2403 0C23.8365 0 0 23.8365 0 53.2402C0 82.644 23.8365 106.48 53.2403 106.48Z" fill="#5F5F5F"/>
<mask id="mask0_866_3990" style="mask-type:luminance" maskUnits="userSpaceOnUse" x="0" y="0" width="107" height="107">
<path d="M53.2403 106.48C82.644 106.48 106.48 82.644 106.48 53.2402C106.48 23.8365 82.644 0 53.2403 0C23.8365 0 0 23.8365 0 53.2402C0 82.644 23.8365 106.48 53.2403 106.48Z" fill="white"/>
</mask>
<g mask="url(#mask0_866_3990)">
<path d="M32.128 106.604C32.0971 106.1 31.9729 105.605 31.998 105.096C32.0054 104.945 31.9508 104.864 31.7868 104.831C30.4583 104.56 29.4805 103.747 28.6042 102.769C27.1048 101.095 25.9585 99.227 25.3148 97.0542C24.7822 95.2563 24.2089 93.472 24.0451 91.5893C23.9589 90.5976 23.9031 89.6046 23.8773 88.6098C23.7911 85.2814 23.8126 81.9521 23.7922 78.623C23.7791 76.469 23.7587 74.3155 23.8132 72.1617C23.9087 68.4061 24.8166 64.8801 26.7376 61.633C27.3747 60.5559 28.1566 59.6037 29.1109 58.7933C30.3577 57.7342 31.6803 56.7899 33.1508 56.0601C34.4778 55.4014 35.7805 54.6911 37.1766 54.1814C37.4517 54.0809 37.7273 53.9778 38.0097 53.9022C39.4974 53.504 40.8901 52.8678 42.2517 52.1682C43.1948 51.6835 43.9495 50.9738 44.4725 50.0335C44.5907 49.8211 44.7418 49.6257 44.8896 49.4316C45.4538 48.6909 45.947 47.9049 46.4163 47.1017C46.5305 46.9064 46.563 46.7241 46.5264 46.5015C46.4311 45.922 46.3506 45.3383 46.4901 44.7531C46.5199 44.6286 46.4748 44.5315 46.4141 44.4323C45.5908 43.0846 45.2758 41.566 44.9482 40.0522C44.8655 39.6701 44.8023 39.2839 44.7263 38.9004C44.6935 38.7355 44.6652 38.6023 44.4159 38.6528C44.0287 38.7313 43.7573 38.518 43.591 38.1823C43.4757 37.9496 43.3853 37.7041 43.2924 37.461C43.1699 37.1408 43.0547 36.8123 42.8481 36.5393C42.3064 35.8235 42.21 35.0088 42.3416 34.1667C42.4613 33.4001 42.4225 32.6767 42.0632 31.9788C41.9746 31.8067 41.9199 31.6157 41.9038 31.4176C41.8676 30.9747 41.9637 30.5961 42.4258 30.4251C42.5674 30.3727 42.5846 30.3045 42.5719 30.1734C42.4765 29.1838 42.4996 28.1794 42.2911 27.2049C41.9445 25.5853 41.8552 23.9428 41.762 22.2979C41.7175 21.5133 41.732 20.7317 41.8248 19.9526C41.9268 19.0951 42.2281 18.3035 42.7149 17.5963C43.5005 16.455 44.3101 15.33 45.1166 14.2033C45.3355 13.8975 45.5971 13.6228 45.8926 13.3912C47.2469 12.3294 48.7023 11.4423 50.3344 10.8696C50.766 10.7181 51.212 10.6157 51.6632 10.5523C52.3167 10.4605 52.9685 10.4878 53.5892 10.7353C54.2999 11.0185 55.0219 11.1203 55.789 11.0432C57.4278 10.8786 58.9734 11.182 60.495 11.8554C61.8742 12.466 63.1018 13.2379 64.1903 14.2753C65.2351 15.2712 65.9047 16.4374 66.0678 17.8804C66.2695 19.665 66.4235 21.4536 66.3579 23.2517C66.3027 24.7671 66.2159 26.2806 66.0221 27.7871C65.9542 28.3155 65.9567 28.8529 65.9274 29.3805C65.9951 29.394 66.0276 29.4101 66.0564 29.4049C66.8312 29.2675 67.1802 29.5355 67.2496 30.3253C67.296 30.8543 67.2201 31.3761 67.0386 31.865C66.6984 32.7816 66.586 33.7253 66.5629 34.6934C66.5457 35.4123 66.4101 36.1174 66.184 36.8024C66.0966 37.0668 65.9839 37.3193 65.8138 37.5421C65.4737 37.9878 65.0726 38.0848 64.5653 37.8489C64.3175 37.7336 64.106 37.5618 63.856 37.3476C63.798 37.8081 63.8494 38.2115 63.7903 38.6088C63.6405 39.6134 63.3097 40.5686 63.0088 41.5316C62.9348 41.768 62.9129 41.9943 62.9245 42.2446C62.9717 43.2545 63.1169 44.2607 63.0616 45.2744C63.0512 45.4675 63.1154 45.6173 63.215 45.772C63.7005 46.5257 64.1853 47.2809 64.5947 48.0793C64.7216 48.3268 64.8986 48.4842 65.1402 48.6067C66.3488 49.219 67.601 49.7243 68.8946 50.1215C71.2757 50.8527 73.6111 51.7196 75.9791 52.4889C77.4185 52.9566 78.8817 53.3511 80.2899 53.9135C81.063 54.2223 81.8129 54.5748 82.5229 55.0123C83.6709 55.7198 84.6104 56.6406 85.2519 57.8252C86.7247 60.545 87.911 63.3783 88.4895 66.4364C88.8256 68.2138 89.1813 69.9883 89.4289 71.7809C89.5806 72.8789 89.7094 73.9802 89.8381 75.0813C90.0072 76.5262 90.3143 77.9409 90.7267 79.3349C91.1815 80.8717 91.4329 82.4468 91.6229 84.0358C91.7758 85.3144 91.9794 86.5867 92.155 87.8626C92.3858 89.5379 92.3444 91.2161 92.1774 92.8926C92.0642 94.028 91.9775 95.1684 91.7302 96.2856C91.3912 97.8177 90.7522 99.2183 89.8397 100.493C89.1428 101.466 88.2219 102.129 87.0787 102.494C85.9867 102.842 84.8621 103.02 83.7325 103.178C82.1031 103.406 80.4674 103.588 78.8425 103.851C78.5724 103.895 78.5053 103.99 78.5121 104.256C78.5319 105.038 78.5177 105.822 78.5167 106.604C78.4514 106.604 78.3863 106.604 78.321 106.604C78.0704 106.124 78.0948 105.599 78.0734 105.081C78.0667 104.918 78.0657 104.755 78.0721 104.592C78.0855 104.255 77.9217 104.167 77.6131 104.227C76.8296 104.38 76.0381 104.482 75.2476 104.591C73.5365 104.827 71.8085 104.845 70.092 105.003C68.2241 105.175 66.3543 105.24 64.4837 105.176C63.3453 105.137 62.208 105.079 61.0685 105.091C60.499 105.098 60.4787 105.128 60.4621 105.709C60.4533 106.013 60.5301 106.334 60.3135 106.604C60.2155 106.604 60.1177 106.604 60.0199 106.604C59.7956 106.317 59.8877 105.978 59.8743 105.659C59.8525 105.143 59.821 105.095 59.3125 105.09C58.4482 105.082 57.5839 105.084 56.7196 105.088C54.5292 105.099 52.3981 104.768 50.3517 103.969C49.9141 103.799 49.5155 103.794 49.0797 103.983C47.8122 104.533 46.4417 104.534 45.1007 104.69C41.436 105.115 37.7574 105.229 34.0717 105.186C33.6805 105.182 33.2883 105.196 32.9009 105.125C32.5881 105.066 32.4553 105.176 32.4595 105.512C32.4641 105.878 32.5671 106.266 32.3236 106.605C32.2584 106.604 32.1932 106.604 32.128 106.604Z" fill="#010001"/>
<path d="M32.3231 106.605C32.3848 106.069 32.2945 105.535 32.2812 105.008C32.3355 104.946 32.3985 104.938 32.4647 104.944C34.8407 105.132 37.2155 105.054 39.5937 104.967C42.0876 104.875 44.562 104.588 47.0417 104.35C47.8587 104.272 48.6357 104.029 49.389 103.712C49.6095 103.62 49.7911 103.62 50.0298 103.711C52.0066 104.468 54.0475 104.913 56.1747 104.938C57.3317 104.951 58.488 104.976 59.6447 104.926C60.0174 104.91 60.0216 104.921 60.0234 105.285C60.0256 105.725 60.021 106.165 60.0194 106.605C50.7874 106.605 41.5553 106.605 32.3231 106.605Z" fill="#BDCBD6"/>
<path d="M60.3164 106.603C60.3193 106.13 60.3301 105.658 60.3217 105.185C60.318 104.975 60.3922 104.896 60.6028 104.899C61.5969 104.915 62.5913 104.908 63.584 104.984C65.1793 105.106 66.774 105.107 68.3703 104.979C69.8484 104.86 71.3278 104.752 72.8085 104.674C74.5538 104.581 76.273 104.307 77.99 104.006C78.0537 103.994 78.118 103.988 78.177 103.98C78.2927 104.098 78.2465 104.235 78.2381 104.358C78.1866 105.11 78.3119 105.854 78.3239 106.603C72.3215 106.603 66.319 106.603 60.3164 106.603Z" fill="#BDCBD6"/>
<path d="M79.7082 103.23C79.9913 101.68 79.9802 100.148 79.6776 98.666C79.1208 95.9408 77.9186 93.5229 75.8007 91.6376C75.35 91.2365 74.8751 90.8625 74.4258 90.46C74.1195 90.1857 74.1296 90.1542 74.46 89.929C74.851 89.6624 75.2308 89.3822 75.5968 89.0814C76.421 88.4041 76.6844 87.5383 76.5196 86.5036C76.3746 85.5937 76.0584 84.7405 75.7182 83.8924C75.3544 82.9851 74.9625 82.0873 74.7825 81.1176C74.4895 79.5385 74.5078 77.9704 74.9509 76.4186C75.2731 75.2903 75.6119 74.167 76.0099 73.0626C76.4833 71.7489 76.7251 70.3852 76.8437 69.0019C76.9416 67.8593 77.1177 66.7388 77.476 65.6468C77.637 65.1562 77.8188 64.6662 77.8578 64.1093C77.6357 64.158 77.6074 64.3362 77.5566 64.4661C77.0032 65.8829 76.5708 67.3259 76.462 68.8599C76.3544 70.3762 76.0655 71.8623 75.5602 73.3043C75.2209 74.2727 74.9171 75.2541 74.6149 76.235C74.1148 77.8584 74.0993 79.5112 74.3645 81.1738C74.4015 81.4059 74.4035 81.5136 74.1215 81.5649C73.4302 81.6906 72.8025 82.0269 72.1305 82.2267C70.7542 82.6359 69.3426 82.8918 67.9479 83.22C66.0573 83.6648 64.2303 84.3123 62.3842 84.9012C61.1739 85.2872 59.953 85.6394 58.7029 85.879C58.1876 85.9778 58.181 85.9837 58.1576 85.4817C58.0908 84.0479 58.0313 82.6139 57.9681 81.1799C57.8696 78.9432 57.5873 76.7289 57.1442 74.5353C56.7952 72.808 56.5278 71.0682 56.305 69.3208C56.2101 68.5768 56.0964 67.8351 56.0089 67.0904C55.8745 65.9442 55.9982 64.8099 56.218 63.6854C56.4057 62.7258 56.5737 61.7591 56.8309 60.8177C57.0443 60.0374 57.3978 59.2991 57.8276 58.6064C58.2759 57.8841 58.7875 57.2082 59.3449 56.5667C59.4301 56.4686 59.5096 56.3718 59.6371 56.3156C61.1213 55.6607 62.6321 55.4592 64.2029 55.9944C65.3589 56.3884 66.5138 56.7848 67.6607 57.2048C68.1338 57.3781 68.6118 57.5515 69.1273 57.5518C69.5848 57.5521 69.7216 57.3809 69.5738 56.9394C69.4656 56.6162 69.3232 56.3018 69.168 55.9976C68.5678 54.8215 67.9615 53.6485 67.3474 52.4798C66.9067 51.6412 66.3868 50.8511 65.8377 50.0796C65.5839 49.7231 65.3462 49.3554 65.1073 49.002C65.1708 48.9275 65.2184 48.9373 65.2616 48.9594C66.8638 49.7782 68.5581 50.3582 70.2726 50.8829C72.2357 51.4838 74.14 52.2542 76.0921 52.8861C77.564 53.3625 79.047 53.8071 80.472 54.4162C81.6779 54.9317 82.8198 55.5513 83.7551 56.4968C84.2992 57.0469 84.7396 57.6728 85.0862 58.361C86.4838 61.1372 87.6435 63.9969 88.2081 67.0756C88.6021 69.2245 89.0118 71.3704 89.2494 73.5435C89.3895 74.8242 89.5026 76.1083 89.7677 77.371C89.8948 77.9768 90.032 78.5822 90.2022 79.1769C90.6568 80.765 90.9778 82.3771 91.1181 84.0232C91.222 85.243 91.4221 86.4503 91.5702 87.6644C91.787 89.4403 91.7608 91.2145 91.5868 92.9891C91.4772 94.1084 91.3984 95.233 91.1477 96.3338C90.8437 97.6683 90.2972 98.8988 89.5386 100.036C88.8617 101.05 87.9441 101.738 86.774 102.099C85.8981 102.369 85.0013 102.53 84.099 102.663C82.6966 102.869 81.2911 103.055 79.8868 103.248C79.8424 103.254 79.7948 103.239 79.7082 103.23Z" fill="#BDCBD6"/>
<path d="M32.5083 87.2405C32.9199 87.6517 33.4584 87.8553 33.9522 88.1342C34.5789 88.4883 35.231 88.658 35.9577 88.5976C36.4725 88.5548 36.9938 88.5893 37.4983 88.5893C37.2709 90.8209 37.0085 93.011 36.2709 95.1282C35.5098 97.3125 35.1785 99.5893 35.1478 101.905C35.1358 102.817 35.1037 103.732 35.5874 104.616C35.263 104.616 34.9942 104.625 34.7259 104.615C33.928 104.584 33.13 104.554 32.337 104.447C31.2452 104.299 30.3135 103.823 29.5522 103.039C28.0849 101.528 26.8528 99.8541 26.13 97.8508C25.5157 96.1483 24.9326 94.4346 24.6427 92.6398C24.4133 91.2197 24.3335 89.7848 24.3039 88.3497C24.2035 83.4874 24.1265 78.6242 24.1482 73.7607C24.1587 71.4247 24.356 69.099 24.9847 66.8336C25.5293 64.8719 26.3726 63.0398 27.4512 61.3169C27.9122 60.5807 28.475 59.923 29.1228 59.3431C30.2687 58.3172 31.4921 57.395 32.8515 56.67C33.8146 56.1564 34.7923 55.6698 35.7707 55.186C36.6783 54.737 37.6292 54.397 38.6016 54.117C40.0352 53.7041 41.3489 53.0114 42.6777 52.3558C43.0753 52.1596 43.3998 51.856 43.7118 51.5421C43.8122 51.4411 43.8783 51.2974 44.0612 51.25C43.6965 53.1159 43.5246 55.0042 42.9588 56.8162C42.925 56.9245 42.8928 57.0362 42.883 57.1484C42.8575 57.4421 42.9515 57.5779 43.2417 57.6296C43.4655 57.6693 43.6964 57.6935 43.9232 57.6882C45.0974 57.6607 46.2669 57.5927 47.4151 57.3104C48.337 57.0837 49.1535 56.6622 49.8586 56.0312C50.3561 55.586 50.8374 55.1228 51.3233 54.6701C51.3844 54.6469 51.4185 54.6892 51.4465 54.7226C52.3751 55.8282 53.4795 56.7465 54.5772 57.6721C55.051 58.0717 55.535 58.4619 55.9294 58.945C56.094 59.1466 56.2465 59.3594 56.3898 59.5769C56.6246 59.9334 56.6656 60.2927 56.5433 60.7283C56.1463 62.1409 55.8492 63.5797 55.6487 65.0334C55.5075 66.0571 55.5785 67.0881 55.7342 68.1069C55.9655 69.6221 56.1144 71.149 56.3906 72.6577C56.6401 74.0207 56.9035 75.3815 57.1257 76.749C57.3796 78.3114 57.5138 79.8865 57.5902 81.4692C57.6577 82.8706 57.6429 84.2752 57.7619 85.6744C57.7937 86.0475 57.7855 86.0565 57.4279 86.113C55.5285 86.4137 53.6263 86.6941 51.7155 86.9111C49.8531 87.1226 47.9982 87.3881 46.1441 87.6601C45.6466 87.7331 45.1409 87.7522 44.6518 87.8817C44.3464 87.914 44.3363 87.6542 44.2702 87.4736C44.0118 86.7686 43.8649 86.0288 43.6079 85.3224C43.0901 83.8991 42.3955 82.5777 41.3836 81.4389C41.1594 81.1865 41.0463 80.8975 40.9838 80.5648C40.5706 78.3707 39.7781 76.2991 38.9173 74.2507C38.3205 72.8305 37.8574 71.3762 37.7679 69.8257C37.8654 71.6606 38.3886 73.3866 39.1191 75.0592C39.7272 76.4518 40.2433 77.8774 40.6445 79.3438C40.6833 79.4856 40.7286 79.627 40.7448 79.7724C40.7692 79.9914 40.9442 80.29 40.7342 80.4122C40.4898 80.5545 40.3769 80.2142 40.2262 80.0694C39.2363 79.1184 38.2009 78.2231 37.0347 77.4936C36.4931 77.1548 35.9095 76.902 35.2703 76.7992C34.8578 76.7329 34.4583 76.7599 34.0748 76.9389C33.5502 77.1837 33.4145 77.447 33.5216 78.0198C33.5986 78.4317 33.5025 78.5243 33.077 78.402C32.5901 78.2619 32.1065 78.121 31.5924 78.1362C30.5865 78.166 30.1619 78.9133 30.6719 79.7755C30.8632 80.0987 31.0962 80.3924 31.4025 80.6218C31.4921 80.6887 31.5829 80.7854 31.5429 80.9103C31.502 81.0381 31.3695 81.0443 31.2573 81.0594C31.0955 81.0812 30.9317 81.0716 30.7689 81.0809C30.3806 81.1034 30.0765 81.2715 29.8991 81.6201C29.7174 81.9778 29.9463 82.2592 30.1412 82.5079C30.6307 83.1325 31.2799 83.5729 31.9451 83.9916C32.2174 84.1629 32.5404 84.2667 32.736 84.5487C32.7525 84.6346 32.7106 84.6903 32.6416 84.732C32.4404 84.8168 32.2267 84.7807 32.0179 84.7935C31.4722 84.8269 31.2715 85.1094 31.4328 85.6433C31.5718 86.1033 31.8636 86.4735 32.1729 86.8293C32.2896 86.9628 32.44 87.068 32.5083 87.2405Z" fill="#BDCBD6"/>
<path d="M61.8678 43.9155C61.2496 44.9817 60.4427 45.894 59.5859 46.7716C58.2043 48.1869 56.5005 48.7036 54.5727 48.6616C53.2483 48.6329 51.9845 48.3144 50.7803 47.8065C49.1021 47.0989 47.7887 45.9387 46.777 44.4109C45.9905 43.2234 45.6701 41.8843 45.3513 40.5362C45.2013 39.902 45.0802 39.2608 44.9292 38.6268C44.8892 38.4588 44.8895 38.3143 44.9549 38.1566C45.0625 37.8973 45.1035 37.6272 45.0382 37.3281C44.8408 37.3948 44.8934 37.5672 44.8492 37.6902C44.7523 37.9603 44.7239 38.3082 44.369 38.3616C43.9861 38.4192 43.8272 38.1014 43.7004 37.8221C43.3977 37.1551 43.1271 36.4747 42.8001 35.817C42.531 35.2757 42.5455 34.6745 42.6428 34.0874C42.7528 33.4229 42.674 32.7906 42.4054 32.1751C42.3081 31.9517 42.2298 31.7193 42.1554 31.487C42.0924 31.2902 42.1317 31.0964 42.2327 30.9207C42.3908 30.6456 42.6266 30.6063 42.8796 30.8091C43.2909 31.1387 43.5118 31.5929 43.6765 32.0756C43.8501 32.5844 44.0015 33.1008 44.1648 33.6131C44.2085 33.7498 44.2604 33.8839 44.3268 34.0704C44.5064 33.8589 44.4507 33.6653 44.4102 33.4967C44.3118 33.0859 44.3621 32.6958 44.4707 32.2934C44.9753 30.4245 45.0195 28.5288 44.785 26.6157C44.666 25.6456 44.5446 24.6772 44.6339 23.69C44.7304 22.6219 45.1299 21.7092 45.8433 20.9207C46.8766 19.7786 48.1806 19.1107 49.6573 18.7636C51.3472 18.3664 53.0631 18.1344 54.7988 18.2688C57.3096 18.4632 59.6483 19.225 61.7842 20.5751C62.2411 20.864 62.6463 21.218 62.9945 21.6352C63.7316 22.5186 63.9722 23.5337 63.7902 24.6566C63.6779 25.3494 63.4888 26.026 63.2961 26.6989C62.9647 27.8569 62.9821 28.9791 63.5061 30.0832C63.8058 30.7147 63.7911 31.4173 63.9008 32.0911C63.9139 32.1714 63.9127 32.2539 63.9214 32.335C63.9305 32.4177 63.9484 32.5024 64.042 32.5271C64.1641 32.5593 64.2205 32.4737 64.2575 32.3798C64.3472 32.1524 64.4293 31.9222 64.5172 31.6942C64.6758 31.2832 64.8638 30.8866 65.0657 30.4945C65.2774 30.0834 65.621 29.8673 66.0409 29.7428C66.5831 29.5821 66.8395 29.735 66.9447 30.2985C67.008 30.6375 66.9993 30.9832 66.9257 31.3207C66.8635 31.6067 66.7872 31.8908 66.6981 32.1695C66.4827 32.8427 66.3784 33.5299 66.3645 34.2368C66.3486 35.0382 66.2315 35.8272 65.9872 36.5938C65.8976 36.8746 65.7884 37.1474 65.6043 37.3811C65.3219 37.7394 65.0285 37.8042 64.6169 37.6074C64.4077 37.5073 64.2317 37.3628 64.0788 37.1908C63.9398 37.0344 63.7658 36.9113 63.6813 36.7182C63.4797 36.7964 63.5143 36.9538 63.5305 37.0636C63.7353 38.4531 63.3263 39.744 62.9133 41.0361C62.755 41.5316 62.6082 42.0308 62.4561 42.5283C62.3812 43.042 62.2661 43.5389 61.8678 43.9155Z" fill="#EDB290"/>
<path d="M74.4926 81.8418C74.8674 83.1884 75.5447 84.4292 75.919 85.7824C76.0453 86.2389 76.1415 86.6991 76.1395 87.1764C76.1382 87.442 76.0461 87.6261 75.8014 87.771C74.9869 88.2532 74.1588 88.7066 73.2823 89.0651C72.0143 89.5839 70.7845 90.1817 69.5763 90.8259C69.1299 91.0641 68.6876 91.3117 68.2865 91.6195C66.7143 92.8263 64.9785 93.7617 63.2396 94.6931C61.6878 95.5242 60.1457 96.3714 58.6724 97.3386C57.5093 98.1022 56.4636 99.0121 55.4247 99.9295C54.0417 101.151 52.5232 102.139 50.7638 102.732C50.4246 102.847 50.0883 102.975 49.7624 103.122C48.5134 103.687 47.1974 103.924 45.8381 104.048C43.4201 104.27 41.0045 104.5 38.5756 104.574C37.8593 104.596 37.1428 104.634 36.4258 104.648C35.9821 104.658 35.9866 104.648 35.8622 104.242C35.6109 103.421 35.5354 102.58 35.5645 101.727C35.6423 99.4354 35.9388 97.1804 36.6787 94.9971C36.8773 94.4113 37.0455 93.8143 37.2078 93.2171C37.5041 92.1262 37.6083 91.0056 37.6991 89.8834C37.7254 89.5587 37.7785 89.2362 37.8043 88.9114C37.8253 88.6485 37.9444 88.5621 38.2117 88.5609C39.1407 88.5572 40.0696 88.5199 40.9988 88.5067C43.0077 88.4781 44.9998 88.255 46.9835 87.9645C48.8375 87.6932 50.6956 87.4533 52.5554 87.231C56.7054 86.7347 60.7974 86.0003 64.7564 84.601C66.5677 83.9607 68.4453 83.5229 70.3269 83.128C71.6068 82.8594 72.8543 82.4993 74.0561 81.9817C74.187 81.9257 74.311 81.8421 74.4926 81.8418Z" fill="#EDB290"/>
<path d="M75.3973 88.6975C75.0273 89.0954 74.5678 89.3763 74.1232 89.6776C73.6656 89.9876 73.6328 90.2109 73.9931 90.6275C74.2606 90.9371 74.5769 91.1984 74.9002 91.4455C77.2242 93.2226 78.4896 95.6539 79.219 98.4184C79.3402 98.8777 79.3969 99.3469 79.4036 99.8211C79.4126 100.457 79.4082 101.094 79.4209 101.73C79.4299 102.19 79.3525 102.638 79.2812 103.089C79.2508 103.281 79.1735 103.357 78.9769 103.391C77.7887 103.591 76.6004 103.79 75.407 103.96C73.5963 104.218 71.7703 104.253 69.9497 104.372C68.3394 104.477 66.7319 104.616 65.1151 104.564C64.5118 104.544 63.9112 104.495 63.3093 104.46C61.7949 104.372 60.2818 104.373 58.7641 104.433C56.6932 104.513 54.6245 104.45 52.592 103.963C51.8979 103.797 51.2288 103.554 50.5391 103.339C50.6616 103.155 50.8545 103.14 51.0164 103.082C52.6501 102.501 54.1318 101.642 55.3996 100.471C57.7324 98.3168 60.3759 96.636 63.1663 95.1594C65.0396 94.1681 66.8734 93.1149 68.595 91.866C69.7319 91.0413 71.0217 90.4672 72.2991 89.892C73.2634 89.4577 74.2489 89.0701 75.1898 88.5836C75.3155 88.5185 75.4073 88.5153 75.3973 88.6975Z" fill="#EDB290"/>
<path d="M44.0774 32.2577C43.878 31.5947 43.6318 30.9583 43.0401 30.5342C42.9147 30.4443 42.898 30.333 42.8932 30.1972C42.8355 28.5522 42.6043 26.9274 42.3345 25.306C42.2464 24.7771 42.2828 24.2348 42.2314 23.6981C42.149 22.8401 42.1352 21.9744 42.1185 21.1115C42.0941 19.8389 42.4143 18.6636 43.16 17.616C43.9061 16.5678 44.6257 15.5 45.3951 14.4692C45.825 13.8935 46.3787 13.4301 46.9859 13.0348C48.0663 12.3313 49.1574 11.6488 50.391 11.2413C50.916 11.0679 51.4518 10.9345 52.0107 10.9084C52.5716 10.8822 53.1144 10.9366 53.639 11.1519C54.1745 11.3716 54.7343 11.4467 55.3131 11.4231C55.8343 11.4019 56.3568 11.4145 56.8781 11.3966C57.889 11.3619 58.85 11.5635 59.7764 11.9634C60.883 12.4411 62.0111 12.8767 62.953 13.6616C63.5532 14.1618 64.1683 14.6441 64.6511 15.2713C65.2558 16.0568 65.5562 16.9553 65.6922 17.9226C66.0295 20.3202 66.0609 22.7335 65.9593 25.1428C65.9019 26.506 65.7972 27.8705 65.7036 29.2339C65.6955 29.3511 65.6911 29.4634 65.5677 29.5245C64.9918 29.8098 64.7852 30.3732 64.5377 30.9034C64.4431 31.1062 64.3661 31.317 64.2475 31.6058C64.1722 30.7999 63.9907 30.1176 63.7151 29.4521C63.4078 28.7096 63.393 27.9437 63.589 27.1547C63.7888 26.3505 64.0112 25.5514 64.1558 24.7323C64.4552 23.0371 63.8831 21.6786 62.5732 20.6275C61.2429 19.5601 59.6774 18.9557 58.0649 18.4592C56.3313 17.9253 54.5537 17.7409 52.7562 17.889C50.9395 18.0389 49.1248 18.2632 47.4802 19.1515C46.4914 19.6855 45.6555 20.3961 45.0196 21.3365C44.5687 22.0034 44.3252 22.7417 44.2718 23.5305C44.2056 24.5067 44.2481 25.4826 44.4194 26.452C44.4983 26.8991 44.5017 27.3591 44.5628 27.81C44.6708 28.6069 44.5816 29.4013 44.5513 30.1961C44.5272 30.8313 44.41 31.4554 44.2553 32.0717C44.1723 32.1107 44.2677 32.3212 44.0774 32.2577Z" fill="#504847"/>
<path d="M62.5801 42.7598C62.6508 42.8198 62.6444 42.9032 62.649 42.9837C62.7251 44.3372 62.7196 45.6905 62.6239 47.0428C62.5445 48.1644 62.5276 49.2918 62.2845 50.3977C62.2002 50.7815 62.1063 51.1634 61.9433 51.5176C61.2066 53.1194 60.4323 54.7003 59.2777 56.0577C58.3673 57.1279 57.5082 58.2341 56.912 59.52C56.9006 59.5447 56.8641 59.5578 56.8218 59.5893C56.3963 58.7744 55.7379 58.1659 55.0537 57.5819C53.85 56.5544 52.6504 55.5245 51.618 54.3143C51.0869 53.6917 50.5919 53.0472 50.1783 52.3414C49.7653 51.6369 49.3092 50.9621 48.8142 50.3126C48.2796 49.6112 47.7966 48.8751 47.3754 48.0998C46.887 47.2006 46.758 46.2212 46.75 45.2169C46.7499 45.1919 46.78 45.1668 46.796 45.1417C46.8253 45.1459 46.8686 45.1389 46.8818 45.1556C48.4082 47.0952 50.3889 48.2739 52.8039 48.7668C54.4025 49.0931 55.9706 49.1127 57.523 48.5506C58.2082 48.3025 58.8202 47.9364 59.3495 47.4412C60.3061 46.546 61.1568 45.5601 61.836 44.4342C61.8941 44.3379 61.9322 44.2297 61.9796 44.127C62.1338 43.6511 62.2245 43.1472 62.5801 42.7598Z" fill="#EDB290"/>
<path d="M42.4589 88.0823C41.3289 88.0805 40.201 88.1451 39.0728 88.1994C38.5785 88.2534 38.0658 88.3786 37.7216 87.8506C37.6838 87.8189 37.6489 87.7842 37.6151 87.7484C37.5796 87.7155 37.5462 87.6801 37.5129 87.6449C37.0702 87.2251 36.546 86.9294 36.0121 86.646C35.2344 86.2332 34.4677 85.8018 33.7994 85.2188C33.2182 84.7116 32.5491 84.3372 31.889 83.9492C31.2657 83.5828 30.7036 83.1389 30.2365 82.5868C30.0052 82.3135 29.7613 82.0049 29.9413 81.6169C30.1105 81.252 30.4686 81.1572 30.8396 81.1226C31.7003 81.0424 32.486 81.322 33.2439 81.6698C35.1198 82.5309 36.8777 83.5865 38.4116 84.981C39.0033 85.519 39.5025 86.1453 39.9579 86.8041C40.1034 87.0146 40.238 87.2329 40.3962 87.4347C39.7204 86.067 38.6627 85.0276 37.4653 84.1375C35.9056 82.978 34.2532 81.9745 32.4251 81.2675C31.6754 80.9775 31.0504 80.4512 30.6571 79.7155C30.2422 78.9395 30.6096 78.2724 31.4885 78.1874C32.2147 78.1171 32.8711 78.3763 33.5166 78.6511C36.647 79.9836 39.224 82.0193 41.2361 84.7663C41.3492 84.8897 41.4576 85.0172 41.5282 85.1672C41.5263 85.1635 41.5406 85.1433 41.537 85.1401C41.4416 84.9939 41.3351 84.8619 41.2253 84.7316C39.505 82.3225 37.3086 80.4703 34.6772 79.1304C34.2922 78.9344 33.9481 78.7183 33.7238 78.3275C33.315 77.6157 33.6295 76.9985 34.453 76.9062C35.3567 76.8051 36.1677 77.0686 36.915 77.5384C39.1873 78.9665 41.0455 80.8244 42.4625 83.0982C43.1024 84.1247 43.4675 85.2878 43.7836 86.4565C43.8817 86.8191 43.9848 87.1783 44.1763 87.507C44.3227 87.7579 44.3729 87.8974 43.9559 87.9666C43.4548 88.0498 42.9517 87.981 42.4589 88.0823Z" fill="#EDB290"/>
<path d="M46.6231 47.1895C47.0567 48.4391 47.7409 49.4441 48.4504 50.43C49.0121 51.2104 49.5618 51.9963 50.0364 52.8338C50.2937 53.2878 50.5967 53.712 50.9243 54.1187C51.1598 54.4108 51.1581 54.415 50.8697 54.6843C50.5483 54.9844 50.2181 55.275 49.9017 55.5803C49.0948 56.3587 48.1512 56.856 47.044 57.0659C45.887 57.2854 44.7243 57.3904 43.5489 57.3507C43.164 57.3377 43.1287 57.2967 43.2364 56.9503C43.7558 55.2799 43.9542 53.5459 44.265 51.8342C44.3609 51.3064 44.4469 50.7752 44.6838 50.2856C44.7332 50.1833 44.7776 50.0749 44.8461 49.986C45.5025 49.1334 46.0709 48.2242 46.6231 47.1895Z" fill="#BDCBD6"/>
<path d="M60.0898 55.6219C60.6794 54.8692 61.0445 53.9962 61.5164 53.1854C62.5324 51.4391 62.8611 49.5328 62.9511 47.5581C62.969 47.167 62.9836 46.7757 63.0033 46.3846C63.0057 46.3387 63.0302 46.2938 63.0465 46.2422C63.1921 46.2582 63.2067 46.3869 63.2596 46.4721C63.6546 47.1097 64.0282 47.7593 64.3693 48.428C64.7033 49.083 65.0964 49.7024 65.5446 50.2856C66.2823 51.2454 66.8995 52.2794 67.4588 53.3514C67.9565 54.305 68.4735 55.2484 68.9776 56.1988C69.1302 56.4866 69.2691 56.7812 69.3612 57.0963C69.4075 57.2545 69.3294 57.326 69.1945 57.3092C68.9533 57.279 68.7119 57.2338 68.4769 57.1717C67.5615 56.9297 66.6999 56.5365 65.8144 56.2103C65.2948 56.0191 64.7765 55.8243 64.2549 55.6389C62.9972 55.1919 61.7315 55.204 60.4613 55.5856C60.369 55.6134 60.2755 55.6373 60.1819 55.6601C60.1691 55.6632 60.1522 55.6485 60.0898 55.6219Z" fill="#BDCBD6"/>
<path d="M41.2222 84.8643C40.6376 84.2073 40.1045 83.505 39.4863 82.8779C37.7383 81.1046 35.7372 79.7007 33.4357 78.7372C33.0295 78.5672 32.6113 78.4306 32.1793 78.3431C31.807 78.2676 31.4331 78.2506 31.0736 78.4027C30.6629 78.5764 30.5086 78.9246 30.6337 79.3572C30.7366 79.7126 30.9423 80.0085 31.1995 80.2592C31.6321 80.6811 32.1226 81.008 32.6907 81.2479C35.2055 82.3102 37.504 83.7069 39.3795 85.7286C39.78 86.1604 40.1278 86.6329 40.4014 87.1565C40.5048 87.3542 40.6122 87.553 40.6426 87.8148C40.4091 87.7578 40.3392 87.5849 40.2409 87.4489C39.9074 86.9865 39.6184 86.4928 39.2479 86.056C38.6329 85.3312 37.945 84.6844 37.1806 84.1223C35.8637 83.1541 34.468 82.3177 32.9615 81.6776C32.3454 81.4159 31.7129 81.202 31.0275 81.2188C30.78 81.2248 30.5383 81.2559 30.3163 81.3689C29.9699 81.5454 29.8908 81.7867 30.0588 82.1354C30.159 82.3434 30.3078 82.5165 30.4642 82.6837C30.8911 83.14 31.3884 83.5072 31.9235 83.8239C32.7091 84.2888 33.4681 84.7817 34.1725 85.3742C34.729 85.8424 35.3976 86.1744 36.0414 86.5264C36.5971 86.8302 37.17 87.1114 37.6152 87.5816C37.6376 87.6318 37.6629 87.6788 37.7263 87.6845L37.7262 87.6833C37.7509 87.7666 37.707 87.813 37.6387 87.8468C37.5923 87.8578 37.5457 87.858 37.4988 87.85C37.4305 87.831 37.3669 87.8009 37.3053 87.7663C36.1088 86.9556 34.8156 86.3061 33.5909 85.5418C33.1917 85.2926 32.7451 85.131 32.2821 85.0288C32.0458 84.9766 31.8214 84.9968 31.6668 85.2062C31.525 85.3983 31.6456 85.5793 31.7292 85.7524C31.8856 86.0762 32.0905 86.3659 32.3423 86.6247C32.474 86.76 32.6517 86.8738 32.6421 87.1012C32.5963 87.1471 32.5504 87.193 32.5046 87.2389C31.9835 86.908 31.6269 86.4327 31.3754 85.8838C31.0164 85.1008 31.3585 84.6076 32.2113 84.6475C32.34 84.6535 32.4681 84.6737 32.5964 84.6872C32.6532 84.7045 32.7125 84.6963 32.7673 84.703C32.7645 84.7021 32.7986 84.728 32.7986 84.728C32.7986 84.728 32.7991 84.6851 32.7972 84.6851C32.7588 84.6564 32.7316 84.6187 32.6995 84.5857C32.2817 84.3326 31.8564 84.0911 31.4479 83.8238C30.887 83.4566 30.359 83.044 29.9624 82.4936C29.4698 81.8102 29.6943 81.1907 30.5073 80.9731C30.8097 80.8922 31.1213 80.9078 31.4386 80.9202C31.4662 80.745 31.3048 80.7174 31.2205 80.6392C30.8332 80.2805 30.4893 79.8923 30.3519 79.3663C30.2038 78.7994 30.449 78.3219 30.9951 78.1128C31.4037 77.9562 31.8261 77.9738 32.2478 78.0489C32.6631 78.1229 33.0565 78.2784 33.4576 78.4056C33.5651 78.2661 33.435 78.1857 33.4024 78.0928C33.2216 77.5801 33.361 77.1734 33.8366 76.8859C34.3102 76.5994 34.8282 76.5902 35.3515 76.678C36.088 76.8015 36.7451 77.1256 37.3562 77.5396C38.4655 78.2915 39.4954 79.1404 40.4206 80.1134C40.5077 80.2049 40.5656 80.3321 40.7345 80.375C40.538 79.3529 40.2655 78.367 39.9047 77.4089C39.5032 76.3425 39.0699 75.2879 38.6467 74.2295C38.111 72.8902 37.7449 71.5118 37.6542 70.0654C37.6397 69.8339 37.6428 69.6168 37.7385 69.3945C37.8769 69.4922 37.865 69.6321 37.8727 69.7503C37.9684 71.2316 38.385 72.6293 38.9481 73.9923C39.6444 75.6781 40.3418 77.3644 40.7885 79.1392C40.9195 79.6598 41.0324 80.1858 41.1326 80.7133C41.1708 80.9149 41.2415 81.0841 41.3785 81.2323C42.8232 82.795 43.612 84.6913 44.1621 86.7099C44.252 87.0393 44.3654 87.3623 44.452 87.6923C44.4826 87.809 44.553 87.8486 44.6483 87.8793C44.6121 87.9361 44.5653 87.9832 44.4954 87.9852C43.8164 88.0035 43.1441 88.1604 42.4604 88.0819C43.0303 87.9327 43.6279 88.0187 44.214 87.8687C43.5438 86.6747 43.4195 85.2792 42.815 84.0526C42.5113 83.4363 42.1933 82.8375 41.7833 82.2852C40.5391 80.6094 39.0881 79.1487 37.3569 77.9745C36.8018 77.598 36.2262 77.2665 35.5707 77.0925C35.2031 76.995 34.8331 76.9699 34.4575 77.0195C34.2093 77.0523 33.9856 77.1434 33.8039 77.3209C33.6244 77.4962 33.556 77.6994 33.6622 77.9414C33.8426 78.3526 34.0884 78.6809 34.5142 78.8981C37.165 80.2496 39.4583 82.036 41.1912 84.4887C41.2471 84.5678 41.2929 84.6542 41.3435 84.737C41.3693 84.8435 41.3228 84.8797 41.2222 84.8643Z" fill="#020102"/>
<path d="M37.5089 87.7696C37.5239 87.7999 37.5483 87.8148 37.582 87.8145C37.7693 87.8696 37.9524 87.9297 38.0148 88.1818C37.5812 88.3233 37.1274 88.1651 36.6993 88.2776C36.3256 88.2748 35.95 88.248 35.5784 88.2752C35.1061 88.3096 34.6877 88.1846 34.2704 87.9798C33.7164 87.7079 33.1832 87.3997 32.6434 87.1027C32.2706 86.7412 31.8957 86.3783 31.6613 85.9067C31.5352 85.6529 31.3264 85.3744 31.5559 85.0936C31.7787 84.8211 32.0968 84.8614 32.4109 84.9366C32.9545 85.0666 33.4551 85.3012 33.9205 85.596C35.0709 86.3251 36.2975 86.9266 37.4215 87.699C37.4407 87.7349 37.47 87.7583 37.5089 87.7696Z" fill="#EDB290"/>
<path d="M62.5812 42.7568C62.4389 43.238 62.2539 43.7006 61.9806 44.1241C61.9685 44.0404 61.9587 43.9554 61.8672 43.9148C62.0632 43.4523 62.2592 42.9898 62.4553 42.5273C62.4735 42.6168 62.4848 42.7102 62.5812 42.7568Z" fill="#1C1310"/>
<path d="M36.6992 88.2764C37.0993 88.1593 37.5169 88.2326 37.9433 88.1817C37.8749 87.9822 37.6508 87.9731 37.582 87.8132C37.6305 87.77 37.6789 87.7268 37.7273 87.6836C38.0524 88.1801 38.5407 88.2503 39.075 88.1997C39.0174 88.2629 38.9434 88.2878 38.8604 88.2874C38.14 88.2841 37.4197 88.2803 36.6992 88.2764Z" fill="#1C1311"/>
<path d="M75.395 88.6971C75.3572 88.6021 75.2705 88.5959 75.1875 88.583C75.3295 88.4409 75.5134 88.3641 75.6834 88.2656C75.6952 88.2786 75.7071 88.2917 75.7191 88.3045C75.7133 88.3396 75.7019 88.3726 75.6857 88.4042C75.6214 88.5342 75.5324 88.6397 75.395 88.6971Z" fill="#BD9179"/>
<path d="M44.0746 32.2564C44.1341 32.1943 44.1935 32.1324 44.2528 32.0703C44.2513 32.1489 44.2521 32.2274 44.2476 32.3058C44.2437 32.3743 44.2096 32.436 44.1365 32.4167C44.0641 32.3975 44.0749 32.3185 44.0746 32.2564Z" fill="#2F2C2C"/>
<path d="M75.6825 88.266C75.7122 88.1914 75.7591 88.1739 75.826 88.2228C75.8094 88.2452 75.7927 88.2677 75.7761 88.2902C75.7461 88.3192 75.7103 88.3289 75.6694 88.3221C75.6592 88.3001 75.6637 88.2814 75.6825 88.266Z" fill="#614F45"/>
<path d="M75.6719 88.321C75.7075 88.3103 75.743 88.2997 75.7786 88.2891C75.7712 88.3456 75.7401 88.383 75.6875 88.4035C75.6818 88.3761 75.6765 88.3485 75.6719 88.321Z" fill="#AA8674"/>
<path d="M32.8019 84.781C32.7262 84.7666 32.6438 84.7668 32.5977 84.6875C32.632 84.6537 32.6664 84.6198 32.7008 84.5859C32.7673 84.6152 32.8339 84.6445 32.9003 84.6738C32.9285 84.7656 32.9015 84.8067 32.8019 84.781Z" fill="#7B828B"/>
<path d="M52.6319 38.9556C54.3463 38.9588 56.0469 38.8238 57.7303 38.4955C57.9726 38.4482 58.2144 38.4156 58.4546 38.4863C58.8575 38.605 58.9771 38.9281 58.7537 39.2829C58.6209 39.494 58.4277 39.6439 58.2271 39.7855C57.5822 40.2408 56.8754 40.5683 56.1176 40.7789C55.695 40.8964 55.2634 40.9814 54.8355 41.079C54.3816 41.1827 53.9257 41.1456 53.4769 41.063C52.5144 40.8859 51.5779 40.6152 50.6813 40.2173C50.443 40.1115 50.2047 40.0024 50.0116 39.8223C49.7619 39.5894 49.7629 39.3443 50.0077 39.1067C50.2385 38.8827 50.5277 38.8609 50.8267 38.8746C51.4282 38.9022 52.0301 38.9287 52.6319 38.9556Z" fill="#040203"/>
<path d="M62.0898 28.6128C61.8439 28.6838 61.6874 28.6238 61.5462 28.5499C60.1888 27.8379 58.7829 27.9645 57.3642 28.2979C57.159 28.3462 56.9569 28.4083 56.7517 28.4572C56.6585 28.4794 56.5449 28.5012 56.4996 28.3869C56.4446 28.2487 56.5481 28.1796 56.6554 28.1284C57.0836 27.9242 57.5405 27.8081 58.0008 27.7093C58.8501 27.527 59.7063 27.4527 60.5613 27.661C61.1542 27.8054 61.6679 28.0923 62.0898 28.6128Z" fill="#050303"/>
<path d="M51.913 28.7119C51.5961 28.772 51.323 28.6426 51.0455 28.5636C50.1063 28.2962 49.1619 28.2011 48.1969 28.4149C47.3341 28.606 46.5798 29.0053 45.9062 29.5687C45.8311 29.6314 45.7607 29.6995 45.6855 29.7622C45.6239 29.8135 45.5467 29.8845 45.4744 29.8187C45.3776 29.7304 45.4593 29.6432 45.5195 29.567C45.5497 29.5288 45.5827 29.4922 45.6173 29.4578C47.4001 27.6893 49.617 27.4624 51.6832 28.4718C51.7654 28.5119 51.8683 28.5459 51.913 28.7119Z" fill="#060404"/>
<path d="M49.0449 29.3016C49.4688 29.3151 49.7749 29.5072 49.8512 29.8077C49.9249 30.0978 49.7911 30.4078 49.5056 30.6082C49.1783 30.8382 48.8157 30.849 48.4997 30.6452C48.2228 30.4666 48.1104 30.2183 48.1663 29.8942C48.2335 29.505 48.5589 29.2861 49.0449 29.3016Z" fill="#020102"/>
<path d="M58.6656 30.4409C58.2049 30.4343 57.8921 30.0694 57.8985 29.5463C57.903 29.1805 58.2548 28.8944 58.6798 28.9108C59.1216 28.9281 59.5095 29.2741 59.5119 29.6531C59.5142 30.0539 59.0919 30.447 58.6656 30.4409Z" fill="#030202"/>
<path d="M53.2836 32.5884C53.2553 32.9833 53.0927 33.3418 52.9732 33.7111C52.5579 34.9956 52.6423 35.3035 53.6683 36.1594C53.7679 36.2426 53.8656 36.3285 53.9572 36.4202C53.9875 36.4504 53.9958 36.5025 54.0161 36.5488C53.0432 36.4753 52.2274 35.4222 52.4294 34.4869C52.4975 34.1716 52.6145 33.8651 52.7292 33.5622C52.9134 33.0759 53.0872 32.5874 53.1854 32.0751C53.2549 32.022 53.1667 31.8288 53.3564 31.8823C53.3551 31.9787 53.3535 32.0751 53.3521 32.1716C53.275 32.3014 53.3503 32.4566 53.2836 32.5884Z" fill="#0B0707"/>
<path d="M43.7328 33.9297C43.8951 34.0541 43.8681 34.193 43.8483 34.3138C43.7725 34.7738 43.8437 35.2152 43.9811 35.653C44.007 35.7356 44.099 35.8487 43.9772 35.9083C43.8378 35.9762 43.7849 35.8355 43.7272 35.7452C43.4022 35.2372 43.4028 34.5706 43.7328 33.9297Z" fill="#1C1310"/>
<path d="M64.7506 34.9323C64.667 34.7603 64.7094 34.6524 64.7585 34.551C64.8949 34.2699 65.0178 33.9904 64.919 33.6645C64.8956 33.5871 64.9228 33.4974 65.0213 33.4735C65.1159 33.4505 65.1728 33.5143 65.2122 33.5874C65.3536 33.8485 65.3564 34.1178 65.2329 34.384C65.1312 34.6035 65.0098 34.8115 64.7506 34.9323Z" fill="#19110F"/>
<path d="M53.3586 31.883C53.3015 31.9473 53.2446 32.0116 53.1875 32.0758C53.1598 31.9152 53.173 31.768 53.318 31.6602C53.3905 31.7277 53.3789 31.8046 53.3586 31.883Z" fill="#392823"/>
<path d="M53.2839 32.5869C53.267 32.4414 53.2313 32.2927 53.3524 32.1699C53.374 32.3161 53.3908 32.4616 53.2839 32.5869Z" fill="#392823"/>
<path d="M41.2266 84.865C41.267 84.8227 41.3075 84.7806 41.3479 84.7383C41.5137 84.8796 41.6275 85.0567 41.7068 85.2577C41.695 85.2995 41.6687 85.3276 41.6275 85.3417C41.4541 85.2164 41.3191 85.0586 41.2266 84.865Z" fill="#30221C"/>
<path d="M41.625 85.3418C41.6514 85.3138 41.6779 85.2859 41.7042 85.2578C41.7325 85.3045 41.8077 85.3555 41.7585 85.4039C41.7057 85.4555 41.6528 85.4018 41.625 85.3418Z" fill="#160A08"/>
<path d="M37.7284 87.685C37.6667 87.6773 37.6302 87.6424 37.6172 87.582C37.6762 87.5925 37.7146 87.6256 37.7284 87.685Z" fill="#1C1311"/>
<path d="M32.8008 84.7829C32.8336 84.7472 32.8664 84.7115 32.8993 84.6758C32.9755 84.7026 33.0887 84.7605 33.0465 84.8232C32.9802 84.9219 32.8768 84.8481 32.8008 84.7829Z" fill="#45474C"/>
<path d="M37.5104 87.7703C37.4592 87.7737 37.4329 87.7461 37.4219 87.6992C37.4514 87.7229 37.481 87.7465 37.5104 87.7703Z" fill="#1C1311"/>
<path d="M52.8931 39.2862C54.5123 39.3269 56.1092 39.1014 57.7044 38.8555C57.8965 38.8259 58.0949 38.8129 58.2885 38.8245C58.4816 38.8361 58.5458 38.9718 58.4324 39.1288C58.3386 39.2585 58.2191 39.3787 58.0886 39.4716C57.0735 40.1954 55.9362 40.6143 54.7067 40.7819C54.1163 40.8624 53.5394 40.7448 52.9661 40.6058C52.1889 40.4176 51.4327 40.1645 50.6919 39.8677C50.4933 39.7881 50.1465 39.7301 50.2011 39.4801C50.2613 39.2043 50.6077 39.2933 50.8391 39.2898C51.5237 39.2796 52.2084 39.2862 52.8931 39.2862Z" fill="#F8E4D1"/>
</g>
</svg>
