<svg width="25" height="25" viewBox="0 0 25 25" fill="none" xmlns="http://www.w3.org/2000/svg">
<path fill-rule="evenodd" clip-rule="evenodd" d="M2.94596 0.797178C3.21934 0.524179 3.54763 0.312403 3.90905 0.175883C4.27047 0.0393643 4.65677 -0.0187805 5.04236 0.00530214C5.42795 0.0293848 5.80401 0.135145 6.14564 0.315574C6.48727 0.496004 6.78665 0.746982 7.02395 1.05188L9.82855 4.65517C10.3426 5.31613 10.5238 6.17711 10.3207 6.98965L9.46606 10.4117C9.42218 10.5889 9.42473 10.7745 9.47344 10.9505C9.52216 11.1265 9.6154 11.287 9.74418 11.4164L13.5831 15.2557C13.7127 15.3847 13.8734 15.4781 14.0497 15.5268C14.226 15.5756 14.4119 15.578 14.5893 15.5338L18.0095 14.6791C18.4105 14.5794 18.8289 14.5719 19.2332 14.6571C19.6375 14.7424 20.0172 14.9182 20.3438 15.1713L23.9469 17.9745C25.2421 18.9824 25.3609 20.8965 24.2015 22.0544L22.586 23.6701C21.4298 24.8264 19.7017 25.3342 18.0908 24.767C13.967 23.3179 10.2231 20.9571 7.13801 17.8605C4.04182 14.7756 1.68123 11.032 0.231979 6.9084C-0.333629 5.29895 0.174168 3.56918 1.33038 2.41288L2.94596 0.797178Z" fill="#8FA7BD"/>
</svg>
