<svg width="30" height="31" viewBox="0 0 30 31" fill="none" xmlns="http://www.w3.org/2000/svg">
<path d="M28.9555 6.22742C28.87 6.04934 28.7432 5.89433 28.5855 5.77544C28.4278 5.65649 28.2439 5.57718 28.0492 5.54401C27.8545 5.51084 27.6547 5.52487 27.4666 5.58487C27.2784 5.64493 27.1074 5.74917 26.9679 5.88897L22.2543 10.6395C22.0331 10.855 21.7367 10.9761 21.4279 10.9773C21.119 10.9784 20.8218 10.8595 20.599 10.6456L19.4606 9.49493C19.2388 9.26916 19.1145 8.9653 19.1145 8.64883C19.1145 8.33229 19.2388 8.02849 19.4606 7.80272L24.1742 3.04605C24.3124 2.90784 24.4153 2.73844 24.4742 2.55205C24.5332 2.36566 24.5463 2.16788 24.5126 1.97534C24.479 1.78193 24.4001 1.59917 24.2825 1.44201C24.1648 1.28482 24.0118 1.15762 23.8357 1.07075C21.8086 0.093939 19.5269 -0.225354 17.3094 0.157456C15.092 0.540266 13.0495 1.60607 11.4672 3.20604C9.98756 4.70615 8.96965 6.59952 8.53441 8.66113C8.09917 10.7227 8.26495 12.866 9.01192 14.8362L1.06158 22.8481C0.381493 23.535 0 24.4627 0 25.4295C0 26.3962 0.381493 27.3238 1.06158 28.0109L2.19998 29.1554C2.53652 29.4965 2.93748 29.7674 3.37955 29.9522C3.82162 30.1371 4.29605 30.2323 4.77523 30.2323C5.2544 30.2323 5.72884 30.1371 6.1709 29.9522C6.61297 29.7674 7.01394 29.4965 7.35047 29.1554L15.2885 21.1558C17.0056 21.81 18.8607 22.017 20.6798 21.7577C22.4988 21.4982 24.2222 20.7808 25.6879 19.6728C27.6824 18.1389 29.0934 15.97 29.6875 13.5251C30.2817 11.0801 30.0235 8.50557 28.9555 6.22742Z" fill="#333333"/>
</svg>
