<svg width="350" height="200" viewBox="0 0 350 200" fill="none" xmlns="http://www.w3.org/2000/svg">
<path d="M309.523 39.9102L178.801 147.861C171.201 147.003 163.301 149.368 157.478 155.192C147.33 165.346 147.33 181.806 157.478 191.949C167.632 202.103 184.084 202.103 194.238 191.949C200.058 186.129 202.424 178.236 201.569 170.646L309.523 39.9102ZM185.092 182.8C179.991 187.905 171.728 187.905 166.623 182.8C161.529 177.706 161.529 169.446 166.623 164.345C171.728 159.243 179.991 159.243 185.092 164.345C190.187 169.446 190.187 177.706 185.092 182.8Z" fill="#9F9F9F"/>
<path d="M249.167 76.5267L288.995 42.8229C258.393 16.3455 218.555 0.273438 175.011 0.273438C78.8092 0.273438 0.539062 78.5366 0.539062 174.735H51.7596C51.7596 106.776 107.052 51.4905 175.011 51.4905C202.863 51.494 228.5 60.8873 249.167 76.5267Z" fill="#9F9F9F"/>
<path d="M298.32 70.1665H314.902C313.792 68.7603 312.676 67.3505 311.507 65.9688H301.866L298.32 70.1665Z" fill="#9F9F9F"/>
<path d="M280.652 91.0493H328.98C328.195 89.6361 327.351 88.2403 326.51 86.8516H284.201L280.652 91.0493Z" fill="#9F9F9F"/>
<path d="M332.286 97.3164H275.374L272.914 100.22C273.218 100.645 273.49 101.088 273.793 101.514H334.289C333.633 100.108 332.987 98.7017 332.286 97.3164Z" fill="#9F9F9F"/>
<path d="M280.573 111.928H338.702C338.161 110.515 337.579 109.123 337.003 107.73H278.043C278.933 109.109 279.739 110.532 280.573 111.928Z" fill="#9F9F9F"/>
<path d="M286.248 122.397H342.211C341.789 120.991 341.37 119.584 340.913 118.199H284.141C284.877 119.581 285.561 120.987 286.248 122.397Z" fill="#9F9F9F"/>
<path d="M289.484 80.6313H322.543C321.594 79.2216 320.62 77.8189 319.626 76.4336H293.033L289.484 80.6313Z" fill="#9F9F9F"/>
<path d="M290.71 132.811H344.928C344.61 131.408 344.261 130.006 343.909 128.613H289C289.586 130.006 290.183 131.391 290.71 132.811Z" fill="#9F9F9F"/>
<path d="M294.125 143.221H346.982C346.748 141.811 346.486 140.416 346.217 139.023H292.812C293.245 140.419 293.734 141.794 294.125 143.221Z" fill="#9F9F9F"/>
<path d="M296.443 153.694H348.354C348.201 152.291 348.072 150.878 347.897 149.496H295.539C295.832 150.895 296.195 152.26 296.443 153.694Z" fill="#9F9F9F"/>
<path d="M297.809 164.159H349.183C349.109 162.749 349.029 161.35 348.938 159.961H297.285C297.46 161.36 297.693 162.725 297.809 164.159Z" fill="#9F9F9F"/>
<path d="M298.221 174.569H349.442C349.442 173.152 349.383 171.77 349.362 170.371H298.047C298.092 171.777 298.221 173.135 298.221 174.569Z" fill="#9F9F9F"/>
</svg>
