<svg width="348" height="526" viewBox="0 0 348 526" fill="none" xmlns="http://www.w3.org/2000/svg">
<path d="M165.995 425.327C170.357 429.851 177.642 429.851 182.027 425.327L297.239 306.315C364.92 236.405 364.92 122.635 297.239 52.7257C229.182 -17.5752 118.84 -17.5752 50.7615 52.7257C-16.9205 122.635 -16.9205 236.405 50.7615 306.315L165.995 425.327ZM174 126.327C202.203 126.327 225.149 150.191 225.149 179.519C225.149 208.847 202.203 232.689 174 232.689C145.797 232.689 122.851 208.825 122.851 179.519C122.851 150.191 145.797 126.327 174 126.327ZM305.221 487.505C305.221 505.643 280.202 513.445 261.357 517.706C212.716 528.765 135.284 528.765 86.6433 517.706C67.8196 513.445 42.7793 505.643 42.7793 487.505C42.7793 469.344 67.7978 461.565 86.6433 457.282C135.131 446.245 212.866 446.245 261.357 457.282C280.202 461.565 305.221 469.367 305.221 487.505Z" fill="#8FA7BD"/>
</svg>
