<svg width="124" height="26" viewBox="0 0 124 26" fill="none" xmlns="http://www.w3.org/2000/svg">
<path d="M117.507 21.3402C117.847 20.9202 118.187 20.7102 118.527 20.7102C118.867 20.7102 119.277 21.2002 119.757 22.1802C120.237 23.1402 120.477 23.8602 120.477 24.3402C120.477 24.4802 120.377 24.6402 120.177 24.8202C119.977 25.0002 119.787 25.0902 119.607 25.0902C119.107 25.0902 118.547 24.7802 117.927 24.1602C117.307 23.5202 116.997 23.0002 116.997 22.6002C116.997 22.1802 117.167 21.7602 117.507 21.3402ZM121.377 0.700195C121.757 0.700195 122.277 0.940196 122.937 1.4202C123.597 1.9002 123.927 2.2802 123.927 2.5602C123.927 4.2602 123.487 7.2502 122.607 11.5302C121.747 15.8102 121.057 17.9502 120.537 17.9502C120.217 17.9502 119.917 17.7902 119.637 17.4702C119.357 17.1302 119.217 16.7802 119.217 16.4202C119.197 16.3002 119.317 15.5802 119.577 14.2602C119.857 12.9402 120.147 11.0902 120.447 8.7102C120.747 6.3102 120.897 3.9002 120.897 1.4802C120.897 0.960196 121.057 0.700195 121.377 0.700195Z" fill="#335B71"/>
<path d="M103.044 11.2895C103.044 11.4695 102.154 12.4095 100.374 14.1095C99.7136 14.7495 99.1036 15.5095 98.5436 16.3895C98.0036 17.2495 97.7336 18.0395 97.7336 18.7595C97.7336 19.4795 97.9436 20.1495 98.3636 20.7695C98.8036 21.3695 99.2736 21.8295 99.7736 22.1495C100.294 22.4495 100.764 22.7495 101.184 23.0495C101.624 23.3495 101.844 23.5995 101.844 23.7995C101.844 24.2995 101.444 24.5495 100.644 24.5495C99.8636 24.5495 98.9236 24.1095 97.8236 23.2295C96.7436 22.3295 96.0736 21.3295 95.8136 20.2295C95.7136 20.0295 95.6336 19.8395 95.5736 19.6595C94.2136 21.4995 93.2236 22.7795 92.6036 23.4995C92.0036 24.1995 91.5536 24.5495 91.2536 24.5495C90.9536 24.5495 90.6236 24.3195 90.2636 23.8595C89.9036 23.3795 89.7236 22.9895 89.7236 22.6895C89.7236 22.3695 90.0436 21.0795 90.6836 18.8195C91.3436 16.5395 91.9936 13.8095 92.6336 10.6295C93.2936 7.44953 93.6236 4.60953 93.6236 2.10953C93.6236 1.78953 93.6636 1.56953 93.7436 1.44953C93.8436 1.32953 94.0436 1.26953 94.3436 1.26953C94.6436 1.26953 95.0136 1.56953 95.4536 2.16953C95.8936 2.74953 96.1136 3.31953 96.1136 3.87953C96.1136 5.65953 95.7536 8.14953 95.0336 11.3495C94.3136 14.5495 93.4536 17.5895 92.4536 20.4695C94.7136 17.2495 96.6636 14.6495 98.3036 12.6695C99.9636 10.6695 100.984 9.66953 101.364 9.66953C101.764 9.66953 102.144 9.85953 102.504 10.2395C102.864 10.6195 103.044 10.9695 103.044 11.2895Z" fill="#335B71"/>
<path d="M81.2541 24.5499C80.0941 24.5499 79.0041 24.0999 77.9841 23.1999C76.9641 22.2799 76.4541 21.1999 76.4541 19.9599C76.4541 18.6999 76.8741 17.2499 77.7141 15.6099C78.5541 13.9699 79.6341 12.5699 80.9541 11.4099C82.2941 10.2499 83.5941 9.66992 84.8541 9.66992C85.6741 9.66992 86.3941 10.0399 87.0141 10.7799C87.6341 11.5199 87.9441 12.1699 87.9441 12.7299C87.9441 12.8899 87.8941 13.0299 87.7941 13.1499C87.6941 13.2499 87.5441 13.2999 87.3441 13.2999C87.1641 13.2999 86.8341 13.1199 86.3541 12.7599C85.8741 12.3999 85.4441 12.2199 85.0641 12.2199C83.9841 12.2199 82.7241 13.1699 81.2841 15.0699C79.8441 16.9699 79.1241 18.6299 79.1241 20.0499C79.1241 20.6699 79.3141 21.1599 79.6941 21.5199C80.0941 21.8799 80.7241 22.0599 81.5841 22.0599C82.4641 22.0599 83.2641 21.9599 83.9841 21.7599C84.7241 21.5399 85.2941 21.3299 85.6941 21.1299C86.0941 20.9099 86.4041 20.7999 86.6241 20.7999C87.0041 20.7999 87.1941 20.9899 87.1941 21.3699C87.1941 21.9499 86.4941 22.6299 85.0941 23.4099C83.7141 24.1699 82.4341 24.5499 81.2541 24.5499Z" fill="#335B71"/>
<path d="M73.1155 5.41047C73.1155 5.01047 73.2756 4.63047 73.5956 4.27047C73.9156 3.91047 74.2355 3.73047 74.5555 3.73047C74.8955 3.73047 75.2956 4.14047 75.7556 4.96047C76.2156 5.76047 76.4455 6.43047 76.4455 6.97047C76.4455 7.17047 76.3556 7.35047 76.1756 7.51047C75.9956 7.67047 75.8056 7.75047 75.6056 7.75047C75.1256 7.75047 74.5855 7.46047 73.9855 6.88047C73.4055 6.30047 73.1155 5.81047 73.1155 5.41047ZM72.9656 9.67047C73.3456 9.67047 73.7055 9.90047 74.0455 10.3605C74.3855 10.8205 74.5555 11.2705 74.5555 11.7105C74.5555 12.1505 74.2655 13.4705 73.6855 15.6705C73.1055 17.8505 72.3756 20.3005 71.4956 23.0205C71.1556 24.0205 70.7256 24.5205 70.2056 24.5205C69.9256 24.5205 69.6855 24.4105 69.4855 24.1905C69.2855 23.9505 69.1855 23.6905 69.1855 23.4105C69.1855 23.1105 69.2556 22.6505 69.3956 22.0305C69.5556 21.3905 69.7755 20.5505 70.0555 19.5105C70.3555 18.4505 70.5856 17.5905 70.7456 16.9305C70.9256 16.2705 71.1056 15.5305 71.2856 14.7105C71.4656 13.8705 71.6056 13.2005 71.7056 12.7005C71.8256 12.1805 71.9556 11.6605 72.0956 11.1405C72.3756 10.1605 72.6656 9.67047 72.9656 9.67047Z" fill="#335B71"/>
<path d="M67.8323 3.78953C67.8323 7.54953 67.0523 12.4295 65.4923 18.4295C64.4923 22.5095 63.7923 24.5495 63.3923 24.5495C63.1123 24.5495 62.7823 24.3295 62.4023 23.8895C62.0423 23.4495 61.8623 23.1095 61.8623 22.8695C61.8623 22.6295 62.1523 21.3895 62.7323 19.1495C63.3123 16.9095 63.8923 14.1595 64.4723 10.8995C65.0523 7.61953 65.3423 4.66953 65.3423 2.04953C65.3423 1.76953 65.3823 1.56953 65.4623 1.44953C65.5423 1.32953 65.7123 1.26953 65.9723 1.26953C66.2323 1.26953 66.6023 1.55953 67.0823 2.13953C67.5823 2.69953 67.8323 3.24953 67.8323 3.78953Z" fill="#335B71"/>
<path d="M53.3928 24.5499C52.2328 24.5499 51.1428 24.0999 50.1228 23.1999C49.1028 22.2799 48.5928 21.1999 48.5928 19.9599C48.5928 18.6999 49.0128 17.2499 49.8528 15.6099C50.6928 13.9699 51.7728 12.5699 53.0928 11.4099C54.4328 10.2499 55.7328 9.66992 56.9928 9.66992C57.8128 9.66992 58.5328 10.0399 59.1528 10.7799C59.7728 11.5199 60.0828 12.1699 60.0828 12.7299C60.0828 12.8899 60.0328 13.0299 59.9328 13.1499C59.8328 13.2499 59.6828 13.2999 59.4828 13.2999C59.3028 13.2999 58.9728 13.1199 58.4928 12.7599C58.0128 12.3999 57.5828 12.2199 57.2028 12.2199C56.1228 12.2199 54.8628 13.1699 53.4228 15.0699C51.9828 16.9699 51.2628 18.6299 51.2628 20.0499C51.2628 20.6699 51.4528 21.1599 51.8328 21.5199C52.2328 21.8799 52.8628 22.0599 53.7228 22.0599C54.6028 22.0599 55.4028 21.9599 56.1228 21.7599C56.8628 21.5399 57.4328 21.3299 57.8328 21.1299C58.2328 20.9099 58.5428 20.7999 58.7628 20.7999C59.1428 20.7999 59.3328 20.9899 59.3328 21.3699C59.3328 21.9499 58.6328 22.6299 57.2328 23.4099C55.8528 24.1699 54.5728 24.5499 53.3928 24.5499Z" fill="#335B71"/>
<path d="M17.8404 25.7202C14.5404 25.7202 10.4004 24.7902 7.67035 22.7202H5.48035C4.40035 21.5802 3.86035 19.4802 3.86035 16.5102C3.86035 14.2602 4.52035 11.8002 5.45035 10.7502C5.54035 10.7202 6.65035 10.8102 7.13035 10.8102C8.18035 10.8102 8.57035 10.7502 10.2804 9.4002C12.1404 7.9302 13.3404 7.4502 15.1404 7.4502C17.2104 7.4502 18.8904 7.7202 20.1504 8.2302C21.4704 8.7702 22.5204 9.0702 23.0604 9.2202C23.4204 9.3102 23.7804 9.4902 24.0204 9.6702C24.8904 9.7302 25.7604 9.7902 26.6304 9.8802C28.0104 10.0302 29.7504 10.2402 30.9804 10.3902C33.4404 10.6902 34.4904 11.3802 34.4904 12.8202C34.4904 14.2302 33.5004 14.8902 31.5504 14.8902C30.8604 14.8902 29.4504 14.8002 28.1904 14.8002C27.2304 14.8002 26.3004 14.8602 25.4304 14.9202C25.7904 15.4302 25.9104 15.9402 25.9104 16.6602C25.9104 17.6202 25.4904 18.1902 24.6204 18.5802C24.3504 18.7002 24.2004 18.8202 24.2004 19.0302C24.2004 19.3602 24.5004 19.8102 24.5004 20.3802C24.5004 21.4002 23.9904 22.1202 23.0304 22.4502C22.7604 22.5402 22.7304 22.6002 22.7304 23.0502C22.7304 24.8502 21.0204 25.7202 17.8404 25.7202ZM17.8404 24.7002H19.0404C18.5604 24.5502 17.9304 24.3102 17.0004 23.8302C15.8004 23.2002 14.7804 22.3902 14.3304 21.7302C14.2704 21.5802 14.2404 21.3402 14.2404 21.1302C14.2404 20.7402 14.4204 20.3802 14.6304 20.1402C13.8804 19.7502 13.2204 19.3602 12.8904 19.0902C12.7404 18.9102 12.5904 18.5802 12.5604 18.1902C12.0204 18.3702 11.4204 18.4302 10.7304 18.4302C10.2504 18.4302 9.74035 18.3702 9.38035 18.2802V17.2302C9.71035 17.3202 10.3404 17.3502 10.7304 17.3502C11.5704 17.3502 12.2304 17.2602 12.7704 16.9902C13.0404 16.5102 13.5204 16.1802 14.1204 16.1202C14.0304 15.8502 13.9704 15.5502 13.9704 15.2502C13.9704 14.2302 14.6304 13.3602 15.8604 13.3602C16.3104 13.3602 16.7604 13.5102 17.2404 13.6902C17.3904 13.4802 17.5704 13.2402 17.7204 12.9702C17.0604 12.7902 16.5504 12.5502 16.3404 12.3402L17.1504 11.6202C17.5104 12.0102 20.7204 12.6102 21.9504 12.6102C22.7604 12.6102 23.5404 12.1002 23.5404 10.9902V10.6902H23.5104C23.5104 10.6002 23.1204 10.3602 22.7904 10.2702C22.2504 10.1202 21.1104 9.7902 19.7304 9.2202C18.6204 8.7702 17.0604 8.5302 15.1404 8.5302C13.5804 8.5302 12.6204 8.9202 10.9404 10.2702C9.17035 11.6802 8.48035 11.8902 7.13035 11.8902C6.83035 11.8902 6.35035 11.8602 5.99035 11.8302C5.39035 12.8802 4.94035 14.7702 4.94035 16.5102C4.94035 18.9102 5.30035 20.6202 5.99035 21.6402H8.03035C10.2204 23.5002 14.0004 24.7002 17.8404 24.7002ZM2.60035 23.7102C0.650352 23.7102 0.110352 19.4802 0.110352 16.7202C0.110352 13.9902 0.680352 9.70019 2.60035 9.70019H4.85035C5.21035 9.70019 5.45035 9.9702 5.45035 10.4202V10.4802C5.30035 10.3002 5.21035 10.2702 5.00035 10.2702C3.32035 10.2702 2.87035 14.0202 2.87035 16.7202C2.87035 19.4802 3.41035 23.2002 5.00035 23.2002C5.21035 23.2002 5.33035 23.1102 5.45035 22.9002V23.1102C5.45035 23.4402 5.30035 23.7102 4.85035 23.7102H2.60035ZM21.2904 14.8902C21.5004 14.1702 22.3704 13.8102 23.2404 13.8102C23.7804 13.8102 24.0804 13.8402 24.3504 13.9002C25.5504 13.8402 27.0204 13.7202 28.1904 13.7202C29.4804 13.7202 30.8904 13.8102 31.5504 13.8102C32.9904 13.8102 33.4104 13.5102 33.4104 12.8202C33.4104 12.0702 32.7804 11.7702 30.8304 11.4702C29.6304 11.2902 27.9804 11.1102 26.4804 10.9602C25.9404 10.9002 25.2804 10.8702 24.5904 10.8102V10.9602C24.5904 12.7002 23.3904 13.6902 22.0104 13.6902C21.2304 13.6902 19.9404 13.5102 18.7704 13.2402C18.6204 13.5402 18.4404 13.8102 18.2604 14.0802H18.2904C18.8004 14.2602 19.7304 14.6502 21.2904 14.8902ZM22.3404 18.3402C22.8204 18.3402 23.2704 18.1602 24.0504 17.6802C24.7104 17.2602 24.8304 17.1702 24.8304 16.7502C24.8304 16.0302 24.7404 15.3402 24.1704 14.8902C23.9604 14.8602 23.7804 14.8602 23.6304 14.8602C22.4904 14.8602 22.1604 15.3102 22.1604 16.0902C20.2104 15.8802 19.1304 15.4902 18.0204 15.0702C17.2704 14.8302 16.4604 14.2602 15.8004 14.3502C15.4704 14.3802 15.0204 14.5602 15.0204 15.1302C15.0204 15.3702 15.1704 15.7602 15.2004 15.8502C15.7704 16.3002 16.9104 17.0202 18.8604 17.7102C20.0304 18.1302 21.5604 18.3402 22.3404 18.3402ZM21.8604 21.6702C22.7904 21.6702 23.5404 21.3402 23.5404 20.5002C23.5404 20.0202 23.4204 19.5702 23.3004 19.2702C23.0004 19.3902 22.7904 19.4202 22.4904 19.4202C21.8004 19.4202 20.0004 19.1502 18.7104 18.7302C17.3304 18.2802 16.0404 17.6502 15.0804 17.0502C14.8404 16.9602 14.6304 16.9002 14.4204 16.9002C13.8804 16.9002 13.5504 17.3802 13.5504 17.8902C13.5504 18.1302 13.6404 18.4002 13.7604 18.5802C14.3304 19.0002 16.3104 20.0202 17.6304 20.5302C19.4004 21.2202 20.7204 21.6702 21.8604 21.6702ZM20.7204 23.9802C21.6804 23.9802 21.8304 23.2302 21.8304 22.7802C21.8304 22.7202 21.8304 22.6602 21.8004 22.6002H21.5904C19.9404 22.6002 18.4404 21.8502 17.3304 21.4002C16.8504 21.1902 16.2204 20.9202 15.6204 20.6202C15.4404 20.8002 15.2904 21.1002 15.2604 21.3702C15.5904 21.8202 16.3704 22.4502 17.1804 22.9002C18.2604 23.5002 18.8904 23.9802 20.7204 23.9802Z" fill="#335B71"/>
</svg>
