<svg width="19" height="16" viewBox="0 0 19 16" fill="none" xmlns="http://www.w3.org/2000/svg">
<path d="M17.3636 6.18042L16.9187 5.00958L16.1298 2.93333C15.4525 1.15125 13.8371 0 12.0135 0H6.98646C5.16325 0 3.54746 1.15125 2.87019 2.93333L2.08129 5.00958L1.63637 6.18042C0.681625 6.5625 0 7.5275 0 8.66667V10.6667C0 11.3383 0.243833 11.9446 0.633333 12.4137V14.6667C0.633333 15.4029 1.20056 16 1.9 16H3.16667C3.8661 16 4.43333 15.4029 4.43333 14.6667V13.3333H14.5667V14.6667C14.5667 15.4029 15.1339 16 15.8333 16H17.1C17.7994 16 18.3667 15.4029 18.3667 14.6667V12.4137C18.7562 11.945 19 11.3388 19 10.6667V8.66667C19 7.5275 18.3184 6.5625 17.3636 6.18042ZM5.22223 3.92375C5.51079 3.16458 6.20944 2.66667 6.98646 2.66667H12.0135C12.7906 2.66667 13.4892 3.16458 13.7778 3.92375L14.5667 6H4.43333L5.22223 3.92375ZM3.16667 10.6583C2.40667 10.6583 1.9 10.1267 1.9 9.32917C1.9 8.53167 2.40667 8 3.16667 8C3.92667 8 5.06667 9.19625 5.06667 9.99375C5.06667 10.7913 3.92667 10.6583 3.16667 10.6583ZM15.8333 10.6583C15.0733 10.6583 13.9333 10.7913 13.9333 9.99375C13.9333 9.19625 15.0733 8 15.8333 8C16.5933 8 17.1 8.53167 17.1 9.32917C17.1 10.1267 16.5933 10.6583 15.8333 10.6583Z" fill="#8C8C8C"/>
</svg>
