<svg width="27" height="16" viewBox="0 0 27 16" fill="none" xmlns="http://www.w3.org/2000/svg">
<path d="M18.3389 0H14.715C14.3775 0 14.0527 0.124955 13.8038 0.349873L9.65672 4.09851C9.6525 4.10268 9.64828 4.11101 9.64406 4.11517C8.94375 4.76494 8.95641 5.80206 9.55547 6.44766C10.0913 7.02662 11.2177 7.18073 11.9222 6.56012C11.9264 6.55596 11.9348 6.55596 11.9391 6.55179L15.3098 3.5029C15.5841 3.25715 16.0144 3.27381 16.2633 3.54455C16.5164 3.81528 16.4953 4.23596 16.2211 4.48587L15.12 5.48135L21.2625 10.4046C21.3848 10.5045 21.4945 10.6128 21.5958 10.7253V2.6657L19.2923 0.391525C19.0434 0.141615 18.6975 0 18.3389 0ZM22.95 2.67403V11.9998C22.95 12.737 23.5533 13.3327 24.3 13.3327H27V2.67403H22.95ZM24.975 11.9998C24.6038 11.9998 24.3 11.6999 24.3 11.3334C24.3 10.9669 24.6038 10.667 24.975 10.667C25.3463 10.667 25.65 10.9669 25.65 11.3334C25.65 11.6999 25.3463 11.9998 24.975 11.9998ZM0 13.3285H2.7C3.44672 13.3285 4.05 12.7329 4.05 11.9956V2.67403H0V13.3285ZM2.025 10.667C2.39625 10.667 2.7 10.9669 2.7 11.3334C2.7 11.6999 2.39625 11.9998 2.025 11.9998C1.65375 11.9998 1.35 11.6999 1.35 11.3334C1.35 10.9627 1.65375 10.667 2.025 10.667ZM20.4145 11.4417L14.1159 6.39351L12.8503 7.53893C11.5973 8.66769 9.67781 8.5594 8.55984 7.35567C7.425 6.13111 7.51359 4.23596 8.74547 3.1197L12.1964 0H8.66109C8.3025 0 7.96078 0.141615 7.70766 0.391525L5.4 2.6657V11.9915H6.17203L9.99 15.4027C11.1459 16.3316 12.8461 16.1566 13.7869 15.0154L13.7953 15.0071L14.5505 15.6527C15.2212 16.1941 16.2127 16.09 16.7569 15.4277L18.0816 13.82L18.3094 14.0033C18.8873 14.4656 19.7395 14.3823 20.2078 13.8075L20.6086 13.3202C21.0811 12.7454 20.9925 11.9082 20.4145 11.4417Z" fill="#8C8C8C"/>
</svg>
